<svg clip-rule="evenodd" fill-rule="evenodd" stroke-linejoin="round" stroke-miterlimit="2" viewBox="0 0 2951 2707" xmlns="http://www.w3.org/2000/svg" xmlns:xlink="http://www.w3.org/1999/xlink"><linearGradient id="a"><stop offset="0" stop-color="#857c69"/><stop offset="1" stop-color="#5e594b"/></linearGradient><linearGradient id="b" gradientUnits="userSpaceOnUse" x1="11.6875" x2="1219.2775" xlink:href="#a" y1="802.309" y2="802.309"/><linearGradient id="c" gradientUnits="userSpaceOnUse" x1="183.406" x2="1497.676" y1="960.056" y2="960.056"><stop offset="0" stop-color="#34c8cc"/><stop offset="1" stop-color="#28b8ba"/></linearGradient><linearGradient id="d" gradientUnits="userSpaceOnUse" x1="716.281" x2="926.043" y1="954.472" y2="954.472"><stop offset="0" stop-color="#fb774b"/><stop offset="1" stop-color="#d45d34"/></linearGradient><linearGradient id="e" gradientTransform="matrix(483.981 808.875 -808.875 483.981 2176.19 720.25)" gradientUnits="userSpaceOnUse" x1="0" x2="1" y1="0" y2="0"><stop offset="0" stop-color="#34c8cc"/><stop offset="1" stop-color="#17a1a3"/></linearGradient><linearGradient id="f" gradientUnits="userSpaceOnUse" x1="1810.88" x2="2074.865" y1="1161.69" y2="1161.69"><stop offset="0" stop-color="#9af0f4"/><stop offset="1" stop-color="#3bc3c6"/></linearGradient><linearGradient id="g" gradientUnits="userSpaceOnUse" x1="1006.34" x2="1720.587" y1="1840.43" y2="1840.43"><stop offset="0" stop-color="#179799"/><stop offset="1" stop-color="#1aa7a8"/></linearGradient><linearGradient id="h" gradientTransform="matrix(483.981 808.875 -808.875 483.981 2176.19 720.25)" gradientUnits="userSpaceOnUse" x1="0" x2="1" y1="0" y2="0"><stop offset="0" stop-color="#2faab1"/><stop offset="1" stop-color="#188c8e"/></linearGradient><linearGradient id="i" gradientTransform="matrix(188.745 237.032 -237.032 188.745 2039.97 2131.24)" gradientUnits="userSpaceOnUse" x1="0" x2="1" xlink:href="#a" y1="0" y2="0"/><clipPath id="j"><path clip-rule="evenodd" d="m1838.16 997.016c-1.469-11.325-2.593-22.772-3.312-34.341-5.625-89.591-2.063-156.672 28-212.922-3.438-10.15-16.5-55.978 8.5-99.434 9.625-23.885 29.156-48.253 66.531-66.822 0 0 .25.159.687.472-36.812 18.525-56.093 42.706-65.625 66.409-24.906 43.369-11.937 89.097-8.5 99.341-30.062 56.253-33.593 123.353-27.968 212.956.687 11.25 1.75 22.406 3.156 33.425-.469.306-.969.612-1.469.916zm152.844-387.032c-.375-.118-.75-.237-1.156-.356 75.218-59.087 157.5-94.034 232.844-111.281.031.106.062.215.093.325-75.093 17.4-156.968 52.409-231.781 111.312z"/></clipPath><path d="m0 0h2950.24v2706.09h-2950.24z" fill="none"/><path d="m2742.12 1980.11c0 82.304-121.031 134.16-259.406 134.16s-241.688-51.856-241.688-134.16c0-82.306 112.188-149.028 250.563-149.028s250.531 66.722 250.531 149.028z" fill="#5f594b" fill-rule="nonzero"/><path d="m1345.66 1343.55-959.319 795.965 1231.54 413.707 959.312-795.966-1231.53-413.706z" fill="#202936" fill-rule="nonzero"/><path d="m2577.19 1738.63-1231.53-413.709-959.319 795.965 1231.54 413.71 959.312-795.966z" fill="#fcf9f7" fill-rule="nonzero"/><path d="m1926.56 2042.56c-53.563 45.15-171.782 56.366-264.063 25.057-92.281-31.31-123.625-93.291-70.063-138.438 53.563-45.147 171.782-56.366 264.063-25.056 92.281 31.312 123.656 93.294 70.063 138.437z" fill="#b5aaa0" fill-rule="nonzero"/><path d="m1762.38 1986.84-188.344-17.785c-21.281 4.616 61.125-149.147 315.907-50.959z" fill="#18a2a3" fill-rule="nonzero"/><path d="m2401.19 1786.2-1067.75-362.316c-12.281-4.168-16.468-12.422-9.343-18.434 7.156-6.012 22.875-7.503 35.156-3.334l1067.78 362.318c12.281 4.169 16.469 12.422 9.313 18.432-7.125 6.009-22.875 7.503-35.156 3.334z" fill="#bfd9d0" fill-rule="nonzero"/><path d="m2321.94 1865.94-1089.66-369.757c-6.25-2.115-8.375-6.299-4.75-9.353 3.625-3.046 11.625-3.809 17.844-1.693l1089.69 369.756c6.219 2.115 8.344 6.303 4.719 9.353s-11.593 3.806-17.843 1.694z" fill="#bfd9d0" fill-rule="nonzero"/><path d="m2281.28 1900.22-1089.69-369.753c-6.219-2.119-8.344-6.307-4.719-9.353 3.625-3.054 11.594-3.81 17.844-1.694l1089.66 369.753c6.25 2.116 8.344 6.303 4.75 9.353-3.625 3.05-11.625 3.809-17.844 1.694z" fill="#bfd9d0" fill-rule="nonzero"/><path d="m1627.38 2442.23-1089.66-369.756c-6.235-2.113-8.354-6.3-4.732-9.353 3.619-3.047 11.607-3.81 17.841-1.694l1089.67 369.753c6.219 2.119 8.344 6.306 4.719 9.356s-11.594 3.807-17.844 1.694z" fill="#bfd9d0" fill-rule="nonzero"/><path d="m1586.72 2476.5-1089.67-369.753c-6.235-2.119-8.356-6.303-4.738-9.353 3.622-3.053 11.61-3.81 17.844-1.694l1089.66 369.753c6.25 2.116 8.375 6.303 4.75 9.353-3.624 3.05-11.625 3.81-17.843 1.694z" fill="#bfd9d0" fill-rule="nonzero"/><path d="m2240.59 1934.49-1089.66-369.753c-6.25-2.116-8.376-6.303-4.75-9.357 3.624-3.047 11.624-3.806 17.843-1.69l1089.69 369.753c6.219 2.115 8.343 6.306 4.718 9.353-3.624 3.053-11.593 3.809-17.843 1.694z" fill="#bfd9d0" fill-rule="nonzero"/><path d="m1554.97 1844.46-519.688-176.103c-9.187-3.118-11.031-10.406-4.062-16.278l.625-.512c6.937-5.872 20.062-8.104 29.25-4.988l519.687 176.103c9.188 3.119 11 10.407 4.063 16.278l-.625.516c-6.938 5.869-20.063 8.103-29.25 4.984z" fill="#bfd9d0" fill-rule="nonzero"/><path d="m1515.97 1889.24-537.344-182.081c-4.312-1.465-5.188-4.894-1.906-7.659l1.25-1.044c3.281-2.762 9.437-3.812 13.75-2.344l537.344 182.078c4.312 1.466 5.187 4.897 1.906 7.663l-1.25 1.044c-3.25 2.759-9.438 3.809-13.75 2.343z" fill="#bfd9d0" fill-rule="nonzero"/><path d="m1475.31 1923.53-537.312-182.078c-4.344-1.469-5.188-4.9-1.906-7.663l1.218-1.043c3.282-2.763 9.469-3.813 13.782-2.344l537.312 182.078c4.344 1.469 5.188 4.9 1.938 7.659l-1.25 1.044c-3.282 2.766-9.438 3.816-13.782 2.347z" fill="#bfd9d0" fill-rule="nonzero"/><path d="m1434.69 1957.81-537.312-182.079c-4.344-1.465-5.188-4.897-1.937-7.662l1.249-1.044c3.282-2.762 9.438-3.812 13.782-2.344l537.312 182.082c4.344 1.465 5.188 4.893 1.907 7.659l-1.219 1.044c-3.282 2.762-9.438 3.812-13.782 2.343z" fill="#bfd9d0" fill-rule="nonzero"/><path d="m1394.06 1992.1-537.343-182.081c-4.313-1.469-5.188-4.897-1.906-7.659l1.249-1.044c3.282-2.766 9.438-3.816 13.75-2.347l537.344 182.078c4.313 1.469 5.188 4.9 1.907 7.663l-1.251 1.043c-3.25 2.763-9.437 3.813-13.75 2.347z" fill="#bfd9d0" fill-rule="nonzero"/><path d="m1823.47 2274.01-614.157-208.403c-11.843-4.022-15.874-11.981-9-17.781l.907-.769c6.875-5.797 22.062-7.237 33.906-3.219l614.188 208.404c11.843 4.021 15.874 11.981 9 17.778l-.938.768c-6.875 5.8-22.062 7.241-33.906 3.222z" fill="#bfd9d0" fill-rule="nonzero"/><path d="m1785.62 2319.72-637.562-216.341c-5.375-1.828-7.219-5.447-4.063-8.084l1.75-1.497c3.125-2.638 10.031-3.294 15.437-1.462l637.563 216.337c5.375 1.828 7.219 5.45 4.094 8.087l-1.782 1.497c-3.125 2.635-10.031 3.291-15.437 1.463z" fill="#bfd9d0" fill-rule="nonzero"/><path d="m1744.97 2354-637.563-216.338c-5.406-1.831-7.218-5.45-4.093-8.087l1.781-1.497c3.125-2.634 10.031-3.291 15.406-1.462l637.562 216.337c5.407 1.831 7.219 5.45 4.094 8.088l-1.781 1.493c-3.125 2.641-10.031 3.294-15.406 1.466z" fill="#bfd9d0" fill-rule="nonzero"/><path d="m1704.28 2388.27-637.562-216.341c-5.375-1.825-7.219-5.447-4.094-8.081l1.781-1.5c3.125-2.637 10.031-3.294 15.438-1.463l637.562 216.341c5.375 1.828 7.219 5.447 4.094 8.088l-1.781 1.493c-3.125 2.638-10.032 3.294-15.438 1.463z" fill="#bfd9d0" fill-rule="nonzero"/><path d="m715.375 2046.64-67.294-22.613 137.856-114.369 67.282 22.61z" fill="#18a2a3" fill-rule="nonzero"/><path d="m878.719 2101.51-67.313-22.609 166.344-138.003 67.313 22.606z" fill="#18a2a3" fill-rule="nonzero"/><path d="m798.094 2074.42-67.313-22.609 97.813-81.138 67.281 22.612z" fill="#18a2a3" fill-rule="nonzero"/><path d="m961.625 2129.35-67.312-22.609 97.781-81.138 67.312 22.613z" fill="#18a2a3" fill-rule="nonzero"/><path d="m2688.72 2060.25c-3.188 3.297-6.656 6.516-10.375 9.641 3.719-3.125 7.187-6.344 10.375-9.641zm-102.688 53.312c32.125-7.865 59.344-19.918 80.438-34.578-21.094 14.66-48.313 26.713-80.438 34.578-12.875 3.144-25.906 5.469-38.937 7.016 13.031-1.547 26.062-3.872 38.937-7.016zm-58.5 8.757c-9.75.584-19.469.74-29.062.487 9.593.253 19.312.097 29.062-.487zm-93.406-7.75c5.156 1.234 10.438 2.315 15.781 3.284-5.343-.969-10.625-2.05-15.781-3.284-5.75-1.378-11.406-2.922-16.906-4.625 5.5 1.703 11.156 3.247 16.906 4.625zm273.406-80.313c2.719-5.415 4.781-10.934 6.157-16.512-1.376 5.578-3.438 11.097-6.157 16.512-1.781 3.61-3.875 7.172-6.25 10.675 2.375-3.503 4.469-7.065 6.25-10.675zm-328.437 60.019c4.625 2.466 9.437 4.784 14.437 6.953-5-2.169-9.812-4.487-14.437-6.953zm368.656-150.078c-50.437-77.888-183.344-110.059-319.5-76.753-120.406 29.459-188.656 103.384-167.937 173.965-.5 18.457 4.718 37.116 16.375 55.119 6.781 10.481 15.468 20.181 25.624 29.084l-38.312 27.138c-6.062-4.437-12.406-8.056-18.75-10.484-13.844-5.282-25.031-3.972-31.812 2.328v-.01l-210.969 154.385c-7.781 5.481-11.125 16.353-8 31.097 5.875 27.771 32.312 58.556 59.062 68.765 11.875 4.528 21.813 4.222 28.657.075l.031.003.25-.197c.875-.543 1.687-1.128 2.469-1.793l209.406-153.528-.031-.01c9.218-4.959 13.374-16.406 10-32.353-.844-4.053-2.188-8.169-3.875-12.275l55.718-39.453c69.844 31.434 167.438 40.191 258.344 17.953 120.406-29.459 188.656-103.381 167.938-173.965.5-18.46-23.032-41.088-34.688-59.091z" fill="#202936" fill-rule="nonzero"/><path d="m2739.12 1991.68c0 94.65-110.844 171.381-247.531 171.381-136.719 0-247.563-76.731-247.563-171.381s110.844-171.378 247.563-171.378c136.687 0 247.531 76.728 247.531 171.378z" fill="#5f594b" fill-rule="nonzero"/><path d="m459.303 1636.33-447.616-318.531 351.769-443.038z" fill="#202936" fill-rule="nonzero"/><path d="m11.687 1317.8 1038.38-431.094 169.218-599.881-1038.38 431.094-169.213 599.881z" fill="url(#b)"/><path d="m459.303 1636.33 1038.38-431.094-275.907-921.453-1038.38 431.097 275.897 921.45z" fill="url(#c)"/><path d="m286.953 770.216 883.734-374.244 14.594 47.897.094-.038 215.25 707.485-883.75 374.243-14.572-47.897-.094.038z" fill="#f5e8dd" fill-rule="nonzero"/><path d="m314.841 769.541 883.753-374.244 14.562 47.9.094-.041 215.25 707.488-883.738 374.243-14.571-47.9-.094.038z" fill="#fcf9f7" fill-rule="nonzero"/><path d="m1055.84 493.722c.25 15.244 12.312 27.094 26.937 26.466 14.625-.629 26.282-13.491 26.031-28.735-.25-15.244-12.312-27.094-26.937-26.465-14.625.628-26.281 13.49-26.031 28.734z" fill="#f5e8dd" fill-rule="nonzero"/><path d="m1087.44 472.241c10.688-4.997 16.532-16.172 16.844-32.319.75-39.628-33.375-93.903-74.594-118.522-10.187-6.1-20.062-9.937-28.968-11.397-8.219-1.35-15.594-.669-21.625 2.141-10.719 4.997-16.563 16.172-16.844 32.319-.281 13.231 3.375 28.093 9.875 42.94l-22.906 9.813c-8.906-19.616-13.844-39.682-13.5-58.035.5-24.884 10.75-43.253 28.906-51.719 20.031-9.337 47.5-5.143 75.344 11.507 51.906 31.025 91.812 95.259 90.812 146.234-.469 24.884-10.75 43.253-28.906 51.719-5.406 2.522-11.375 4.056-17.719 4.628-8.531.759-16.219-8.731-13.594-16.638v-.006c1.813-5.378 5.907-9.475 11.438-10.793 1.906-.457 3.719-1.079 5.437-1.872z" fill="#202936" fill-rule="nonzero"/><path d="m896 560.228c.25 15.244 12.313 27.094 26.937 26.466 14.626-.628 26.282-13.491 26.032-28.735-.25-15.243-12.313-27.093-26.938-26.465s-26.281 13.49-26.031 28.734z" fill="#f5e8dd" fill-rule="nonzero"/><path d="m927.594 538.747c10.719-4.997 16.531-16.172 16.843-32.319.782-39.628-33.374-93.903-74.562-118.522-10.219-6.097-20.094-9.937-29-11.397-8.219-1.35-15.594-.668-21.625 2.141-10.719 4.997-16.531 16.172-16.844 32.319-.253 13.231 3.406 28.094 9.875 42.94l-22.906 9.813c-8.875-19.616-13.844-39.681-13.469-58.034.466-24.885 10.719-43.251 28.875-51.719 20.031-9.338 47.5-5.144 75.344 11.509 51.906 31.022 91.813 95.256 90.812 146.231-.468 24.885-10.718 43.254-28.875 51.719-5.437 2.522-11.375 4.06-17.749 4.628-8.532.76-16.219-8.731-13.563-16.637v-.003c1.781-5.382 5.875-9.479 11.406-10.797 1.906-.457 3.719-1.078 5.438-1.872z" fill="#202936" fill-rule="nonzero"/><path d="m736.153 626.738c.253 15.24 12.316 27.09 26.938 26.462 14.659-.625 26.284-13.491 26.034-28.734-.253-15.244-12.316-27.091-26.937-26.466-14.626.628-26.282 13.494-26.035 28.738z" fill="#f5e8dd" fill-rule="nonzero"/><path d="m767.75 605.256c10.719-5 16.562-16.175 16.872-32.322.75-39.625-33.403-93.903-74.591-118.522-10.187-6.096-20.062-9.934-28.968-11.393-8.219-1.353-15.625-.669-21.657 2.14-10.7 4.994-16.528 16.169-16.84 32.319v-.003c-.254 13.231 3.4 28.094 9.89 42.941l-22.9 9.812c-8.897-19.616-13.847-39.681-13.49-58.034.478-24.881 10.74-43.25 28.897-51.716 20.037-9.34 47.475-5.147 75.35 11.506 51.906 31.022 91.781 95.257 90.812 146.235-.5 24.884-10.75 43.25-28.906 51.715-5.41 2.525-11.375 4.06-17.719 4.628-8.531.763-16.222-8.731-13.594-16.637v-.003c1.813-5.381 5.875-9.475 11.435-10.794 1.909-.456 3.722-1.081 5.409-1.872z" fill="#202936" fill-rule="nonzero"/><path d="m576.337 693.244c.25 15.244 12.31 27.09 26.938 26.465 14.625-.628 26.278-13.493 26.028-28.737s-12.309-27.091-26.934-26.463c-14.628.625-26.281 13.491-26.032 28.735z" fill="#f5e8dd" fill-rule="nonzero"/><path d="m607.925 671.762c10.716-4.996 16.541-16.171 16.853-32.318.766-39.628-33.387-93.906-74.575-118.525-10.2-6.097-20.081-9.935-28.981-11.394-8.225-1.35-15.609-.669-21.635 2.141-10.715 4.993-16.543 16.172-16.853 32.318-.253 13.232 3.4 28.091 9.891 42.941l-22.9 9.812c-8.897-19.615-13.847-39.684-13.494-58.034v-.003c.478-24.881 10.744-43.25 28.897-51.716 20.025-9.337 47.491-5.147 75.344 11.507 51.903 31.025 91.794 95.256 90.809 146.234-.478 24.884-10.74 43.25-28.897 51.716-5.409 2.525-11.368 4.062-17.728 4.628-8.528.762-16.215-8.732-13.584-16.638l.003-.003c1.794-5.381 5.878-9.475 11.425-10.794 1.909-.456 3.722-1.078 5.425-1.872z" fill="#202936" fill-rule="nonzero"/><path d="m416.503 759.75c.25 15.244 12.313 27.091 26.938 26.466 14.625-.628 26.281-13.494 26.028-28.738-.25-15.241-12.31-27.091-26.938-26.462-14.622.625-26.278 13.49-26.028 28.734z" fill="#f5e8dd" fill-rule="nonzero"/><path d="m448.094 738.269c10.709-4.997 16.54-16.172 16.85-32.319.765-39.628-33.385-93.906-74.572-118.522-10.203-6.1-20.084-9.937-28.981-11.397-8.225-1.35-15.613-.668-21.635 2.141-10.719 4.997-16.544 16.172-16.856 32.319-.253 13.231 3.4 28.093 9.891 42.94l-22.9 9.813c-8.897-19.616-13.847-39.685-13.494-58.035.478-24.884 10.744-43.25 28.897-51.715 20.028-9.341 47.487-5.147 75.343 11.503 51.904 31.025 91.794 95.259 90.813 146.234-.481 24.885-10.744 43.253-28.897 51.716-5.416 2.525-11.369 4.062-17.728 4.628-8.531.762-16.219-8.728-13.588-16.634l.004-.007c1.793-5.378 5.881-9.475 11.421-10.793 1.913-.453 3.729-1.078 5.432-1.872z" fill="#202936" fill-rule="nonzero"/><path d="m406.988 925.312-1.354-3.112 805.835-334.088 1.343 3.113z" fill="#bfd9d0" fill-rule="nonzero"/><path d="m442.147 1037.17-1.353-3.113 805.831-334.087 1.344 3.109z" fill="#bfd9d0" fill-rule="nonzero"/><path d="m477.303 1149.02-1.35-3.113 805.828-334.087 1.375 3.112z" fill="#bfd9d0" fill-rule="nonzero"/><path d="m512.462 1260.87-1.353-3.113 805.829-334.087 1.374 3.112z" fill="#bfd9d0" fill-rule="nonzero"/><path d="m547.622 1372.72-1.353-3.11 805.825-334.087 1.375 3.112z" fill="#bfd9d0" fill-rule="nonzero"/><path d="m1081.81 645.544 34.124 108.6 105.063-43.56-34.125-108.6zm32.031 113.15-36.188-115.103 111.344-46.157 36.156 115.104z" fill="#bfd9d0" fill-rule="nonzero"/><path d="m973.594 690.4 34.156 108.603 105.062-43.559-34.124-108.603zm32.031 113.15-36.188-115.1 111.344-46.156 36.188 115.1z" fill="#bfd9d0" fill-rule="nonzero"/><path d="m865.406 735.259 34.125 108.604 105.063-43.563-34.125-108.6zm32.032 113.15-36.188-115.1 111.344-46.159 36.156 115.103z" fill="#bfd9d0" fill-rule="nonzero"/><path d="m757.219 780.119 34.125 108.6 105.062-43.56-34.125-108.6zm32 113.15-36.157-115.1 111.313-46.16 36.188 115.103z" fill="#bfd9d0" fill-rule="nonzero"/><path d="m649.006 824.975 34.15 108.603 105.063-43.559-34.156-108.603zm32.025 113.15-36.181-115.1 111.337-46.156 36.188 115.1z" fill="#bfd9d0" fill-rule="nonzero"/><path d="m540.806 869.834 34.135 108.6 105.059-43.559-34.128-108.6zm32.025 113.15-36.181-115.1 111.331-46.156 36.175 115.1z" fill="#bfd9d0" fill-rule="nonzero"/><path d="m432.606 914.694 34.135 108.6 105.068-43.56-34.137-108.6zm32.025 113.15-36.181-115.103 111.331-46.157 36.185 115.1z" fill="#bfd9d0" fill-rule="nonzero"/><path d="m1116.97 757.394 34.125 108.603 105.062-43.56-34.125-108.603zm32.031 113.15-36.188-115.1 111.344-46.157 36.157 115.101z" fill="#bfd9d0" fill-rule="nonzero"/><path d="m1008.75 802.253 34.156 108.6 105.063-43.559-34.125-108.6zm32.031 113.15-36.187-115.103 111.343-46.156 36.188 115.103z" fill="#bfd9d0" fill-rule="nonzero"/><path d="m900.563 847.112 34.124 108.601 105.094-43.56-34.156-108.603zm32.031 113.15-36.188-115.103 111.344-46.156 36.188 115.1z" fill="#bfd9d0" fill-rule="nonzero"/><path d="m792.375 891.969 34.125 108.603 105.062-43.559-34.124-108.604zm32 113.15-36.156-115.1 111.312-46.156 36.188 115.099z" fill="#bfd9d0" fill-rule="nonzero"/><path d="m684.156 936.828 34.156 108.6 105.063-43.559-34.156-108.6zm32.031 113.15-36.187-115.103 111.344-46.156 36.187 115.103z" fill="#bfd9d0" fill-rule="nonzero"/><path d="m575.966 981.684 34.134 108.604 105.056-43.56-34.125-108.603zm32.025 113.154-36.182-115.104 111.347-46.156 36.156 115.1z" fill="#bfd9d0" fill-rule="nonzero"/><path d="m467.766 1026.54 34.134 108.603 105.066-43.56-34.135-108.603zm32.025 113.15-36.185-115.1 111.335-46.16 36.184 115.104z" fill="#bfd9d0" fill-rule="nonzero"/><path d="m1152.12 869.247 34.125 108.6 105.062-43.56-34.124-108.6zm32.031 113.15-36.187-115.103 111.343-46.157 36.157 115.101z" fill="#bfd9d0" fill-rule="nonzero"/><path d="m1043.94 914.103 34.124 108.603 105.063-43.559-34.125-108.603zm32 113.15-36.157-115.1 111.313-46.156 36.187 115.1z" fill="#bfd9d0" fill-rule="nonzero"/><path d="m935.719 958.962 34.156 108.604 105.062-43.56-34.156-108.603zm32.031 113.15-36.188-115.099 111.344-46.16 36.188 115.103z" fill="#bfd9d0" fill-rule="nonzero"/><path d="m827.531 1003.82 34.125 108.6 105.063-43.559-34.125-108.601zm32.032 113.15-36.188-115.103 111.312-46.156 36.188 115.099z" fill="#bfd9d0" fill-rule="nonzero"/><path d="m719.312 1048.68 34.157 108.603 105.062-43.559-34.156-108.603zm32.032 113.153-36.188-115.103 111.344-46.156 36.188 115.1z" fill="#bfd9d0" fill-rule="nonzero"/><path d="m611.125 1093.54 34.134 108.603 105.053-43.56-34.125-108.603zm32.025 113.15-36.184-115.101 111.346-46.159 36.157 115.103z" fill="#bfd9d0" fill-rule="nonzero"/><path d="m502.925 1138.4 34.134 108.6 105.066-43.56-34.134-108.599zm32.025 113.15-36.184-115.103 111.334-46.156 36.184 115.103z" fill="#bfd9d0" fill-rule="nonzero"/><path d="m1187.28 981.097 34.125 108.603 105.094-43.563-34.156-108.599zm32.032 113.15-36.188-115.1 111.344-46.156 36.187 115.1z" fill="#bfd9d0" fill-rule="nonzero"/><path d="m1079.09 1025.96 34.125 108.6 105.062-43.559-34.125-108.6zm32 113.15-36.157-115.1 111.313-46.159 36.188 115.103z" fill="#bfd9d0" fill-rule="nonzero"/><path d="m970.875 1070.81 34.156 108.604 105.063-43.56-34.156-108.603zm32.031 113.15-36.187-115.099 111.343-46.157 36.188 115.1z" fill="#bfd9d0" fill-rule="nonzero"/><path d="m862.688 1115.67 34.124 108.603 105.063-43.559-34.125-108.604zm32.031 113.15-36.188-115.1 111.344-46.156 36.156 115.1z" fill="#bfd9d0" fill-rule="nonzero"/><path d="m754.469 1160.53 34.156 108.6 105.062-43.559-34.124-108.6zm32.031 113.15-36.188-115.1 111.344-46.159 36.188 115.103z" fill="#bfd9d0" fill-rule="nonzero"/><path d="m646.284 1205.39 34.122 108.6 105.063-43.56-34.125-108.6zm32.028 113.15-36.187-115.104 111.344-46.156 36.184 115.1z" fill="#bfd9d0" fill-rule="nonzero"/><path d="m538.084 1250.25 34.132 108.6 105.065-43.556-34.131-108.603zm32.022 113.15-36.181-115.1 111.334-46.156 36.178 115.103z" fill="#bfd9d0" fill-rule="nonzero"/><path d="m720.625 1012.88c16.406 69.372 74.719 99.457 130.281 67.194 55.532-32.259 87.25-114.647 70.813-184.016-16.407-69.371-74.719-99.456-130.25-67.193-55.531 32.256-87.25 114.647-70.844 184.015z" fill="url(#d)"/><g fill-rule="nonzero"><path d="m868.281 882.059c-4 15.147-8.031 30.297-12.031 45.447-6.406 24.16-12.781 48.322-19.188 72.485-1.468 5.565-2.968 11.134-4.437 16.7 4.406-1.157 8.781-2.316 13.156-3.475-20.375-16.61-40.781-33.222-61.159-49.832-2.872-2.343-5.747-4.684-8.625-7.025-3.309-2.684-7.903-3.225-11.153 0-2.75 2.772-3.316 8.435 0 11.135 20.406 16.612 40.812 33.222 61.187 49.834 2.875 2.341 5.75 4.681 8.625 7.025 4.406 3.6 11.532 2.706 13.157-3.475 4.031-15.15 8.031-30.297 12.031-45.447 6.406-24.162 12.812-48.322 19.187-72.484 1.469-5.569 2.969-11.134 4.438-16.703 2.594-9.806-12.594-13.988-15.188-4.185z" fill="#fff"/><path d="m1738.16 2246.96c-2.187 0-4.219-1.453-4.843-3.55l7.718 2.625c-.906.641-1.906.925-2.875.925zm30.438-22.106-28.875-9.8 8.656-34.506c.687-4.066 2.25-8.053 4.844-11.616l62.406-85.856c32.156-3.678 61.813-11.747 85.469-23.856l-102.938 141.606c-1.187 1.622-2.531 3.066-3.968 4.353-.938.834-1.938 1.575-2.938 2.263zm183.844-236.278c-1.844-17.525-12.626-34.991-31.407-50.469l65.344-89.878 54.625 18.538zm97.593-134.238-54.625-18.537 19-26.134 54.625 18.54zm28.031-38.562-54.624-18.538 18.999-26.137 54.626 18.54zm28.032-38.563-54.625-18.537 33.968-46.734c5.438-7.46 14-11.441 22.657-11.441 5.562 0 11.187 1.653 16.031 5.087 12.344 8.772 15.156 25.985 6.25 38.247z" fill="#d4d3d4"/><path d="m1815.62 2083.07 105.406-144.969c18.781 15.478 29.563 32.944 31.407 50.469l-51.344 70.644c-23.656 12.109-53.313 20.178-85.469 23.856z" fill="#9a938d"/><path d="m2097.06 1789.64-54.626-18.54 9.032-12.425 54.625 18.537z" fill="#a2b9b4"/><path d="m2069.03 1828.2-54.625-18.54 9.032-12.429 54.624 18.538z" fill="#a2b9b4"/><path d="m2041 1866.76-54.625-18.538 9.031-12.428 54.625 18.537z" fill="#a2b9b4"/><path d="m1741.03 2246.03-7.718-2.625c-.251-.806-.313-1.706-.063-2.656l6.469-25.7 28.875 9.8-27.344 21.028c-.062.053-.156.106-.219.153z" fill="#a2b9b4"/><path d="m1556.78 1439.26c-46.593-31.081-129.406-34.562-184.969-7.775-55.562 26.788-62.843 73.704-16.281 104.785 46.594 31.081 129.407 34.562 185 7.775 55.563-26.791 62.844-73.7 16.25-104.785z" fill="#202936"/><path d="m1806.62 1500.38c-41.656-24.269-119.5-25.787-173.813-3.394-54.343 22.397-64.625 60.225-22.968 84.491 41.687 24.269 119.5 25.784 173.844 3.391 54.343-22.394 64.624-60.219 22.937-84.488z" fill="#202936"/><path d="m1797.84 1489.99c1.125 4.837-.531 41.209-2.657 46.45-3.968 16.675-18.281 32.622-42.625 44.518-53.406 26.113-134.656 22.882-181.531-7.212-21.844-14.031-33.75-28.4-34.25-46.506-.781-9.788-1.375-37.125-1.375-37.125 1.625-5.994 8.625.156 12.938-5.466 7.125-11.075 19.187-21.315 36.094-29.591 53.406-26.112 134.687-22.881 181.531 7.216 19.719 12.672 30.343 12.163 31.875 27.716z" fill="#f0b037"/><path d="m1767.34 1442.94c-46.594-31.081-129.406-34.559-184.969-7.771-55.563 26.787-62.844 73.7-16.281 104.781 46.594 31.081 129.406 34.565 185 7.775 55.562-26.788 62.843-73.703 16.25-104.785z" fill="#fff"/><path d="m1767.31 1438.89c-46.594-31.082-129.407-34.56-185.001-7.772-55.562 26.787-62.843 73.7-16.249 104.781 46.593 31.084 129.406 34.566 184.968 7.778 55.594-26.791 62.875-73.703 16.282-104.787z" fill="#ffd482"/><path d="m1736.91 1451.53c-32.562-21.728-90.469-24.162-129.312-5.434-38.844 18.725-43.938 51.522-11.375 73.25 32.562 21.728 90.468 24.163 129.312 5.438 38.844-18.732 43.938-51.525 11.375-73.254z" fill="#fff"/><path d="m1607.66 1452.46c38.844-18.728 96.75-16.293 129.313 5.435 13 8.662 19.968 19.084 21.25 29.669 1.219-12.71-5.719-25.638-21.313-36.032-32.562-21.728-90.469-24.162-129.312-5.434-23.375 11.259-34.5 27.613-32.594 43.581 1.313-13.853 12.406-27.45 32.656-37.219z" fill="#f2c97b"/><path d="m1626.16 1502.94c-5.5-4.507-10.031-10.879-10.156-16.632l18.094-1.275c1.125 5.744 3.562 9.957 8.687 13.297 6 3.897 11.282 4.303 16.5 1.641 11.719-5.956-16.75-24.2 3.719-34.613 11.156-5.665 25.094-5.565 37.281-.128l11.719-5.956 10.375 6.744-11.469 5.84c5.813 4.972 7.094 10.022 6.594 15.107l-17.469-.288c-.094-4.412-1.468-7.553-5.969-10.472-5.125-3.34-10.062-4.047-15.187-1.443-10.781 5.493 18.344 23.39-3.375 34.437-10.906 5.556-25 6.147-38.5.256l-11.812 6.016-10.376-6.744z" fill="#ffd482"/><path d="m1668.44 1567.06.687 31.572c0 .569.469 1.022 1.062 1.01.563-.013 1.001-.485 1.001-1.056l-.688-31.569c0-.572-.469-1.022-1.063-1.013-.562.013-.999.488-.999 1.056z" fill="#ffd482"/><path d="m1702.19 1564.33.469 30.716c0 .572.469 1.025 1.063 1.019.562-.01 1-.478 1-1.05l-.469-30.716c0-.572-.469-1.025-1.031-1.019-.594.01-1.032.478-1.032 1.05z" fill="#ffd482"/><path d="m1734.22 1556.22.437 30.715c.031.572.5 1.028 1.063 1.019.562-.009 1.031-.478 1.031-1.05l-.469-30.716c-.031-.568-.5-1.025-1.062-1.015-.563.006-1.032.478-1 1.047z" fill="#ffd482"/><path d="m1762.84 1542.78.437 28.325c0 .569.469 1.025 1.063 1.019.562-.009 1-.481 1-1.05l-.438-28.325c0-.569-.469-1.025-1.031-1.016-.562.01-1.031.479-1.031 1.047z" fill="#ffd482"/><path d="m1786.22 1522.61-.344 28.791c-.031.572.437 1.037 1 1.047.594.006 1.063-.45 1.063-1.022l.343-28.791c0-.569-.469-1.037-1.031-1.044-.563-.009-1.031.451-1.031 1.019z" fill="#ffd482"/><path d="m1633.06 1565.09.219 30.718c0 .572.469 1.032 1.031 1.029.563-.007 1.032-.472 1.032-1.041l-.219-30.719c0-.572-.469-1.031-1.031-1.028-.563.006-1.032.472-1.032 1.041z" fill="#ffd482"/><path d="m1600.88 1557.68.219 30.719c0 .572.468 1.031 1.031 1.028.562-.006 1.031-.472 1.031-1.041l-.219-30.718c0-.572-.468-1.032-1.031-1.028-.562.006-1.031.472-1.031 1.04z" fill="#ffd482"/><path d="m1571.94 1544.89.187 28.325c0 .571.469 1.031 1.063 1.025.562-.004 1.031-.469.999-1.041l-.187-28.325c0-.572-.469-1.031-1.031-1.025-.594.003-1.031.469-1.031 1.041z" fill="#ffd482"/><path d="m1548.16 1525.28.969 28.775c.031.572.5 1.019 1.063.997.562-.019 1.031-.497 1-1.065l-.969-28.775c-.031-.572-.5-1.019-1.063-.997-.593.019-1.031.497-1 1.065z" fill="#ffd482"/><path d="m1716.94 1337.89c1.156 4.837-.5 41.209-2.626 46.447-3.999 16.675-18.281 32.621-42.625 44.518-53.406 26.116-134.687 22.885-181.531-7.212-21.844-14.028-33.781-28.397-34.25-46.506-.812-9.788-1.406-37.122-1.406-37.122 1.656-5.994 8.656.159 12.969-5.469 7.125-11.075 19.156-21.313 36.094-29.591 53.406-26.109 134.656-22.881 181.531 7.216 19.719 12.675 30.312 12.162 31.844 27.719z" fill="#f0b037"/><path d="m1686.47 1290.83c-46.594-31.081-129.406-34.562-184.969-7.775-55.594 26.788-62.875 73.7-16.281 104.782 46.594 31.084 129.406 34.565 184.968 7.778 55.594-26.791 62.875-73.703 16.282-104.785z" fill="#fff"/><path d="m1686.44 1286.78c-46.594-31.081-129.407-34.562-185.001-7.775-55.562 26.788-62.843 73.7-16.249 104.782 46.593 31.084 129.406 34.565 184.968 7.778 55.563-26.791 62.844-73.697 16.282-104.785z" fill="#ffd482"/><path d="m1656.03 1299.43c-32.562-21.728-90.469-24.159-129.312-5.434-38.844 18.728-43.938 51.522-11.375 73.25 32.562 21.731 90.468 24.165 129.312 5.437 38.844-18.725 43.938-51.522 11.375-73.253z" fill="#fff"/><path d="m1526.78 1300.36c38.844-18.725 96.75-16.294 129.313 5.435 12.968 8.665 19.968 19.087 21.25 29.675 1.219-12.713-5.75-25.644-21.313-36.038-32.562-21.728-90.469-24.159-129.312-5.434-23.375 11.262-34.532 27.612-32.625 43.581 1.344-13.853 12.437-27.45 32.687-37.219z" fill="#f2c97b"/><path d="m1545.28 1350.84c-5.5-4.51-10.031-10.879-10.187-16.635l18.125-1.275c1.125 5.744 3.562 9.963 8.687 13.297 6 3.897 11.282 4.303 16.5 1.641 11.719-5.957-16.75-24.2 3.719-34.61 11.125-5.668 25.063-5.569 37.281-.131l11.719-5.956 10.375 6.747-11.5 5.837c5.844 4.972 7.125 10.022 6.625 15.11l-17.469-.291c-.094-4.413-1.468-7.55-5.969-10.469-5.125-3.34-10.062-4.05-15.187-1.447-10.812 5.497 18.344 23.391-3.375 34.438-10.906 5.556-25 6.15-38.5.256l-11.844 6.016-10.375-6.744z" fill="#ffd482"/><path d="m1587.56 1414.96.656 31.569c.031.569.5 1.022 1.062 1.01.594-.013 1.032-.485 1.032-1.054l-.688-31.568c-.031-.569-.5-1.022-1.063-1.01-.562.013-1.031.485-.999 1.053z" fill="#ffd482"/><path d="m1621.31 1412.23.469 30.716c0 .572.469 1.028 1.032 1.019.593-.01 1.031-.479 1.031-1.05l-.469-30.716c0-.572-.469-1.025-1.062-1.019-.563.01-1.001.481-1.001 1.05z" fill="#ffd482"/><path d="m1653.31 1404.11.468 30.722c0 .569.469 1.025 1.063 1.016.562-.01 1.031-.478 1-1.047l-.438-30.722c-.031-.569-.5-1.025-1.062-1.015-.563.009-1.031.478-1.031 1.046z" fill="#ffd482"/><path d="m1681.97 1390.68.437 28.322c0 .572.469 1.025 1.031 1.019.594-.01 1.032-.478 1.032-1.05l-.438-28.322c0-.572-.469-1.028-1.031-1.019-.594.01-1.031.478-1.031 1.05z" fill="#ffd482"/><path d="m1705.31 1370.5-.312 28.791c-.031.571.437 1.04 1 1.047.562.006 1.031-.451 1.063-1.022l.312-28.791c.031-.569-.438-1.038-1-1.044-.563-.006-1.031.45-1.063 1.019z" fill="#ffd482"/><path d="m1552.19 1412.99.219 30.718c0 .569.469 1.028 1.031 1.025.563-.003 1.032-.468 1.032-1.04l-.219-30.719c0-.572-.469-1.031-1.062-1.025-.563.003-1.001.469-1.001 1.041z" fill="#ffd482"/><path d="m1520 1405.58.219 30.722c0 .569.468 1.028 1.031 1.025.562-.003 1.031-.472 1.031-1.041l-.218-30.719c0-.571-.469-1.031-1.032-1.025-.593.004-1.031.469-1.031 1.038z" fill="#ffd482"/><path d="m1491.06 1392.78.187 28.325c0 .572.469 1.032 1.031 1.025.594-.003 1.031-.468 1.031-1.037l-.187-28.328c0-.569-.469-1.029-1.031-1.025-.594.003-1.031.468-1.031 1.04z" fill="#ffd482"/><path d="m1467.25 1373.18 1 28.778c0 .572.5 1.019 1.063 1 .562-.022.999-.5.999-1.068l-.999-28.779c0-.571-.469-1.015-1.063-.997-.562.019-1 .497-1 1.066z" fill="#ffd482"/><path d="m1716.34 1283.38c1.125 4.835-.5 41.21-2.656 46.45-3.969 16.675-18.282 32.616-42.594 44.519-53.406 26.11-134.688 22.881-181.531-7.215-21.844-14.029-33.782-28.401-34.251-46.507-.812-9.784-1.406-37.122-1.406-37.122 1.657-5.993 8.625.154 12.969-5.468 7.125-11.075 19.156-21.313 36.094-29.591 53.375-26.112 134.656-22.881 181.5 7.216 19.75 12.675 30.343 12.165 31.875 27.718z" fill="#f0b037"/><path d="m1685.88 1236.33c-46.594-31.081-129.406-34.562-185-7.775-55.563 26.788-62.844 73.703-16.25 104.788 46.594 31.078 129.406 34.556 184.969 7.772 55.562-26.791 62.844-73.704 16.281-104.785z" fill="#fff"/><path d="m1685.81 1232.28c-46.593-31.081-129.406-34.562-184.968-7.775-55.563 26.788-62.844 73.703-16.281 104.785 46.593 31.081 129.406 34.562 185 7.771 55.562-26.787 62.843-73.7 16.249-104.781z" fill="#ffd482"/><path d="m1655.44 1244.92c-32.593-21.728-90.468-24.163-129.343-5.435-38.844 18.729-43.938 51.522-11.344 73.257 32.563 21.728 90.438 24.162 129.312 5.431 38.844-18.728 43.938-51.522 11.375-73.253z" fill="#fff"/><path d="m1526.19 1245.85c38.843-18.725 96.749-16.294 129.312 5.437 12.969 8.663 19.969 19.082 21.219 29.666 1.25-12.706-5.719-25.634-21.282-36.031-32.593-21.728-90.468-24.163-129.343-5.435-23.344 11.263-34.5 27.613-32.594 43.585 1.344-13.856 12.406-27.453 32.688-37.222z" fill="#f2c97b"/><path d="m1544.69 1296.33c-5.532-4.506-10.063-10.878-10.188-16.634l18.094-1.275c1.156 5.744 3.562 9.959 8.718 13.3 5.969 3.894 11.25 4.3 16.501 1.641 11.718-5.957-16.75-24.204 3.718-34.613 11.125-5.669 25.063-5.569 37.282-.131l11.718-5.957 10.375 6.744-11.5 5.841c5.813 4.975 7.094 10.025 6.625 15.109l-17.469-.29c-.093-4.413-1.5-7.55-5.968-10.472-5.156-3.338-10.094-4.047-15.188-1.444-10.812 5.494 18.344 23.394-3.375 34.441-10.937 5.55-25 6.146-38.531.253l-11.813 6.018-10.374-6.746z" fill="#ffd482"/><path d="m1586.94 1360.45.688 31.569c.031.572.5 1.025 1.063 1.012.562-.012 1.031-.484.999-1.056l-.656-31.569c-.031-.571-.5-1.025-1.062-1.012-.563.012-1.032.484-1.032 1.056z" fill="#ffd482"/><path d="m1620.72 1357.73.437 30.716c.032.568.5 1.025 1.063 1.015.562-.006 1.031-.478 1.031-1.047l-.469-30.715c-.031-.572-.5-1.028-1.062-1.019-.563.009-1.032.478-1 1.05z" fill="#ffd482"/><path d="m1652.72 1349.61.469 30.716c0 .572.468 1.025 1.031 1.019.594-.01 1.031-.478 1.031-1.05l-.469-30.716c0-.572-.468-1.025-1.031-1.019-.594.01-1.031.478-1.031 1.05z" fill="#ffd482"/><path d="m1681.38 1336.17.438 28.325c0 .569.468 1.025 1.031 1.015.562-.009 1.031-.478 1.031-1.046l-.438-28.325c0-.569-.468-1.025-1.062-1.016-.562.006-1 .478-1 1.047z" fill="#ffd482"/><path d="m1704.72 1315.99-.344 28.794c0 .571.469 1.037 1.031 1.043.563.01 1.032-.45 1.032-1.015l.343-28.797c0-.572-.437-1.038-1-1.047-.593-.006-1.062.45-1.062 1.022z" fill="#ffd482"/><path d="m1551.56 1358.48.218 30.719c0 .572.469 1.031 1.063 1.028.562-.006 1.031-.472 1-1.041l-.188-30.721c-.031-.569-.468-1.029-1.062-1.025-.563.006-1.032.471-1.032 1.04z" fill="#ffd482"/><path d="m1519.38 1351.07.219 30.719c.031.571.469 1.031 1.062 1.025.563-.004 1.031-.469 1.031-1.041l-.218-30.719c-.032-.568-.469-1.028-1.063-1.025-.562.003-1.031.469-1.031 1.041z" fill="#ffd482"/><path d="m1490.44 1338.28.219 28.328c0 .569.469 1.028 1.031 1.025.563-.003 1.032-.469 1.032-1.04l-.219-28.322c0-.575-.469-1.035-1.031-1.032-.563.007-1.032.472-1.032 1.041z" fill="#ffd482"/><path d="m1466.66 1318.67.969 28.781c.031.566.5 1.013 1.094.994.562-.019 1-.497.969-1.066l-.969-28.778c0-.569-.5-1.019-1.063-1-.562.022-1 .497-1 1.069z" fill="#ffd482"/><path d="m1715.72 1225.15c1.125 4.838-.532 41.212-2.656 46.45-3.969 16.675-18.282 32.622-42.625 44.522-53.407 26.112-134.657 22.878-181.532-7.216-21.844-14.031-33.781-28.397-34.25-46.506-.781-9.788-1.406-37.125-1.406-37.125 1.656-5.994 8.656.156 12.969-5.466 7.125-11.075 19.187-21.315 36.093-29.59 53.407-26.11 134.657-22.882 181.532 7.215 19.719 12.675 30.344 12.163 31.875 27.716z" fill="#f0b037"/><path d="m1685.22 1178.1c-46.594-31.084-129.407-34.563-184.969-7.775-55.594 26.787-62.875 73.7-16.281 104.781s129.406 34.566 185 7.775c55.562-26.787 62.844-73.7 16.25-104.781z" fill="#fff"/><path d="m1685.19 1174.05c-46.594-31.085-129.407-34.563-185-7.775-55.563 26.787-62.844 73.7-16.251 104.784 46.594 31.081 129.407 34.563 184.969 7.775 55.563-26.79 62.844-73.703 16.282-104.784z" fill="#ffd482"/><path d="m1654.78 1186.69c-32.562-21.728-90.469-24.163-129.312-5.435-38.844 18.728-43.938 51.522-11.375 73.25 32.562 21.728 90.468 24.166 129.312 5.438s43.938-51.525 11.375-73.253z" fill="#fff"/><path d="m1525.53 1187.62c38.844-18.728 96.75-16.294 129.313 5.437 13 8.66 19.968 19.081 21.25 29.666 1.218-12.706-5.719-25.635-21.313-36.031-32.562-21.728-90.469-24.163-129.312-5.435-23.375 11.263-34.5 27.613-32.625 43.585 1.344-13.857 12.437-27.453 32.687-37.222z" fill="#f2c97b"/><path d="m1544.03 1238.1c-5.5-4.509-10.031-10.881-10.187-16.634l18.125-1.275c1.125 5.743 3.562 9.959 8.687 13.297 6 3.896 11.282 4.303 16.5 1.643 11.719-5.959-16.75-24.203 3.719-34.615 11.156-5.666 25.094-5.566 37.281-.128l11.719-5.957 10.375 6.744-11.469 5.844c5.813 4.968 7.094 10.022 6.594 15.106l-17.469-.291c-.094-4.412-1.468-7.55-5.969-10.472-5.124-3.337-10.062-4.046-15.187-1.443-10.813 5.494 18.344 23.39-3.375 34.44-10.906 5.553-25 6.147-38.5.254l-11.844 6.015-10.344-6.744z" fill="#ffd482"/><path d="m1586.31 1302.22.688 31.569c0 .568.469 1.022 1.031 1.009.594-.009 1.031-.481 1.031-1.056l-.687-31.566c0-.572-.5-1.022-1.063-1.012-.562.012-1.031.487-1 1.056z" fill="#ffd482"/><path d="m1620.06 1299.49.468 30.715c0 .572.469 1.025 1.032 1.019.593-.009 1.031-.475 1.031-1.05l-.469-30.715c0-.572-.469-1.025-1.031-1.019-.594.009-1.031.478-1.031 1.05z" fill="#ffd482"/><path d="m1652.09 1291.37.437 30.715c.031.572.5 1.029 1.063 1.019.562-.009 1.031-.475 1-1.05l-.438-30.715c-.031-.569-.5-1.025-1.062-1.016-.563.006-1.031.478-1 1.047z" fill="#ffd482"/><path d="m1680.72 1277.94.437 28.325c0 .568.469 1.025 1.032 1.018.593-.009 1.031-.478 1.031-1.05l-.438-28.325c0-.568-.469-1.025-1.031-1.015-.563.009-1.031.478-1.031 1.047z" fill="#ffd482"/><path d="m1704.09 1257.76-.344 28.79c-.031.572.437 1.038 1 1.047.562.006 1.031-.45 1.062-1.022l.344-28.79c0-.569-.469-1.038-1.031-1.044-.563-.01-1.031.45-1.031 1.019z" fill="#ffd482"/><path d="m1550.94 1300.25.218 30.719c0 .572.469 1.031 1.031 1.028.563-.003 1.032-.472 1.032-1.038l-.219-30.722c0-.572-.469-1.031-1.031-1.028-.594.006-1.031.472-1.031 1.041z" fill="#ffd482"/><path d="m1518.75 1292.84.219 30.721c0 .569.468 1.029 1.031 1.025.562-.006 1.031-.471 1.031-1.04l-.218-30.719c0-.572-.469-1.031-1.032-1.028-.593.006-1.031.472-1.031 1.041z" fill="#ffd482"/><path d="m1489.81 1280.04.188 28.325c0 .572.469 1.031 1.063 1.025.562-.003.999-.469.999-1.041l-.187-28.325c0-.572-.469-1.031-1.031-1.025-.594.003-1.032.469-1.032 1.041z" fill="#ffd482"/><path d="m1466.03 1260.44.969 28.778c0 .572.5 1.019 1.063.997.562-.019 1.031-.497.999-1.066l-.968-28.778c-.031-.572-.5-1.019-1.094-.997-.562.019-1 .497-.969 1.066z" fill="#ffd482"/><path d="m1715.09 1170.19c1.125 4.837-.5 41.212-2.657 46.449-3.968 16.675-18.281 32.619-42.625 44.519-53.374 26.113-134.656 22.885-181.499-7.212-21.844-14.031-33.782-28.4-34.25-46.506-.813-9.788-1.407-37.126-1.407-37.126 1.657-5.993 8.625.157 12.969-5.468 7.125-11.075 19.156-21.31 36.094-29.588 53.375-26.112 134.656-22.881 181.5 7.216 19.75 12.675 30.343 12.162 31.875 27.716z" fill="#f0b037"/><path d="m1684.62 1123.13c-46.594-31.081-129.406-34.562-185-7.775-55.563 26.791-62.844 73.703-16.25 104.785 46.594 31.084 129.406 34.562 184.969 7.775 55.562-26.788 62.843-73.7 16.281-104.785z" fill="#fff"/><path d="m1684.56 1119.08c-46.594-31.081-129.407-34.562-184.969-7.772-55.563 26.788-62.844 73.7-16.281 104.782 46.593 31.084 129.406 34.562 184.999 7.775 55.563-26.788 62.844-73.7 16.251-104.785z" fill="#ffd482"/><path d="m1654.16 1131.73c-32.562-21.728-90.437-24.162-129.312-5.434-38.844 18.725-43.938 51.522-11.344 73.25 32.562 21.731 90.438 24.162 129.312 5.437 38.844-18.728 43.938-51.525 11.344-73.253z" fill="#fff"/><path d="m1524.94 1132.66c38.844-18.728 96.75-16.293 129.313 5.435 12.969 8.662 19.969 19.081 21.219 29.672 1.25-12.71-5.719-25.641-21.313-36.035-32.562-21.728-90.437-24.162-129.312-5.434-23.344 11.262-34.5 27.609-32.594 43.581 1.344-13.856 12.406-27.45 32.687-37.219z" fill="#f2c97b"/><path d="m1543.44 1183.14c-5.532-4.51-10.063-10.882-10.188-16.635l18.094-1.278c1.125 5.744 3.562 9.962 8.718 13.3 5.969 3.894 11.25 4.303 16.5 1.641 11.719-5.957-16.749-24.2 3.719-34.61 11.125-5.672 25.063-5.568 37.281-.131l11.719-5.959 10.375 6.747-11.5 5.84c5.813 4.972 7.094 10.022 6.625 15.106l-17.468-.287c-.094-4.413-1.5-7.553-5.969-10.472-5.157-3.338-10.094-4.047-15.188-1.444-10.812 5.494 18.344 23.391-3.375 34.438-10.906 5.553-25 6.147-38.531.256l-11.813 6.016-10.374-6.744z" fill="#ffd482"/><path d="m1585.69 1247.26.687 31.572c.031.569.5 1.022 1.062 1.01.563-.013 1.032-.485 1.001-1.054l-.657-31.571c-.031-.572-.5-1.022-1.062-1.01-.563.013-1.031.485-1.031 1.053z" fill="#ffd482"/><path d="m1619.47 1244.53.437 30.713c.032.572.5 1.025 1.063 1.018.562-.009 1.031-.478 1.031-1.05l-.469-30.712c-.031-.572-.5-1.028-1.062-1.019-.563.01-1.032.478-1 1.05z" fill="#ffd482"/><path d="m1651.47 1236.41.468 30.716c0 .572.469 1.028 1.032 1.019.594-.01 1.031-.478 1.031-1.047l-.469-30.719c0-.569-.469-1.025-1.031-1.015-.594.009-1.031.478-1.031 1.046z" fill="#ffd482"/><path d="m1680.12 1222.98.406 28.325c.032.572.5 1.025 1.063 1.019.562-.01 1.031-.478 1.031-1.05l-.437-28.325c0-.569-.469-1.025-1.063-1.019-.562.01-1 .478-1 1.05z" fill="#ffd482"/><path d="m1703.47 1202.8-.344 28.791c0 .571.469 1.04 1.031 1.046.563.007 1.032-.45 1.032-1.021l.343-28.791c0-.572-.437-1.041-1-1.047-.593-.006-1.062.45-1.062 1.022z" fill="#ffd482"/><path d="m1550.31 1245.28.219 30.722c0 .569.469 1.028 1.063 1.025.562-.003 1.031-.469 1-1.04l-.188-30.722c-.031-.569-.5-1.028-1.062-1.025-.563.003-1.032.469-1.032 1.04z" fill="#ffd482"/><path d="m1518.12 1237.88.219 30.722c0 .569.469 1.028 1.062 1.025.563-.006 1.032-.472 1-1.041l-.187-30.719c-.032-.571-.5-1.031-1.063-1.028-.562.007-1.031.472-1.031 1.041z" fill="#ffd482"/><path d="m1489.19 1225.08.218 28.325c0 .572.469 1.032 1.031 1.025.563-.003 1.032-.468 1.032-1.04l-.219-28.325c0-.572-.469-1.032-1.031-1.025-.563.003-1.031.468-1.031 1.04z" fill="#ffd482"/><path d="m1465.41 1205.48.969 28.778c.031.569.5 1.016 1.094.997.562-.019 1-.497.969-1.069l-.969-28.778c0-.569-.5-1.015-1.063-.997-.562.019-1 .497-1 1.069z" fill="#ffd482"/><path d="m1515.03 1455.79c1.125 4.837-.5 41.215-2.656 46.453-3.969 16.675-18.281 32.619-42.594 44.518-53.406 26.113-134.687 22.882-181.531-7.215-21.844-14.028-33.781-28.397-34.25-46.506-.812-9.785-1.406-37.122-1.406-37.122 1.656-5.991 8.625.153 12.968-5.469 7.094-11.072 19.157-21.312 36.094-29.588 53.375-26.112 134.656-22.884 181.5 7.213 19.75 12.675 30.344 12.166 31.875 27.716z" fill="#f0b037"/><path d="m1484.56 1408.74c-46.594-31.081-129.407-34.562-185.001-7.771-55.562 26.787-62.843 73.7-16.249 104.781 46.593 31.081 129.406 34.562 184.968 7.775 55.563-26.788 62.844-73.703 16.282-104.785z" fill="#fff"/><path d="m1484.5 1404.69c-46.594-31.082-129.406-34.563-184.969-7.772-55.562 26.787-62.844 73.7-16.281 104.781 46.594 31.081 129.406 34.562 185 7.775 55.562-26.788 62.844-73.703 16.25-104.785z" fill="#ffd482"/><path d="m1454.12 1417.33c-32.594-21.728-90.469-24.165-129.344-5.434-38.843 18.725-43.937 51.522-11.343 73.25 32.562 21.728 90.437 24.163 129.312 5.434 38.844-18.725 43.937-51.522 11.375-73.25z" fill="#fff"/><path d="m1324.88 1418.26c38.844-18.725 96.75-16.293 129.312 5.435 12.969 8.659 19.969 19.081 21.219 29.669 1.25-12.71-5.718-25.638-21.312-36.032-32.563-21.728-90.438-24.165-129.313-5.434-23.344 11.259-34.5 27.609-32.593 43.581 1.343-13.856 12.406-27.45 32.687-37.219z" fill="#f2c97b"/><path d="m1343.38 1468.74c-5.531-4.507-10.031-10.875-10.188-16.632l18.094-1.275c1.157 5.741 3.563 9.957 8.719 13.294 5.969 3.897 11.25 4.303 16.5 1.644 11.719-5.956-16.75-24.2 3.719-34.613 11.125-5.668 25.062-5.568 37.281-.128l11.719-5.959 10.375 6.747-11.5 5.84c5.812 4.972 7.094 10.022 6.625 15.107l-17.469-.288c-.094-4.412-1.5-7.553-5.969-10.475-5.156-3.334-10.093-4.047-15.187-1.444-10.813 5.494 18.343 23.394-3.375 34.441-10.938 5.553-25 6.147-38.532.256l-11.812 6.016-10.375-6.744z" fill="#ffd482"/><path d="m1385.62 1532.86.687 31.569c.032.572.501 1.025 1.063 1.013.563-.013 1.031-.485 1-1.056l-.687-31.569c0-.572-.469-1.025-1.032-1.013-.593.013-1.031.485-1.031 1.056z" fill="#ffd482"/><path d="m1419.41 1530.13.438 30.719c.031.569.5 1.025 1.062 1.016.563-.007 1.032-.478 1.032-1.047l-.469-30.719c-.032-.572-.5-1.028-1.063-1.019-.562.01-1.031.478-1 1.05z" fill="#ffd482"/><path d="m1451.41 1522.02.469 30.715c0 .572.469 1.025 1.031 1.019.594-.009 1.032-.478 1.032-1.05l-.469-30.716c0-.572-.469-1.025-1.031-1.018-.594.009-1.032.478-1.032 1.05z" fill="#ffd482"/><path d="m1480.06 1508.58.438 28.325c0 .569.469 1.025 1.031 1.016.563-.009 1.032-.478 1.032-1.047l-.438-28.325c0-.569-.469-1.025-1.063-1.019-.562.01-1 .482-1 1.05z" fill="#ffd482"/><path d="m1503.41 1488.41-.344 28.791c0 .569.469 1.037 1.032 1.044.562.006 1.031-.45 1.031-1.019l.344-28.791c0-.572-.438-1.04-1-1.047-.594-.006-1.063.45-1.063 1.022z" fill="#ffd482"/><path d="m1350.25 1530.89.219 30.718c0 .572.469 1.032 1.062 1.025.563-.003 1.031-.468 1-1.037l-.187-30.722c-.032-.569-.469-1.028-1.063-1.025-.562.003-1.031.469-1.031 1.041z" fill="#ffd482"/><path d="m1318.06 1523.48.218 30.719c.031.572.469 1.031 1.063 1.025.562-.003 1.031-.469 1.031-1.041l-.219-30.718c-.031-.569-.468-1.029-1.062-1.025-.563.003-1.031.468-1.031 1.04z" fill="#ffd482"/><path d="m1289.12 1510.68.219 28.329c0 .568.468 1.028 1.031 1.025.562-.004 1.031-.469 1.031-1.041l-.187-28.325c-.031-.572-.5-1.031-1.063-1.028-.562.006-1.031.472-1.031 1.04z" fill="#ffd482"/><path d="m1265.34 1491.08.968 28.775c.032.569.501 1.016 1.063.997.594-.019 1.031-.497 1-1.068l-.969-28.776c0-.568-.5-1.015-1.062-.996-.563.018-1.031.496-1 1.068z" fill="#ffd482"/><path d="m1514.44 1401.29c1.125 4.838-.5 41.213-2.656 46.447-3.969 16.678-18.281 32.622-42.625 44.522-53.406 26.113-134.656 22.881-181.531-7.215-21.812-14.025-33.75-28.397-34.219-46.507-.812-9.787-1.406-37.122-1.406-37.122 1.625-5.993 8.625.157 12.938-5.468 7.125-11.075 19.187-21.313 36.093-29.591 53.407-26.109 134.688-22.881 181.532 7.216 19.749 12.678 30.343 12.165 31.874 27.718z" fill="#f0b037"/><path d="m1483.94 1354.23c-46.562-31.078-129.406-34.562-184.968-7.772-55.563 26.785-62.844 73.697-16.282 104.778 46.594 31.085 129.438 34.566 185.001 7.779 55.562-26.791 62.843-73.7 16.249-104.785z" fill="#fff"/><path d="m1483.91 1350.18c-46.594-31.084-129.406-34.565-184.968-7.778-55.594 26.791-62.875 73.7-16.282 104.785 46.594 31.081 129.406 34.562 184.969 7.775 55.594-26.788 62.875-73.7 16.281-104.782z" fill="#ffd482"/><path d="m1453.5 1362.83c-32.563-21.728-90.469-24.159-129.313-5.434-38.843 18.728-43.937 51.521-11.375 73.253 32.563 21.728 90.469 24.162 129.313 5.434 38.875-18.725 43.938-51.522 11.375-73.253z" fill="#fff"/><path d="m1324.25 1363.75c38.875-18.725 96.75-16.294 129.313 5.438 13 8.662 20 19.081 21.249 29.668 1.219-12.709-5.718-25.637-21.312-36.034-32.563-21.728-90.469-24.159-129.313-5.434-23.343 11.262-34.5 27.612-32.593 43.581 1.343-13.853 12.406-27.45 32.656-37.219z" fill="#f2c97b"/><path d="m1342.78 1414.24c-5.531-4.509-10.062-10.881-10.187-16.637l18.093-1.275c1.125 5.744 3.563 9.962 8.688 13.3 6 3.894 11.281 4.303 16.531 1.641 11.688-5.96-16.781-24.204 3.688-34.613 11.156-5.669 25.093-5.569 37.312-.131l11.688-5.956 10.375 6.743-11.469 5.841c5.813 4.975 7.094 10.022 6.625 15.106l-17.469-.284c-.125-4.416-1.5-7.55-5.968-10.472-5.157-3.337-10.094-4.05-15.219-1.447-10.782 5.497 18.344 23.391-3.375 34.441-10.907 5.553-24.969 6.147-38.5.256l-11.813 6.012-10.375-6.743z" fill="#ffd482"/><path d="m1385.03 1478.36.688 31.569c0 .572.468 1.022 1.062 1.009.563-.012 1-.484 1-1.053l-.687-31.569c0-.568-.469-1.021-1.063-1.009-.562.013-1 .484-1 1.053z" fill="#ffd482"/><path d="m1418.78 1475.63.469 30.716c0 .572.469 1.028 1.063 1.018.562-.009 1.031-.478.999-1.05l-.468-30.715c0-.569-.469-1.025-1.032-1.016-.562.007-1.031.478-1.031 1.047z" fill="#ffd482"/><path d="m1450.81 1467.51.468 30.715c0 .569.469 1.025 1.031 1.016.563-.01 1.032-.478 1.032-1.047l-.469-30.716c0-.572-.469-1.028-1.063-1.018-.562.009-.999.478-.999 1.05z" fill="#ffd482"/><path d="m1479.47 1454.08.406 28.322c0 .572.469 1.025 1.063 1.019.562-.01 1.031-.478.999-1.05l-.406-28.322c-.031-.572-.5-1.028-1.062-1.019-.563.009-1.031.478-1 1.05z" fill="#ffd482"/><path d="m1502.81 1433.9-.344 28.791c0 .571.437 1.04 1.031 1.046.563.007 1.031-.449 1.031-1.021l.344-28.794c0-.569-.469-1.038-1.031-1.044-.563-.006-1.031.45-1.031 1.022z" fill="#ffd482"/><path d="m1349.66 1476.38.219 30.719c0 .569.469 1.028 1.031 1.025.594-.003 1.031-.469 1.031-1.04l-.218-30.719c0-.572-.469-1.031-1.032-1.025-.562.003-1.031.469-1.031 1.04z" fill="#ffd482"/><path d="m1317.47 1468.98.219 30.719c0 .569.468 1.028 1.031 1.025.594-.003 1.031-.469 1.031-1.041l-.219-30.719c0-.571-.469-1.031-1.031-1.025-.563.003-1.031.469-1.031 1.041z" fill="#ffd482"/><path d="m1288.53 1456.18.188 28.325c.031.572.5 1.031 1.062 1.028.563-.006 1.032-.472 1.032-1.04l-.219-28.329c0-.568-.469-1.028-1.031-1.024-.563.003-1.032.468-1.032 1.04z" fill="#ffd482"/><path d="m1264.75 1436.58.969 28.778c.031.572.5 1.019 1.062 1 .563-.019 1.031-.497 1-1.069l-.968-28.778c-.032-.569-.501-1.015-1.063-.997-.563.019-1.031.497-1 1.066z" fill="#ffd482"/><path d="m1513.78 1343.05c1.157 4.838-.5 41.213-2.656 46.453-3.969 16.672-18.281 32.619-42.594 44.519-53.406 26.109-134.687 22.881-181.531-7.216-21.844-14.028-33.781-28.4-34.25-46.506-.813-9.787-1.406-37.122-1.406-37.122 1.656-5.997 8.625.153 12.968-5.469 7.125-11.075 19.157-21.312 36.094-29.587 53.375-26.113 134.656-22.884 181.531 7.216 19.719 12.671 30.313 12.165 31.844 27.712z" fill="#f0b037"/><path d="m1483.31 1296c-46.594-31.081-129.407-34.562-185.001-7.775-55.562 26.791-62.843 73.7-16.249 104.784 46.593 31.082 129.406 34.563 184.968 7.775 55.594-26.787 62.875-73.703 16.282-104.784z" fill="#fff"/><path d="m1483.25 1291.95c-46.563-31.081-129.406-34.562-184.969-7.775-55.562 26.791-62.844 73.7-16.25 104.784 46.563 31.082 129.375 34.563 184.969 7.775 55.562-26.787 62.844-73.703 16.25-104.784z" fill="#ffd482"/><path d="m1452.88 1304.6c-32.594-21.728-90.469-24.166-129.312-5.438-38.876 18.728-43.969 51.525-11.375 73.253 32.562 21.729 90.468 24.16 129.312 5.435s43.937-51.522 11.375-73.25z" fill="#fff"/><path d="m1323.62 1305.53c38.844-18.728 96.75-16.294 129.312 5.437 12.969 8.657 19.969 19.079 21.219 29.666 1.25-12.706-5.718-25.637-21.281-36.031-32.594-21.728-90.469-24.166-129.312-5.438-23.375 11.266-34.532 27.616-32.626 43.585 1.344-13.853 12.407-27.453 32.688-37.219z" fill="#f2c97b"/><path d="m1342.12 1356c-5.5-4.509-10.031-10.878-10.188-16.631l18.094-1.278c1.157 5.744 3.563 9.959 8.719 13.297 5.969 3.896 11.281 4.303 16.5 1.643 11.719-5.956-16.75-24.2 3.719-34.615 11.125-5.666 25.062-5.566 37.281-.125l11.719-5.957 10.375 6.741-11.5 5.844c5.843 4.969 7.125 10.022 6.625 15.109l-17.469-.29c-.094-4.413-1.469-7.554-5.969-10.475-5.125-3.338-10.062-4.047-15.187-1.444-10.813 5.494 18.343 23.394-3.375 34.441-10.906 5.553-25 6.146-38.532.256l-11.812 6.015-10.375-6.746z" fill="#ffd482"/><path d="m1384.41 1420.12.656 31.569c.032.572.501 1.025 1.063 1.012.562-.012 1.031-.484 1-1.056l-.656-31.572c-.031-.569-.5-1.022-1.063-1.009-.562.012-1.031.484-1 1.056z" fill="#ffd482"/><path d="m1418.16 1417.39.469 30.718c0 .572.469 1.029 1.031 1.019.563-.009 1.031-.478 1.031-1.047l-.468-30.722c0-.568-.469-1.025-1.063-1.015-.562.009-1.031.478-1 1.047z" fill="#ffd482"/><path d="m1450.16 1409.28.469 30.716c0 .569.469 1.025 1.063 1.015.562-.006.999-.478.999-1.047l-.468-30.715c0-.572-.469-1.028-1.031-1.019-.563.009-1.032.478-1.032 1.05z" fill="#ffd482"/><path d="m1478.81 1395.85.438 28.322c0 .572.469 1.028 1.031 1.018.594-.009 1.032-.478 1.032-1.05l-.438-28.321c0-.572-.469-1.025-1.031-1.019-.594.009-1.032.478-1.032 1.05z" fill="#ffd482"/><path d="m1502.16 1375.67-.344 28.79c0 .569.469 1.038 1.032 1.044.562.006 1.031-.45 1.031-1.022l.344-28.787c.031-.572-.438-1.041-1-1.047-.594-.006-1.063.45-1.063 1.022z" fill="#ffd482"/><path d="m1349 1418.15.219 30.719c.031.572.469 1.031 1.062 1.025.563-.003 1.032-.469 1.032-1.041l-.219-30.719c-.032-.568-.469-1.028-1.063-1.024-.562.003-1.031.468-1.031 1.04z" fill="#ffd482"/><path d="m1316.84 1410.74.187 30.719c.031.568.469 1.028 1.063 1.025.562-.004 1.031-.469 1.031-1.041l-.219-30.719c0-.569-.468-1.028-1.062-1.025-.563.003-1.031.469-1 1.041z" fill="#ffd482"/><path d="m1287.91 1397.95.188 28.325c0 .572.468 1.031 1.031 1.028.562-.006 1.031-.472 1.031-1.041l-.187-28.328c0-.568-.469-1.028-1.063-1.025-.562.003-1.031.469-1 1.041z" fill="#ffd482"/><path d="m1264.09 1378.35.968 28.775c.032.569.5 1.016 1.094.997.563-.019 1-.497 1-1.069l-1-28.775c0-.569-.5-1.016-1.062-.997-.563.019-1 .497-1 1.069z" fill="#ffd482"/><path d="m1513.19 1288.09c1.125 4.837-.499 41.212-2.656 46.45-3.969 16.678-18.281 32.618-42.625 44.521-53.406 26.11-134.656 22.882-181.531-7.215-21.812-14.028-33.75-28.4-34.219-46.506-.812-9.788-1.406-37.125-1.406-37.125 1.625-5.994 8.625.156 12.938-5.469 7.125-11.072 19.187-21.309 36.093-29.588 53.407-26.112 134.688-22.881 181.532 7.216 19.749 12.675 30.343 12.163 31.874 27.716z" fill="#f0b037"/><path d="m1482.69 1241.04c-46.593-31.084-129.406-34.562-184.968-7.775-55.563 26.788-62.844 73.7-16.25 104.785 46.562 31.081 129.375 34.559 184.969 7.772 55.562-26.785 62.843-73.7 16.249-104.782z" fill="#fff"/><path d="m1482.66 1236.99c-46.593-31.081-129.406-34.562-184.968-7.774-55.594 26.787-62.875 73.703-16.282 104.787 46.594 31.078 129.406 34.556 184.969 7.772 55.594-26.791 62.875-73.703 16.281-104.785z" fill="#ffd482"/><path d="m1452.25 1249.63c-32.562-21.728-90.469-24.162-129.313-5.434-38.843 18.728-43.937 51.522-11.375 73.253 32.563 21.728 90.469 24.159 129.313 5.434 38.844-18.728 43.938-51.525 11.375-73.253z" fill="#fff"/><path d="m1323 1250.56c38.875-18.728 96.75-16.293 129.312 5.435 13.001 8.662 20.001 19.084 21.251 29.672 1.218-12.71-5.719-25.638-21.313-36.035-32.562-21.728-90.469-24.162-129.313-5.434-23.343 11.262-34.499 27.612-32.593 43.584 1.343-13.856 12.406-27.453 32.656-37.222z" fill="#f2c97b"/><path d="m1341.53 1301.04c-5.531-4.507-10.062-10.879-10.187-16.635l18.093-1.275c1.126 5.741 3.563 9.96 8.688 13.297 6 3.894 11.281 4.303 16.531 1.644 11.688-5.956-16.75-24.203 3.688-34.613 11.156-5.668 25.093-5.568 37.312-.131l11.688-5.956 10.375 6.744-11.469 5.84c5.813 4.972 7.094 10.025 6.594 15.11l-17.438-.291c-.125-4.409-1.5-7.55-6-10.472-5.125-3.337-10.062-4.047-15.187-1.444-10.782 5.494 18.344 23.394-3.375 34.441-10.907 5.55-24.969 6.147-38.5.256l-11.813 6.019-10.375-6.75z" fill="#ffd482"/><path d="m1383.78 1365.16.688 31.569c0 .572.469 1.025 1.062 1.013.563-.013 1-.485 1-1.056l-.687-31.569c0-.572-.469-1.025-1.063-1.013-.562.013-1 .485-1 1.056z" fill="#ffd482"/><path d="m1417.53 1362.43.469 30.716c0 .569.469 1.025 1.062 1.016.563-.01 1.032-.478 1.001-1.047l-.469-30.716c0-.572-.469-1.028-1.032-1.019-.562.01-1.031.478-1.031 1.05z" fill="#ffd482"/><path d="m1449.56 1354.32.469 30.715c0 .572.469 1.025 1.031 1.019.563-.009 1.032-.478 1.032-1.05l-.469-30.716c0-.572-.469-1.025-1.062-1.018-.563.009-1.001.478-1.001 1.05z" fill="#ffd482"/><path d="m1478.22 1340.88.406 28.325c.031.572.5 1.028 1.063 1.019.562-.009 1.031-.478.999-1.047l-.406-28.325c-.031-.572-.5-1.025-1.062-1.022-.563.013-1.031.478-1 1.05z" fill="#ffd482"/><path d="m1501.56 1320.7-.344 28.794c0 .569.437 1.037 1.031 1.044.563.006 1.031-.45 1.031-1.019l.344-28.794c0-.572-.469-1.041-1.031-1.047-.563-.003-1.032.453-1.032 1.022z" fill="#ffd482"/><path d="m1348.41 1363.19.219 30.718c0 .572.469 1.032 1.031 1.025.594-.003 1.031-.469 1.031-1.04l-.218-30.719c0-.569-.469-1.028-1.032-1.025-.562.003-1.031.469-1.031 1.041z" fill="#ffd482"/><path d="m1316.22 1355.78.219 30.719c0 .572.468 1.031 1.031 1.025.594-.003 1.031-.469 1.031-1.041l-.219-30.718c0-.569-.469-1.029-1.031-1.025-.563.003-1.031.468-1.031 1.04z" fill="#ffd482"/><path d="m1287.28 1342.98.188 28.329c.031.568.469 1.028 1.062 1.025.563-.004 1.032-.469 1.032-1.041l-.219-28.325c0-.572-.469-1.028-1.031-1.028-.563.006-1.032.472-1.032 1.04z" fill="#ffd482"/><path d="m1263.5 1323.38.969 28.778c.031.569.5 1.016 1.062.997.563-.019 1.032-.497 1-1.069l-.969-28.778c-.031-.568-.5-1.015-1.062-.996-.594.018-1.031.496-1 1.068z" fill="#ffd482"/><path d="m1797.28 1438.92c1.125 4.837-.531 41.212-2.656 46.45-3.969 16.675-18.281 32.618-42.625 44.518-53.406 26.113-134.656 22.885-181.531-7.212-21.844-14.028-33.75-28.4-34.25-46.506-.782-9.788-1.406-37.125-1.406-37.125 1.656-5.994 8.656.156 12.968-5.469 7.125-11.072 19.188-21.309 36.094-29.588 53.406-26.112 134.687-22.881 181.531 7.216 19.719 12.675 30.344 12.166 31.875 27.716z" fill="#f0b037"/><path d="m1766.78 1391.86c-46.594-31.081-129.406-34.559-184.968-7.775-55.563 26.788-62.875 73.704-16.282 104.785 46.594 31.084 129.407 34.562 185 7.778 55.563-26.791 62.844-73.703 16.25-104.788z" fill="#fff"/><path d="m1766.75 1387.81c-46.594-31.085-129.406-34.563-185-7.776-55.562 26.788-62.844 73.701-16.25 104.785 46.594 31.081 129.406 34.562 184.969 7.775 55.562-26.788 62.844-73.703 16.281-104.784z" fill="#ffd482"/><path d="m1736.34 1400.46c-32.563-21.728-90.469-24.162-129.313-5.434-38.844 18.725-43.937 51.522-11.375 73.253 32.563 21.728 90.469 24.159 129.313 5.434 38.844-18.728 43.937-51.521 11.375-73.253z" fill="#fff"/><path d="m1607.09 1401.38c38.843-18.728 96.75-16.293 129.312 5.438 13 8.659 19.969 19.081 21.25 29.669 1.219-12.713-5.719-25.638-21.312-36.035-32.563-21.728-90.469-24.162-129.313-5.434-23.375 11.262-34.5 27.609-32.625 43.581 1.344-13.853 12.438-27.45 32.688-37.219z" fill="#f2c97b"/><path d="m1625.59 1451.87c-5.5-4.51-10.032-10.882-10.157-16.635l18.094-1.278c1.125 5.747 3.563 9.963 8.688 13.3 6 3.894 11.281 4.303 16.5 1.641 11.719-5.957-16.75-24.2 3.718-34.613 11.157-5.665 25.094-5.565 37.282-.128l11.719-5.959 10.374 6.747-11.468 5.84c5.812 4.972 7.093 10.022 6.594 15.107l-17.469-.285c-.094-4.415-1.469-7.553-5.969-10.475-5.125-3.337-10.063-4.047-15.187-1.444-10.782 5.494 18.343 23.391-3.376 34.441-10.906 5.55-25 6.144-38.499.256l-11.813 6.013-10.375-6.747z" fill="#ffd482"/><path d="m1667.88 1515.98.687 31.572c0 .572.469 1.022 1.032 1.01.593-.013 1.031-.485 1.031-1.053l-.687-31.572c0-.569-.469-1.022-1.063-1.01-.563.013-1 .485-1 1.053z" fill="#ffd482"/><path d="m1701.62 1513.26.469 30.716c0 .572.468 1.028 1.031 1.019.594-.01 1.031-.479 1.031-1.05l-.468-30.716c0-.569-.469-1.025-1.032-1.016-.593.007-1.031.478-1.031 1.047z" fill="#ffd482"/><path d="m1733.66 1505.14.438 30.715c.031.569.5 1.025 1.062 1.016.563-.006 1.031-.478 1-1.047l-.437-30.716c-.031-.572-.5-1.028-1.063-1.018-.562.009-1.031.478-1 1.05z" fill="#ffd482"/><path d="m1762.28 1491.71.438 28.322c0 .572.468 1.025 1.062 1.019.563-.009 1-.478 1-1.05l-.406-28.322c-.031-.572-.5-1.028-1.062-1.019-.563.01-1.032.479-1.032 1.05z" fill="#ffd482"/><path d="m1785.66 1471.53-.343 28.788c-.032.572.437 1.04.999 1.047.594.006 1.063-.45 1.063-1.022l.344-28.791c0-.569-.469-1.037-1.032-1.044-.562-.006-1.031.45-1.031 1.022z" fill="#ffd482"/><path d="m1632.5 1514.02.219 30.718c0 .569.468 1.029 1.031 1.025.562-.003 1.031-.468 1.031-1.04l-.218-30.719c0-.572-.469-1.031-1.032-1.025-.593.003-1.031.469-1.031 1.041z" fill="#ffd482"/><path d="m1600.31 1506.61.219 30.719c0 .569.469 1.028 1.031 1.025.563-.003 1.032-.469 1.032-1.041l-.219-30.718c0-.572-.469-1.032-1.031-1.025-.594.003-1.032.468-1.032 1.04z" fill="#ffd482"/><path d="m1571.38 1493.81.188 28.325c0 .572.468 1.032 1.062 1.028.563-.006 1.031-.471 1-1.04l-.188-28.328c.001-.569-.468-1.028-1.031-1.025-.594.003-1.031.468-1.031 1.04z" fill="#ffd482"/><path d="m1547.59 1474.21.969 28.775c0 .572.499 1.019 1.062 1 .563-.018 1.031-.497 1-1.068l-.969-28.776c-.031-.568-.5-1.015-1.062-.996-.594.018-1.032.496-1 1.065z" fill="#ffd482"/><path d="m771.844 1699.18c-41.657-24.265-119.494-25.787-173.835-3.39-54.337 22.393-64.609 60.222-22.943 84.487 41.665 24.269 119.497 25.788 173.84 3.391 54.344-22.394 64.594-60.219 22.938-84.488z" fill="#202936"/><path d="m763.063 1688.8c1.125 4.837-.532 41.209-2.66 46.45-3.965 16.675-18.278 32.622-42.622 44.519-53.406 26.112-134.668 22.884-181.525-7.213-21.844-14.031-33.772-28.397-34.244-46.506-.809-9.787-1.406-37.125-1.406-37.125 1.644-5.991 8.635.156 12.96-5.466 7.118-11.075 19.168-21.312 36.093-29.59 53.397-26.11 134.653-22.882 181.528 7.215 19.719 12.672 30.341 12.163 31.876 27.716z" fill="#f0b037"/><path d="m732.563 1641.74c-46.594-31.082-129.404-34.56-184.975-7.772-55.576 26.787-62.857 73.7-16.269 104.781 46.59 31.084 129.4 34.566 184.962 7.778 55.594-26.79 62.872-73.703 16.282-104.787z" fill="#fff"/><path d="m732.531 1637.69c-46.594-31.082-129.419-34.56-184.99-7.772-55.569 26.787-62.854 73.7-16.266 104.781 46.588 31.085 129.412 34.566 184.975 7.778 55.562-26.79 62.844-73.703 16.281-104.787z" fill="#ffd482"/><path d="m702.125 1650.34c-32.562-21.728-90.469-24.163-129.316-5.435-38.85 18.725-43.943 51.522-11.372 73.25 32.569 21.732 90.463 24.163 129.313 5.438 38.844-18.725 43.937-51.525 11.375-73.253z" fill="#fff"/><path d="m572.878 1651.27c38.85-18.725 96.747-16.294 129.31 5.434 12.999 8.663 19.968 19.085 21.249 29.672 1.219-12.713-5.718-25.641-21.312-36.034-32.562-21.728-90.469-24.163-129.316-5.435-23.365 11.263-34.512 27.613-32.609 43.582 1.341-13.854 12.416-27.45 32.678-37.219z" fill="#f2c97b"/><path d="m591.381 1701.75c-5.509-4.509-10.04-10.881-10.178-16.634l18.1-1.275c1.135 5.743 3.563 9.959 8.7 13.297 5.988 3.896 11.275 4.303 16.506 1.64 11.71-5.956-16.753-24.2 3.713-34.612 11.144-5.666 25.078-5.566 37.278-.128l11.719-5.957 10.375 6.744-11.469 5.841c5.812 4.972 7.094 10.022 6.594 15.106l-17.469-.288c-.094-4.412-1.469-7.553-5.969-10.472-5.128-3.34-10.069-4.046-15.184-1.443-10.8 5.493 18.34 23.39-3.375 34.437-10.913 5.556-24.994 6.147-38.513.257l-11.821 6.015-10.375-6.744z" fill="#ffd482"/><path d="m633.65 1765.87.684 31.572c.013.568.485 1.021 1.057 1.009.568-.013 1.021-.484 1.009-1.053l-.684-31.572c-.013-.572-.485-1.022-1.057-1.009-.568.012-1.022.484-1.009 1.053z" fill="#ffd482"/><path d="m667.406 1763.14.469 30.718c0 .572.469 1.025 1.031 1.019.594-.009 1.032-.478 1.032-1.05l-.469-30.719c0-.568-.469-1.025-1.031-1.015-.594.006-1.032.478-1.032 1.047z" fill="#ffd482"/><path d="m699.406 1755.02.469 30.719c.031.568.5 1.025 1.062 1.015.563-.009 1.032-.478 1-1.047l-.437-30.718c-.031-.569-.5-1.025-1.062-1.016-.563.009-1.032.478-1.032 1.047z" fill="#ffd482"/><path d="m728.062 1741.59.438 28.322c0 .571.469 1.025 1.063 1.018.562-.009 1-.478 1-1.05l-.438-28.322c0-.571-.469-1.028-1.031-1.018-.563.009-1.032.478-1.032 1.05z" fill="#ffd482"/><path d="m751.434 1721.41-.34 28.791c-.035.572.437 1.041 1 1.047.593.006 1.062-.45 1.062-1.022l.344-28.791c0-.568-.469-1.037-1.031-1.043-.563-.007-1.035.45-1.035 1.018z" fill="#ffd482"/><path d="m598.278 1763.9.213 30.719c.003.568.468 1.028 1.04 1.025s1.031-.469 1.025-1.041l-.212-30.719c-.003-.571-.469-1.031-1.041-1.025-.572.003-1.031.469-1.025 1.041z" fill="#ffd482"/><path d="m566.091 1756.49.215 30.722c.003.569.472 1.028 1.041 1.025.572-.003 1.031-.471 1.025-1.04l-.216-30.719c-.003-.572-.469-1.031-1.04-1.025-.569.003-1.028.469-1.025 1.037z" fill="#ffd482"/><path d="m537.15 1743.69.2 28.325c.003.572.469 1.031 1.037 1.025.572-.003 1.032-.469 1.029-1.038l-.2-28.328c-.004-.572-.469-1.028-1.041-1.025-.569.003-1.028.469-1.025 1.041z" fill="#ffd482"/><path d="m513.359 1724.09.979 28.775c.018.572.496 1.018 1.065 1 .572-.022 1.019-.5.997-1.069l-.975-28.775c-.019-.572-.497-1.016-1.069-.997-.569.019-1.015.497-.997 1.066z" fill="#ffd482"/><path d="m727.5 1690.52.438 28.322c0 .571.468 1.028 1.031 1.018.594-.009 1.031-.478 1.031-1.05l-.437-28.322c0-.571-.469-1.025-1.032-1.018-.562.009-1.031.478-1.031 1.05z" fill="#ffd482"/><path d="m750.844 1670.34-.313 28.791c-.031.569.438 1.038 1 1.044.563.006 1.028-.45 1.06-1.022l.343-28.788c0-.571-.465-1.04-1.028-1.046-.562-.007-1.031.45-1.062 1.021z" fill="#ffd482"/><path d="m2677.38 1338.27-281.656 147.85c-12.875 7.562-101.313 22.64-122.938 11.969l-282.937-90.735c-21.625-10.675-9.656-37.994 3.25-45.559l322.843-260.903c12.875-7.566 41.094-5.025 62.719 5.65l306.657 159.615c21.624 10.675 4.968 64.544-7.938 72.113z" fill="#202936"/><path d="m2166.53 1194.59 66.969 268.468 180.437 8.2 81.063-326.74z" fill="#18a2a3"/><path d="m2413.94 1471.26c-1.875 21.785-43.812 37.613-93.656 35.347-49.812-2.262-88.687-21.762-86.781-43.547 1.906-21.787 43.812-37.612 93.656-35.35 49.844 2.266 88.688 21.763 86.781 43.55z" fill="#18a2a3"/><path d="m2508.38 1040.36 16 270.1 175.906 3.388 46.063-344.966z" fill="#18a2a3"/><path d="m2700.28 1313.84c-2.812 21.744-44.5 38.612-93.093 37.678-48.563-.935-85.657-19.319-82.813-41.066 2.812-21.743 44.5-38.615 93.094-37.681 48.562.931 85.656 19.319 82.812 41.069z" fill="#18a2a3"/><path d="m1885.53 1096.92 54.5 268.044 180.344 12.6 96.469-322.2z" fill="#158b8c"/><path d="m2120.38 1377.57c-2.906 21.575-45.656 36.24-95.438 32.759-49.812-3.481-87.812-23.788-84.906-45.359 2.938-21.566 45.657-36.238 95.469-32.757 49.781 3.479 87.781 23.788 84.875 45.357z" fill="#158b8c"/></g><path d="m2241.59 1359.69c-17.125 0-34.657-1.081-52.469-3.303-203.188-25.36-325.781-175.272-349.5-360.291 76.656-47.541 124.531-131.981 124.687-224.991 0-14.762-.656-27.856-1.593-38.762 5.093.519 10.125 1.203 15.031 2.015 13.5 38.738 12.844 85.632 7.687 126.566-1.656-.394-3.343-.584-4.968-.584-1.969 0-3.875.265-5.719.775-.688-.388-1.406-.728-2.125-1.016-1.688-.656-3.375-.969-5-.969-4.594 0-8.5 2.544-9.687 6.819-.75 2.725-.251 5.666 1.156 8.278-1.094 2.035-1.969 4.263-2.625 6.653-4.344 15.685 2.969 32.594 16.281 37.769.656.263 1.344.491 2.031.684-2.031 8.635-4.031 16.182-5.75 22.329 17.469-17.9 49.032-48.091 51.906-50.888 70.094-67.859 93.844-119.05 91.282-195.319-1.063-31.409-7.406-64.65-21.5-98.787 0 0 52.375 58.95 67.594 131.112l-9.032 6.103c-9.156 6.201-5.906 16.469 7.281 22.813 6.688 3.219 14.688 4.834 22.157 4.834 7.219 0 13.937-1.522 18.468-4.578l232.375-157.172c9.157-6.203 5.907-16.468-7.281-22.815-6.687-3.219-14.687-4.835-22.125-4.835-7.25 0-13.969 1.522-18.5 4.578l-204.968 138.629c9.656-19.769 19.249-42.307 28.875-68.432 25.281-68.493 25.843-115.256 17.218-148.237 37.25-8.634 72.844-12.935 105.063-13.669 3.343-.078 6.656-.115 9.968-.115 281.907 0 467.907 274.034 435.344 476.753-30.843 192.081-210.187 274.262-343.75 346.975-8.625 5.331-17.531 10.275-26.719 14.828l-.281.15-.843.4c-46.875 22.978-101.188 35.703-159.969 35.7z" fill="url(#e)"/><path d="m1932.84 597.219s76.594 7.425 133.531 49.9c29.219 21.803 36.594 60.562 15.937 84l-25.062 28.409s-141.875-103.528-124.406-162.309z" fill="#9af1f4" fill-rule="nonzero"/><path d="m1871.84 738.116s-39.75-101.257 67.656-154.619c0 0 138.344 94.965 124.406 162.312 0 0-114.406-58.15-192.062-7.693z" fill="#fff" fill-rule="nonzero"/><path d="m2233 882.978s76.781-90.062 188.469-33.762c0 0 27.5 60.856 38.625 106.747 5.906 24.478-5.938 47.153-28.532 54.965l-59.218 20.519-54.407-130.885z" fill="#9af1f4" fill-rule="nonzero"/><path d="m2241.28 877.947s48.531-56.247 138.469-12.153c0 0 65.437 135.843.844 160.625 0 0-55.282-126.075-139.313-148.472z" fill="#fff" fill-rule="nonzero"/><path d="m2197.19 756.956 232.375-157.172c9.157-6.203 5.907-16.468-7.281-22.815-13.187-6.344-31.468-6.456-40.625-.257l-232.375 157.175c-9.156 6.201-5.906 16.469 7.281 22.813 13.188 6.344 31.469 6.459 40.625.256z" fill="#9af1f4" fill-rule="nonzero"/><path d="m2221.75 770.5 232.375-157.172c9.156-6.203 5.906-16.469-7.281-22.812-13.188-6.344-31.469-6.463-40.625-.257l-232.375 157.172c-9.157 6.203-5.907 16.469 7.281 22.813 13.188 6.347 31.469 6.462 40.625.256z" fill="#202936" fill-rule="nonzero"/><path d="m2004.69 899.625c-4.313 15.684-18.625 24.203-31.938 19.028-13.312-5.175-20.625-22.084-16.281-37.769 4.312-15.684 18.625-24.203 31.937-19.028 13.313 5.175 20.625 22.085 16.282 37.769z" fill="#202936" fill-rule="nonzero"/><path d="m1981.56 875.131c-1.593 5.763-8.187 8.381-14.687 5.847-6.531-2.534-10.531-9.262-8.937-15.025 1.593-5.765 8.156-8.384 14.687-5.85 6.531 2.535 10.5 9.263 8.937 15.028z" fill="#fff" fill-rule="nonzero"/><path d="m2207.22 1001.53c-1.125 17.141-13.157 28.757-26.875 25.947-13.719-2.812-23.906-18.987-22.813-36.128 1.125-17.141 13.156-28.759 26.875-25.947 13.719 2.813 23.938 18.985 22.813 36.128z" fill="#202936" fill-rule="nonzero"/><path d="m1903 976.744s47.406-53.903 124.531-2.8c77.094 51.106 131.594 147.856 109.438 193.122-22.157 45.265-233.969-190.322-233.969-190.322z" fill="#9af1f4" fill-rule="nonzero"/><path d="m2137.03 1182.63c-1.5-65.481-61.781-152.565-134.656-194.512-50.563-29.091-93.844-28.81-115.156-4.078l-49.875 40.875 222.312 259.115 49.063-43.381c18.312-9.675 28.969-29.419 28.312-58.019z" fill="#158b8c" fill-rule="nonzero"/><path d="m2079.53 1230.66c1.5 65.485-56.375 84.563-129.25 42.613-72.875-41.947-133.187-129.035-134.687-194.513-1.5-65.481 56.375-84.559 129.281-42.612 72.875 41.95 133.156 129.034 134.656 194.512z" fill="#fff" fill-rule="nonzero"/><path d="m2074.84 1237.64c1.5 65.481-56.375 84.559-129.25 42.612-72.875-41.95-133.188-129.034-134.688-194.516-1.5-65.478 56.375-84.556 129.25-42.609 72.907 41.947 133.188 129.034 134.688 194.513z" fill="url(#f)"/><path d="m1908.69 1155.05c.375 16.519-11.625 21.653-26.813 11.475-15.188-10.184-27.781-31.828-28.156-48.347-.375-16.516 11.625-21.653 26.781-11.472 15.187 10.181 27.813 31.828 28.188 48.344z" fill="#fff" fill-rule="nonzero"/><path d="m1910.59 1149.17c.375 16.515-11.625 21.656-26.813 11.472-15.187-10.182-27.781-31.825-28.156-48.344s11.625-21.653 26.813-11.472c15.156 10.181 27.781 31.825 28.156 48.344z" fill="#158b8c" fill-rule="nonzero"/><path d="m1911.03 1149.94c.25 10.565-7.437 13.85-17.156 7.334-9.719-6.515-17.781-20.365-18-30.931-.25-10.569 7.438-13.853 17.156-7.338 9.688 6.516 17.781 20.366 18 30.935z" fill="#202936" fill-rule="nonzero"/><path d="m2000.25 1213.56c.375 16.518-11.625 21.656-26.813 11.475-15.156-10.182-27.781-31.825-28.156-48.344s11.625-21.657 26.813-11.472c15.156 10.178 27.781 31.825 28.156 48.341z" fill="#fff" fill-rule="nonzero"/><path d="m2002.16 1207.68c.375 16.519-11.625 21.657-26.781 11.472-15.187-10.178-27.813-31.825-28.188-48.341-.375-16.521 11.625-21.656 26.813-11.475 15.188 10.182 27.781 31.825 28.156 48.344z" fill="#158b8c" fill-rule="nonzero"/><path d="m2002.62 1208.46c.219 10.569-7.438 13.853-17.156 7.335-9.719-6.516-17.781-20.363-18.032-30.932-.25-10.568 7.438-13.85 17.157-7.334s17.781 20.366 18.031 30.931z" fill="#202936" fill-rule="nonzero"/><path d="m1865.19 751.834s-39.749-101.256 67.657-154.615c0 0 138.344 94.962 124.406 162.309 0 0-114.375-58.15-192.063-7.694z" fill="#158b8c" fill-rule="nonzero"/><path d="m2233 882.978s48.531-56.25 138.469-12.153c0 0 65.468 135.841.875 160.622 0 0-55.313-126.072-139.344-148.469z" fill="#158b8c" fill-rule="nonzero"/><path d="m2206.94 1358.61c95.344 3.359 185.469-17.241 254.969-67.513l-14.687 48.394c-27.656 23.319-105.25 58.081-240.282 19.119z" fill="#158b8c" fill-rule="nonzero"/><path d="m2179.88 981.428c-1.594 5.763-8.156 8.381-14.688 5.847-6.531-2.531-10.531-9.259-8.937-15.025s8.187-8.384 14.687-5.85c6.532 2.537 10.532 9.262 8.938 15.028z" fill="#fff" fill-rule="nonzero"/><path d="m1280.19 2028.92 513.562-235.341c1.594-.743 1.406-2.343-.469-3.568l-210.094-137.2c-1.906-1.225-4.718-1.616-6.375-.869l-513.531 235.341c-1.625.743-1.437 2.343.438 3.565l155.156 133.325s59.688 5.491 61.313 4.747z" fill="#202936" fill-rule="nonzero"/><path d="m1720.59 1709.59-148.844-14.493-57.531-37.553c-1.813-1.197-4.594-1.579-6.157-.85l-500.624 229.415c-1.594.725-1.407 2.285.437 3.481l204.813 133.744c1.843 1.197 4.593 1.575 6.187.847l500.625-229.415c.719-.332 1.062-.841 1.031-1.407l.063.007z" fill="url(#g)"/><path d="m1006.41 1887.21 205.094 19.972v-83.775l-205.094-19.968z" fill="#1172a3" fill-rule="nonzero"/><path d="m1006.47 1887.22-.063-.01v-83.771l209.25 60.768 3.219 159.972c-1.594.728-4.375.35-6.187-.847l-204.813-133.744c-1.156-.753-1.594-1.628-1.406-2.368z" fill="#1cbebf" fill-rule="nonzero"/><path d="m1218.91 1940.47 500.625-229.416c1.594-.725 1.375-2.281-.437-3.478l-204.813-133.744c-1.844-1.197-4.625-1.578-6.187-.853l-500.625 229.419c-1.594.725-1.407 2.284.437 3.481l204.813 133.744c1.844 1.194 4.594 1.575 6.187.847z" fill="#34c8cc" fill-rule="nonzero"/><path d="m1315.72 1721.29c30.844-14.138 77.25-11.631 103.625 5.597 26.406 17.231 22.781 42.659-8.063 56.796-30.875 14.138-77.25 11.632-103.656-5.599-26.375-17.225-22.75-42.657 8.094-56.794z" fill="#179d9e" fill-rule="nonzero"/><path d="m1194.69 1870.23-78.219-51.081c16.5-10.038 19.094-24.919 6.656-36.775l333.188-152.672c19.156 8.772 46.374 9.978 67.343 2.853l78.219 51.078c-16.875 10.272-19.188 25.613-5.75 37.6l-332.75 152.491c-19.219-9.347-47.219-10.791-68.687-3.494zm-119.657-71.375c.375 3.9 3.063 7.741 7.563 10.672l130.218 85.044c4.063 2.653 9.063 4.287 13.876 4.756 4.187.406 8.218-.065 11.406-1.512l400.187-183.4c3.969-1.81 6.219-5.025 6.219-8.819l-.031-.269.594-.262-.626-.41c-.375-3.897-3.062-7.737-7.562-10.665l-130.219-85.047c-7.625-4.96-18.469-6.35-25.281-3.241l-400.188 183.397c-3.593 1.647-5.781 4.463-6.156 7.819l-1.75.797z" fill="#179d9e" fill-rule="nonzero"/><path d="m1463.62 1828.33-213.094-137.313 68.344-31.321 207.625 139.821z" fill="#fff" fill-rule="nonzero"/><g clip-path="url(#j)"><path d="m1829.22 498.347h393.563v498.669h-393.563z" fill="#c6bbb3" fill-rule="nonzero"/></g><path d="m1839.62 996.1c-1.406-11.019-2.469-22.175-3.156-33.425-5.625-89.603-2.094-156.703 27.968-212.956.469 1.378.75 2.115.75 2.115 23.501-15.268 50.375-20.59 76.407-20.59 7.125 0 14.218.4 21.125 1.103.937 10.906 1.593 24 1.593 38.762-.156 93.01-48.031 177.45-124.687 224.991zm129.406-54.434c1.719-6.147 3.719-13.694 5.75-22.329 1.969.56 3.969.832 5.906.832 10.657 0 20.532-7.972 24-20.544 4.344-15.684-2.968-32.594-16.281-37.769-.969-.384-1.968-.69-2.969-.928 5.157-40.934 5.813-87.828-7.687-126.566 44.469 7.357 79.5 25.166 79.5 25.166l25.062-28.409c20.657-23.438 13.282-62.197-15.937-84-24.031-17.931-51.563-29.616-75.375-37.135 74.813-58.903 156.688-93.912 231.781-111.312 8.625 32.981 8.063 79.744-17.218 148.237-9.626 26.125-19.219 48.663-28.875 68.432l-18.375 12.443c-15.219-72.162-67.594-131.112-67.594-131.112 14.094 34.137 20.437 67.378 21.5 98.787 2.562 76.269-21.188 127.46-91.282 195.319-2.874 2.797-34.437 32.988-51.906 50.888z" fill="url(#h)"/><path d="m2057.25 759.528c1.125-5.369 1.281-10.919.594-16.575 3.906 1.759 6.062 2.856 6.062 2.856 10-48.268-58.25-110.725-97.718-142.237 7.093 1.697 14.906 3.812 23.187 6.428.156-.122.312-.25.469-.372.406.119.781.238 1.156.356 23.812 7.519 51.344 19.204 75.375 37.135 29.219 21.803 36.594 60.562 15.937 84z" fill="#84cdd2" fill-rule="nonzero"/><path d="m2063.91 745.809s-2.156-1.097-6.062-2.856c-7.813-65.316-125-145.734-125-145.734-30.25 15.031-48.844 33.859-59.907 53.159 9.532-23.703 28.813-47.884 65.625-66.409 2.594 1.809 12.344 8.715 25.344 19.059.75.178 1.531.359 2.282.544 39.468 31.512 107.718 93.969 97.718 142.237z" fill="#d7d8db" fill-rule="nonzero"/><path d="m2161.12 744.787c-.688-5.734-1.656-11.406-2.812-17.003l18.375-12.443c-5.157 10.565-10.313 20.337-15.563 29.446z" fill="#84cdd2" fill-rule="nonzero"/><path d="m1980.69 920.169c-1.937 0-3.937-.272-5.906-.832 3.844-16.321 7.906-36.515 10.656-58.409 1.001.238 2 .544 2.969.928 13.313 5.175 20.625 22.085 16.281 37.769-3.468 12.572-13.343 20.544-24 20.544z" fill="#202936" fill-rule="nonzero"/><path d="m2057.25 759.528s-35.031-17.809-79.5-25.166c-4.687-13.499-11.125-26.009-19.688-36.928 0 0 2.813 13.054 4.657 34.913-6.907-.703-14-1.103-21.125-1.103-26.032 0-52.906 5.322-76.407 20.59 0 0-.281-.737-.75-2.115-3.437-10.244-16.406-55.972 8.5-99.341 11.063-19.3 29.657-38.128 59.907-53.159 0 0 117.187 80.418 125 145.734.687 5.656.531 11.206-.594 16.575z" fill="#17797c" fill-rule="nonzero"/><path d="m1483.56 302.916c-4.843 32.581-9.875 66.7-15.218 86.581 48.187-23.466 141.718-114.2 279.531-100.703-115.906 17.581-207.375 66.656-274.75 146.887-21.75 25.869-38.281 72.794-31.25 138.428.25 2.269 38.937 281.638 38.937 281.632 0 0 101.282-34.354 188.969-63.991 108.344-36.616 184.375-134.378 193.594-249.609 3.844-47.966-.469-80.219-.469-80.219 51.75 77.925 9.281 215.3-8.875 265.1 20.375-17.878 57.063-47.856 60.438-50.631 81.562-67.447 111.625-120.797 115.312-203.51 1.532-34.062-2.5-70.556-14.843-108.678 0 0 59.937 79.194 63.562 166.188 18.469-27.013 36.969-59.991 56.406-102.091 63.282-137.284 22.469-196.656-1-228.55-70.25-61.134-118.5-52.456-171.156-13.791 0 0 59.5-54.259 19.375-119.134-92.75-67.366-216.656-42.184-278.5 18.597-26.125 25.653-54.875 37.928-83.625 49.719 51.531-10.229 47.875 12.856 168.875 47.45-66.844-14.778-135.938-13.466-207.781 7.531-51.656 15.094-89.563 59.065-97.532 112.794z" fill="#0c8f62" fill-rule="nonzero"/><path d="m1910.56 204.566c-.032.047-294.657 344.89-418.25 621.297l2.093.937c61.688-137.938 166.157-293.156 255.219-413.853 44.531-60.353 85.188-112.078 114.75-148.713 14.75-18.318 26.75-32.862 35.031-42.828 4.157-4.984 7.375-8.822 9.563-11.412 2.187-2.591 3.343-3.931 3.343-3.935z" fill="#64d1ab" fill-rule="nonzero"/><path d="m1464.34 691.356c.031-.268.343-1.359.843-2.987 3.938-12.36 21.125-58.213 58.407-106.16 37.25-47.959 94.562-98.021 178.781-119.034l-.563-2.231c-91.218 22.756-151.062 79.35-188.156 130.668-18.531 25.663-31.375 50.013-39.625 68.188-4.093 9.088-7.062 16.631-9.031 22.028-.969 2.7-1.687 4.859-2.156 6.416-.25.775-.438 1.4-.563 1.872-.125.49-.187.734-.219 1.062z" fill="#64d1ab" fill-rule="nonzero"/><path d="m1715.53 471.034c0 .003.094.141.25.444 2.406 4.509 22.063 43.344 22.063 106.41 0 54.893-14.875 128.159-69.031 213.246l1.937 1.235c54.375-85.428 69.375-159.172 69.375-214.481 0-67.788-22.5-107.86-22.594-107.979z" fill="#64d1ab" fill-rule="nonzero"/><path d="m1795.5 349.459c-.125-.037-14.156-5.05-39.5-5.05-52.469-.009-153.281 21.55-278.469 153.025l1.656 1.585c124.876-131.113 224.969-152.3 276.813-152.31 12.5 0 22.219 1.238 28.781 2.472 3.282.616 5.781 1.232 7.438 1.691.844.228 1.468.419 1.906.55.406.131.594.203.594.2z" fill="#64d1ab" fill-rule="nonzero"/><path d="m1793.06 365.169s.156.225.468.687c4.688 6.963 42.688 66.232 42.688 157.438 0 37.975-6.563 81.493-24.907 129.115l2.157.825c18.437-47.887 25.062-91.7 25.062-129.94 0-97.985-43.5-159.341-43.593-159.453z" fill="#64d1ab" fill-rule="nonzero"/><path d="m1868.25 299.966.156.137c3.25 3.097 58.469 57.635 67.406 214.3l2.313-.131c-9.281-162.241-68.125-215.831-68.344-216.01z" fill="#64d1ab" fill-rule="nonzero"/><path d="m2239.31 668.247c-4.687-1.616-34.593-22.372-37.906-26.975-12-12.241-17.875-32.844-14.968-59.778 6.312-59.103 52.312-126.178 102.718-149.819 23.5-11.022 42.031-13.472 57.625-4.231 8.688 4.528 32.157 18.575 32.157 18.575 4.187 4.581-4.719 7.225-2.282 13.881 5.594 11.925 7.844 27.572 5.844 46.306-6.312 59.103-52.312 126.178-102.75 149.822-21.219 9.956-26.437 19.2-40.438 12.219z" fill="#f0b037" fill-rule="nonzero"/><path d="m2295.38 667.491c51.125-22.891 98.156-91.141 105.063-152.447 6.906-61.303-28.907-92.444-80.032-69.553-51.125 22.89-98.156 91.143-105.062 152.447-6.907 61.303 28.937 92.443 80.031 69.553z" fill="#fff" fill-rule="nonzero"/><path d="m2298.84 669.609c51.125-22.89 98.156-91.143 105.062-152.446 6.906-61.304-28.937-92.444-80.031-69.554-51.125 22.888-98.156 91.141-105.062 152.447-6.907 61.303 28.906 92.444 80.031 69.553z" fill="#ffd482" fill-rule="nonzero"/><path d="m2304.31 637.147c35.749-16.003 68.624-63.716 73.437-106.572 4.844-42.856-20.219-64.628-55.938-48.625-35.749 16.003-68.624 63.716-73.437 106.572-4.844 42.856 20.219 64.625 55.938 48.625z" fill="#fff" fill-rule="nonzero"/><path d="m2372.34 527.247c-4.844 42.856-37.719 90.569-73.438 106.572-14.25 6.378-26.812 6.747-36.437 2.178 10.093 7.809 24.75 8.803 41.844 1.15 35.749-16.003 68.624-63.719 73.437-106.572 2.906-25.772-5-43.916-19.531-50.806 11.031 8.512 16.656 25.122 14.125 47.478z" fill="#f2c97b" fill-rule="nonzero"/><path d="m2319.75 516.034c6.75-2.265 14.562-2.706 19.5.238l-8.563 16.003c-5.437-2.1-10.312-2.284-15.875.281-6.468 2.997-9.656 7.256-10.187 13.1-1.188 13.085 29.406-1.294 27.344 21.572-1.157 12.45-8.657 24.191-19.75 31.634l-1.188 13.085-11.25 5.187 1.188-12.828c-7.313 2.278-12.281.678-16.313-2.443l9.532-14.632c3.781 2.266 7.187 2.766 12.062.519 5.563-2.569 8.781-6.372 9.312-12.091 1.094-12.065-29.593 3.075-27.375-21.187 1.125-12.197 8.094-24.435 20.282-32.738l1.218-13.212 11.219-5.191z" fill="#ffd482" fill-rule="nonzero"/><path d="m2242.97 517.678-27.094-16.231c-.469-.291-1.125-.135-1.406.356s-.125 1.125.343 1.419l27.094 16.228c.5.294 1.125.134 1.438-.353.281-.491.125-1.125-.375-1.419z" fill="#ffd482" fill-rule="nonzero"/><path d="m2227.31 547.706-26.25-15.962c-.499-.294-1.125-.141-1.406.347-.312.487-.156 1.121.344 1.418l26.25 15.963c.469.297 1.125.144 1.406-.344.313-.487.157-1.125-.344-1.422z" fill="#ffd482" fill-rule="nonzero"/><path d="m2217.16 579.128-26.25-15.959c-.5-.297-1.125-.144-1.437.343-.281.488-.125 1.126.343 1.422l26.251 15.96c.5.297 1.124.144 1.437-.344.281-.488.125-1.125-.344-1.422z" fill="#ffd482" fill-rule="nonzero"/><path d="m2213.25 610.531-24.188-14.715c-.5-.297-1.124-.141-1.437.346-.281.488-.125 1.122.344 1.419l24.219 14.716c.5.297 1.125.144 1.406-.344.312-.487.156-1.125-.344-1.422z" fill="#ffd482" fill-rule="nonzero"/><path d="m2217.91 641.041-24.187-15.616c-.469-.309-1.125-.172-1.438.306-.312.482-.156 1.119.313 1.428l24.187 15.619c.5.31 1.125.172 1.438-.309.312-.478.156-1.119-.313-1.428z" fill="#ffd482" fill-rule="nonzero"/><path d="m2263.47 488.784-26.094-16.171c-.5-.3-1.125-.151-1.438.334-.312.484-.156 1.122.344 1.422l26.094 16.172c.5.3 1.125.15 1.438-.335.312-.484.156-1.122-.344-1.422z" fill="#ffd482" fill-rule="nonzero"/><path d="m2286.88 465.481-26.094-16.168c-.5-.3-1.125-.151-1.437.334-.313.484-.157 1.122.343 1.422l26.094 16.168c.5.3 1.125.154 1.438-.334.312-.484.156-1.122-.344-1.422z" fill="#ffd482" fill-rule="nonzero"/><path d="m2313.12 447.797-24.094-14.913c-.469-.3-1.125-.15-1.406.338-.313.484-.156 1.122.313 1.422l24.093 14.909c.5.3 1.125.15 1.438-.334.281-.485.125-1.122-.344-1.422z" fill="#ffd482" fill-rule="nonzero"/><path d="m2342.38 438.094-24.875-14.491c-.5-.287-1.125-.122-1.406.372s-.125 1.125.375 1.413l24.875 14.493c.5.288 1.125.119 1.406-.375.281-.49.125-1.125-.375-1.412z" fill="#ffd482" fill-rule="nonzero"/><path d="m1005.81 1851.34 206.813 133.071c.5.319 1.156.175 1.469-.315.312-.494.187-1.147-.313-1.466l-206.812-133.072c-.5-.315-1.157-.172-1.469.319s-.156 1.147.312 1.463z" fill="#34c8cc" fill-rule="nonzero"/><path d="m1226.22 1984.48 494.781-227.534c.531-.244.781-.875.531-1.406-.25-.532-.875-.763-1.406-.519l-494.813 227.537c-.531.244-.75.872-.5 1.404.251.531.875.765 1.407.518z" fill="#34c8cc" fill-rule="nonzero"/><path d="m1526.5 1883.2v-83.688l-62.875 28.813v83.691z" fill="#dedede" fill-rule="nonzero"/><path d="m2712.59 1981.17c18.781 55.74-37.531 97.778-140.969 123.078-116.563 28.515-256.375-6.222-299.531-72.913-11.813-18.253-15.344-34.95-11.906-50.165h-18.688c-15.781 31.197-15.219 65.059 5.375 96.881 50.438 77.887 201.656 114.031 337.812 80.725 122.501-29.966 191-105.944 166.782-177.606z" fill="#5f594b" fill-rule="nonzero"/><path d="m2719.81 1981.17c0 65.409-100.281 122.875-224.031 128.35-123.718 5.475-224.031-43.11-224.031-108.522 0-65.409 100.313-122.875 224.031-128.35 123.75-5.475 224.031 43.109 224.031 108.522z" fill="#bfd9d0" fill-rule="nonzero"/><path d="m2566.91 2087.65c-116.562 28.516-246.062-2.431-289.219-69.115-43.156-66.691 16.313-143.872 132.907-172.388 116.562-28.516 246.031 2.428 289.218 69.119 43.157 66.687-16.343 143.865-132.906 172.384zm171.032-174.231c-50.438-77.891-201.657-114.031-337.813-80.728-136.125 33.306-205.625 123.45-155.219 201.34 50.438 77.888 201.657 114.035 337.813 80.728 136.156-33.309 205.625-123.449 155.219-201.34z" fill="#736c5b" fill-rule="nonzero"/><path d="m2504.53 1872.35-21.812 225.906c23.906.085 50.312-3.406 78.344-9.228l9.687-212.909z" fill="#fff" fill-rule="nonzero"/><path d="m2593.47 1880.15-3.094 200.872c16-5.175 30.375-11.184 43.313-17.919v-171.465c-11.719-5.21-26.875-7.785-40.219-11.488z" fill="#fff" fill-rule="nonzero"/><path d="m2230.94 2213.08-47.813-22.512 112.188-80.672c22.999-17.484 54.312 14.034 36.937 29.075z" fill="#fff" fill-rule="nonzero"/><path d="m2230.94 2213.08.406-.865-46.344-21.819 110.906-79.728v-.01c4.594-3.493 9.5-4.94 14.25-4.943 6.813-.007 13.407 2.981 18.25 7.34 4.875 4.353 7.938 10.056 7.938 15.297 0 3.6-1.406 7.006-4.719 9.894l.625.725-.562-.775-101.313 74.112.563.772.406-.865-.406.865.562.775 101.344-74.134.031-.028c3.719-3.2 5.375-7.235 5.375-11.341 0-5.99-3.406-12.087-8.563-16.725-5.156-4.628-12.156-7.825-19.531-7.828-5.156-.003-10.5 1.591-15.406 5.334l.563.763-.563-.778-113.531 81.622 49.843 23.45.438-.335z" fill="#302d25" fill-rule="nonzero"/><path d="m2282.06 2208.7c-5.875-27.775-32.313-58.559-59.063-68.766-13.969-5.325-25.219-3.984-32 2.444l-210.75 154.259 79.719 99.941 212.031-155.453c9.281-4.928 13.469-16.425 10.063-32.425z" fill="url(#i)"/><path d="m2069.09 2364.69c5.875 27.771-11.032 42.009-37.781 31.806-26.751-10.21-53.219-40.994-59.094-68.766s11.031-42.009 37.781-31.806c26.75 10.209 53.219 40.994 59.094 68.766z" fill="#302d25" fill-rule="nonzero"/><path d="m1975 2302.73c3.531-2.956 8.25-4.587 14.063-4.59 4.562-.004 9.781 1.012 15.499 3.196 13.032 4.969 26.188 15.066 36.719 27.347 10.563 12.272 18.5 26.728 21.375 40.263.75 3.628 1.125 7 1.125 10.084 0 6.428-1.562 11.591-4.343 15.372-.501.706-.344 1.7.375 2.216.687.515 1.687.359 2.187-.347 3.25-4.441 4.969-10.307 4.969-17.241 0-3.334-.406-6.922-1.219-10.74-3.031-14.238-11.219-29.06-22.063-41.675-10.843-12.607-24.281-23.007-38-28.241-6.031-2.297-11.593-3.406-16.624-3.406-6.407-.007-11.938 1.831-16.094 5.334-.656.566-.75 1.566-.188 2.234.563.672 1.563.757 2.219.194z" fill="#fff" fill-rule="nonzero"/><path d="m2224.78 2141.31.031.013c1.532.394 31.938 8.062 54.407 62.581.343.809 1.25 1.197 2.062.863.813-.335 1.219-1.26.875-2.072-23.5-57.194-56.343-64.441-56.718-64.488-.876-.181-1.719.369-1.907 1.225-.156.856.375 1.697 1.25 1.878z" fill="#fff" fill-rule="nonzero"/><path d="m2122.91 1723.29-332.218 456.988c-8.907 12.266-26.313 15.125-38.688 6.359v-.003c-12.344-8.768-15.156-25.981-6.25-38.247l332.25-456.99c8.906-12.266 26.313-15.125 38.656-6.353 12.375 8.768 15.188 25.981 6.25 38.246z" fill="#202936" fill-rule="nonzero"/><path d="m1740.94 2160-15.156 60.206c-1.156 4.603 4.219 8.044 8 5.128l52.938-40.703z" fill="#202936" fill-rule="nonzero"/><path d="m1640.47 247.631s.75-.14 2.219-.384c10.218-1.713 54.187-8.572 101.437-8.569 27-.003 55.062 2.244 78.469 8.925l.656-2.209c-23.781-6.772-52-9.013-79.125-9.016-54.25.003-104.031 8.984-104.094 8.991z" fill="#64d1ab" fill-rule="nonzero"/></svg>