<?xml version="1.0" encoding="UTF-8" standalone="no"?><!DOCTYPE svg PUBLIC "-//W3C//DTD SVG 1.1//EN" "http://www.w3.org/Graphics/SVG/1.1/DTD/svg11.dtd"><svg width="100%" height="100%" viewBox="0 0 2951 2707" version="1.1" xmlns="http://www.w3.org/2000/svg" xmlns:xlink="http://www.w3.org/1999/xlink" xml:space="preserve" xmlns:serif="http://www.serif.com/" style="fill-rule:evenodd;clip-rule:evenodd;stroke-linejoin:round;stroke-miterlimit:2;"><rect id="Artboard1" x="0" y="0" width="2950.24" height="2706.09" style="fill:none;"/><g><path d="M2742.12,1980.11c-0,82.304 -121.031,134.16 -259.406,134.16c-138.375,-0 -241.688,-51.856 -241.688,-134.16c0,-82.306 112.188,-149.028 250.563,-149.028c138.375,0 250.531,66.722 250.531,149.028Z" style="fill:#5f594b;fill-rule:nonzero;"/><path d="M1345.66,1343.55l-959.319,795.965l1231.54,413.707l959.312,-795.966l-1231.53,-413.706Z" style="fill:#202936;fill-rule:nonzero;"/><path d="M2577.19,1738.63l-1231.53,-413.709l-959.319,795.965l1231.54,413.71l959.312,-795.966Z" style="fill:#fcf9f7;fill-rule:nonzero;"/><path d="M1926.56,2042.56c-53.563,45.15 -171.782,56.366 -264.063,25.057c-92.281,-31.31 -123.625,-93.291 -70.063,-138.438c53.563,-45.147 171.782,-56.366 264.063,-25.056c92.281,31.312 123.656,93.294 70.063,138.437Z" style="fill:#b5aaa0;fill-rule:nonzero;"/><path d="M1762.38,1986.84l-188.344,-17.785c-21.281,4.616 61.125,-149.147 315.907,-50.959l-127.563,68.744Z" style="fill:#18a2a3;fill-rule:nonzero;"/><path d="M2401.19,1786.2l-1067.75,-362.316c-12.281,-4.168 -16.468,-12.422 -9.343,-18.434c7.156,-6.012 22.875,-7.503 35.156,-3.334l1067.78,362.318c12.281,4.169 16.469,12.422 9.313,18.432c-7.125,6.009 -22.875,7.503 -35.156,3.334Z" style="fill:#bfd9d0;fill-rule:nonzero;"/><path d="M2321.94,1865.94l-1089.66,-369.757c-6.25,-2.115 -8.375,-6.299 -4.75,-9.353c3.625,-3.046 11.625,-3.809 17.844,-1.693l1089.69,369.756c6.219,2.115 8.344,6.303 4.719,9.353c-3.625,3.05 -11.593,3.806 -17.843,1.694Z" style="fill:#bfd9d0;fill-rule:nonzero;"/><path d="M2281.28,1900.22l-1089.69,-369.753c-6.219,-2.119 -8.344,-6.307 -4.719,-9.353c3.625,-3.054 11.594,-3.81 17.844,-1.694l1089.66,369.753c6.25,2.116 8.344,6.303 4.75,9.353c-3.625,3.05 -11.625,3.809 -17.844,1.694Z" style="fill:#bfd9d0;fill-rule:nonzero;"/><path d="M1627.38,2442.23l-1089.66,-369.756c-6.235,-2.113 -8.354,-6.3 -4.732,-9.353c3.619,-3.047 11.607,-3.81 17.841,-1.694l1089.67,369.753c6.219,2.119 8.344,6.306 4.719,9.356c-3.625,3.05 -11.594,3.807 -17.844,1.694Z" style="fill:#bfd9d0;fill-rule:nonzero;"/><path d="M1586.72,2476.5l-1089.67,-369.753c-6.235,-2.119 -8.356,-6.303 -4.738,-9.353c3.622,-3.053 11.61,-3.81 17.844,-1.694l1089.66,369.753c6.25,2.116 8.375,6.303 4.75,9.353c-3.624,3.05 -11.625,3.81 -17.843,1.694Z" style="fill:#bfd9d0;fill-rule:nonzero;"/><path d="M2240.59,1934.49l-1089.66,-369.753c-6.25,-2.116 -8.376,-6.303 -4.75,-9.357c3.624,-3.047 11.624,-3.806 17.843,-1.69l1089.69,369.753c6.219,2.115 8.343,6.306 4.718,9.353c-3.624,3.053 -11.593,3.809 -17.843,1.694Z" style="fill:#bfd9d0;fill-rule:nonzero;"/><path d="M1554.97,1844.46l-519.688,-176.103c-9.187,-3.118 -11.031,-10.406 -4.062,-16.278l0.625,-0.512c6.937,-5.872 20.062,-8.104 29.25,-4.988l519.687,176.103c9.188,3.119 11,10.407 4.063,16.278l-0.625,0.516c-6.938,5.869 -20.063,8.103 -29.25,4.984Z" style="fill:#bfd9d0;fill-rule:nonzero;"/><path d="M1515.97,1889.24l-537.344,-182.081c-4.312,-1.465 -5.188,-4.894 -1.906,-7.659l1.25,-1.044c3.281,-2.762 9.437,-3.812 13.75,-2.344l537.344,182.078c4.312,1.466 5.187,4.897 1.906,7.663l-1.25,1.044c-3.25,2.759 -9.438,3.809 -13.75,2.343Z" style="fill:#bfd9d0;fill-rule:nonzero;"/><path d="M1475.31,1923.53l-537.312,-182.078c-4.344,-1.469 -5.188,-4.9 -1.906,-7.663l1.218,-1.043c3.282,-2.763 9.469,-3.813 13.782,-2.344l537.312,182.078c4.344,1.469 5.188,4.9 1.938,7.659l-1.25,1.044c-3.282,2.766 -9.438,3.816 -13.782,2.347Z" style="fill:#bfd9d0;fill-rule:nonzero;"/><path d="M1434.69,1957.81l-537.312,-182.079c-4.344,-1.465 -5.188,-4.897 -1.937,-7.662l1.249,-1.044c3.282,-2.762 9.438,-3.812 13.782,-2.344l537.312,182.082c4.344,1.465 5.188,4.893 1.907,7.659l-1.219,1.044c-3.282,2.762 -9.438,3.812 -13.782,2.343Z" style="fill:#bfd9d0;fill-rule:nonzero;"/><path d="M1394.06,1992.1l-537.343,-182.081c-4.313,-1.469 -5.188,-4.897 -1.906,-7.659l1.249,-1.044c3.282,-2.766 9.438,-3.816 13.75,-2.347l537.344,182.078c4.313,1.469 5.188,4.9 1.907,7.663l-1.251,1.043c-3.25,2.763 -9.437,3.813 -13.75,2.347Z" style="fill:#bfd9d0;fill-rule:nonzero;"/><path d="M1823.47,2274.01l-614.157,-208.403c-11.843,-4.022 -15.874,-11.981 -9,-17.781l0.907,-0.769c6.875,-5.797 22.062,-7.237 33.906,-3.219l614.188,208.404c11.843,4.021 15.874,11.981 9,17.778l-0.938,0.768c-6.875,5.8 -22.062,7.241 -33.906,3.222Z" style="fill:#bfd9d0;fill-rule:nonzero;"/><path d="M1785.62,2319.72l-637.562,-216.341c-5.375,-1.828 -7.219,-5.447 -4.063,-8.084l1.75,-1.497c3.125,-2.638 10.031,-3.294 15.437,-1.462l637.563,216.337c5.375,1.828 7.219,5.45 4.094,8.087l-1.782,1.497c-3.125,2.635 -10.031,3.291 -15.437,1.463Z" style="fill:#bfd9d0;fill-rule:nonzero;"/><path d="M1744.97,2354l-637.563,-216.338c-5.406,-1.831 -7.218,-5.45 -4.093,-8.087l1.781,-1.497c3.125,-2.634 10.031,-3.291 15.406,-1.462l637.562,216.337c5.407,1.831 7.219,5.45 4.094,8.088l-1.781,1.493c-3.125,2.641 -10.031,3.294 -15.406,1.466Z" style="fill:#bfd9d0;fill-rule:nonzero;"/><path d="M1704.28,2388.27l-637.562,-216.341c-5.375,-1.825 -7.219,-5.447 -4.094,-8.081l1.781,-1.5c3.125,-2.637 10.031,-3.294 15.438,-1.463l637.562,216.341c5.375,1.828 7.219,5.447 4.094,8.088l-1.781,1.493c-3.125,2.638 -10.032,3.294 -15.438,1.463Z" style="fill:#bfd9d0;fill-rule:nonzero;"/><path d="M715.375,2046.64l-67.294,-22.613l137.856,-114.369l67.282,22.61l-137.844,114.372Z" style="fill:#18a2a3;fill-rule:nonzero;"/><path d="M878.719,2101.51l-67.313,-22.609l166.344,-138.003l67.313,22.606l-166.344,138.006Z" style="fill:#18a2a3;fill-rule:nonzero;"/><path d="M798.094,2074.42l-67.313,-22.609l97.813,-81.138l67.281,22.612l-97.781,81.135Z" style="fill:#18a2a3;fill-rule:nonzero;"/><path d="M961.625,2129.35l-67.312,-22.609l97.781,-81.138l67.312,22.613l-97.781,81.134Z" style="fill:#18a2a3;fill-rule:nonzero;"/><path d="M2688.72,2060.25c-3.188,3.297 -6.656,6.516 -10.375,9.641c3.719,-3.125 7.187,-6.344 10.375,-9.641Zm-102.688,53.312c32.125,-7.865 59.344,-19.918 80.438,-34.578c-21.094,14.66 -48.313,26.713 -80.438,34.578c-12.875,3.144 -25.906,5.469 -38.937,7.016c13.031,-1.547 26.062,-3.872 38.937,-7.016Zm-58.5,8.757c-9.75,0.584 -19.469,0.74 -29.062,0.487c9.593,0.253 19.312,0.097 29.062,-0.487Zm-93.406,-7.75c5.156,1.234 10.438,2.315 15.781,3.284c-5.343,-0.969 -10.625,-2.05 -15.781,-3.284c-5.75,-1.378 -11.406,-2.922 -16.906,-4.625c5.5,1.703 11.156,3.247 16.906,4.625Zm273.406,-80.313c2.719,-5.415 4.781,-10.934 6.157,-16.512c-1.376,5.578 -3.438,11.097 -6.157,16.512c-1.781,3.61 -3.875,7.172 -6.25,10.675c2.375,-3.503 4.469,-7.065 6.25,-10.675Zm-328.437,60.019c4.625,2.466 9.437,4.784 14.437,6.953c-5,-2.169 -9.812,-4.487 -14.437,-6.953Zm368.656,-150.078c-50.437,-77.888 -183.344,-110.059 -319.5,-76.753c-120.406,29.459 -188.656,103.384 -167.937,173.965c-0.5,18.457 4.718,37.116 16.375,55.119c6.781,10.481 15.468,20.181 25.624,29.084l-38.312,27.138c-6.062,-4.437 -12.406,-8.056 -18.75,-10.484c-13.844,-5.282 -25.031,-3.972 -31.812,2.328l-0,-0.01l-210.969,154.385c-7.781,5.481 -11.125,16.353 -8,31.097c5.875,27.771 32.312,58.556 59.062,68.765c11.875,4.528 21.813,4.222 28.657,0.075l0.031,0.003l0.25,-0.197c0.875,-0.543 1.687,-1.128 2.469,-1.793l209.406,-153.528l-0.031,-0.01c9.218,-4.959 13.374,-16.406 10,-32.353c-0.844,-4.053 -2.188,-8.169 -3.875,-12.275l55.718,-39.453c69.844,31.434 167.438,40.191 258.344,17.953c120.406,-29.459 188.656,-103.381 167.938,-173.965c0.5,-18.46 -23.032,-41.088 -34.688,-59.091Z" style="fill:#202936;fill-rule:nonzero;"/><path d="M2739.12,1991.68c0,94.65 -110.844,171.381 -247.531,171.381c-136.719,0 -247.563,-76.731 -247.563,-171.381c0,-94.65 110.844,-171.378 247.563,-171.378c136.687,0 247.531,76.728 247.531,171.378Z" style="fill:#5f594b;fill-rule:nonzero;"/><path d="M459.303,1636.33l-447.616,-318.531l351.769,-443.038l95.847,761.569Z" style="fill:#202936;fill-rule:nonzero;"/><path d="M11.687,1317.8l1038.38,-431.094l169.218,-599.881l-1038.38,431.094l-169.213,599.881Z" style="fill:url(#_Linear1);"/><path d="M459.303,1636.33l1038.38,-431.094l-275.907,-921.453l-1038.38,431.097l275.897,921.45Z" style="fill:url(#_Linear2);"/><path d="M286.953,770.216l883.734,-374.244l14.594,47.897l0.094,-0.038l215.25,707.485l-883.75,374.243l-14.572,-47.897l-0.094,0.038l-215.256,-707.484Z" style="fill:#f5e8dd;fill-rule:nonzero;"/><path d="M314.841,769.541l883.753,-374.244l14.562,47.9l0.094,-0.041l215.25,707.488l-883.738,374.243l-14.571,-47.9l-0.094,0.038l-215.256,-707.484Z" style="fill:#fcf9f7;fill-rule:nonzero;"/><path d="M1055.84,493.722c0.25,15.244 12.312,27.094 26.937,26.466c14.625,-0.629 26.282,-13.491 26.031,-28.735c-0.25,-15.244 -12.312,-27.094 -26.937,-26.465c-14.625,0.628 -26.281,13.49 -26.031,28.734Z" style="fill:#f5e8dd;fill-rule:nonzero;"/><path d="M1087.44,472.241c10.688,-4.997 16.532,-16.172 16.844,-32.319c0.75,-39.628 -33.375,-93.903 -74.594,-118.522c-10.187,-6.1 -20.062,-9.937 -28.968,-11.397c-8.219,-1.35 -15.594,-0.669 -21.625,2.141c-10.719,4.997 -16.563,16.172 -16.844,32.319c-0.281,13.231 3.375,28.093 9.875,42.94l-22.906,9.813c-8.906,-19.616 -13.844,-39.682 -13.5,-58.035c0.5,-24.884 10.75,-43.253 28.906,-51.719c20.031,-9.337 47.5,-5.143 75.344,11.507c51.906,31.025 91.812,95.259 90.812,146.234c-0.469,24.884 -10.75,43.253 -28.906,51.719c-5.406,2.522 -11.375,4.056 -17.719,4.628c-8.531,0.759 -16.219,-8.731 -13.594,-16.638l0,-0.006c1.813,-5.378 5.907,-9.475 11.438,-10.793c1.906,-0.457 3.719,-1.079 5.437,-1.872Z" style="fill:#202936;fill-rule:nonzero;"/><path d="M896,560.228c0.25,15.244 12.313,27.094 26.937,26.466c14.626,-0.628 26.282,-13.491 26.032,-28.735c-0.25,-15.243 -12.313,-27.093 -26.938,-26.465c-14.625,0.628 -26.281,13.49 -26.031,28.734Z" style="fill:#f5e8dd;fill-rule:nonzero;"/><path d="M927.594,538.747c10.719,-4.997 16.531,-16.172 16.843,-32.319c0.782,-39.628 -33.374,-93.903 -74.562,-118.522c-10.219,-6.097 -20.094,-9.937 -29,-11.397c-8.219,-1.35 -15.594,-0.668 -21.625,2.141c-10.719,4.997 -16.531,16.172 -16.844,32.319c-0.253,13.231 3.406,28.094 9.875,42.94l-22.906,9.813c-8.875,-19.616 -13.844,-39.681 -13.469,-58.034c0.466,-24.885 10.719,-43.251 28.875,-51.719c20.031,-9.338 47.5,-5.144 75.344,11.509c51.906,31.022 91.813,95.256 90.812,146.231c-0.468,24.885 -10.718,43.254 -28.875,51.719c-5.437,2.522 -11.375,4.06 -17.749,4.628c-8.532,0.76 -16.219,-8.731 -13.563,-16.637l-0,-0.003c1.781,-5.382 5.875,-9.479 11.406,-10.797c1.906,-0.457 3.719,-1.078 5.438,-1.872Z" style="fill:#202936;fill-rule:nonzero;"/><path d="M736.153,626.738c0.253,15.24 12.316,27.09 26.938,26.462c14.659,-0.625 26.284,-13.491 26.034,-28.734c-0.253,-15.244 -12.316,-27.091 -26.937,-26.466c-14.626,0.628 -26.282,13.494 -26.035,28.738Z" style="fill:#f5e8dd;fill-rule:nonzero;"/><path d="M767.75,605.256c10.719,-5 16.562,-16.175 16.872,-32.322c0.75,-39.625 -33.403,-93.903 -74.591,-118.522c-10.187,-6.096 -20.062,-9.934 -28.968,-11.393c-8.219,-1.353 -15.625,-0.669 -21.657,2.14c-10.7,4.994 -16.528,16.169 -16.84,32.319l-0,-0.003c-0.254,13.231 3.4,28.094 9.89,42.941l-22.9,9.812c-8.897,-19.616 -13.847,-39.681 -13.49,-58.034c0.478,-24.881 10.74,-43.25 28.897,-51.716c20.037,-9.34 47.475,-5.147 75.35,11.506c51.906,31.022 91.781,95.257 90.812,146.235c-0.5,24.884 -10.75,43.25 -28.906,51.715c-5.41,2.525 -11.375,4.06 -17.719,4.628c-8.531,0.763 -16.222,-8.731 -13.594,-16.637l0,-0.003c1.813,-5.381 5.875,-9.475 11.435,-10.794c1.909,-0.456 3.722,-1.081 5.409,-1.872Z" style="fill:#202936;fill-rule:nonzero;"/><path d="M576.337,693.244c0.25,15.244 12.31,27.09 26.938,26.465c14.625,-0.628 26.278,-13.493 26.028,-28.737c-0.25,-15.244 -12.309,-27.091 -26.934,-26.463c-14.628,0.625 -26.281,13.491 -26.032,28.735Z" style="fill:#f5e8dd;fill-rule:nonzero;"/><path d="M607.925,671.762c10.716,-4.996 16.541,-16.171 16.853,-32.318c0.766,-39.628 -33.387,-93.906 -74.575,-118.525c-10.2,-6.097 -20.081,-9.935 -28.981,-11.394c-8.225,-1.35 -15.609,-0.669 -21.635,2.141c-10.715,4.993 -16.543,16.172 -16.853,32.318c-0.253,13.232 3.4,28.091 9.891,42.941l-22.9,9.812c-8.897,-19.615 -13.847,-39.684 -13.494,-58.034l0,-0.003c0.478,-24.881 10.744,-43.25 28.897,-51.716c20.025,-9.337 47.491,-5.147 75.344,11.507c51.903,31.025 91.794,95.256 90.809,146.234c-0.478,24.884 -10.74,43.25 -28.897,51.716c-5.409,2.525 -11.368,4.062 -17.728,4.628c-8.528,0.762 -16.215,-8.732 -13.584,-16.638l0.003,-0.003c1.794,-5.381 5.878,-9.475 11.425,-10.794c1.909,-0.456 3.722,-1.078 5.425,-1.872Z" style="fill:#202936;fill-rule:nonzero;"/><path d="M416.503,759.75c0.25,15.244 12.313,27.091 26.938,26.466c14.625,-0.628 26.281,-13.494 26.028,-28.738c-0.25,-15.241 -12.31,-27.091 -26.938,-26.462c-14.622,0.625 -26.278,13.49 -26.028,28.734Z" style="fill:#f5e8dd;fill-rule:nonzero;"/><path d="M448.094,738.269c10.709,-4.997 16.54,-16.172 16.85,-32.319c0.765,-39.628 -33.385,-93.906 -74.572,-118.522c-10.203,-6.1 -20.084,-9.937 -28.981,-11.397c-8.225,-1.35 -15.613,-0.668 -21.635,2.141c-10.719,4.997 -16.544,16.172 -16.856,32.319c-0.253,13.231 3.4,28.093 9.891,42.94l-22.9,9.813c-8.897,-19.616 -13.847,-39.685 -13.494,-58.035c0.478,-24.884 10.744,-43.25 28.897,-51.715c20.028,-9.341 47.487,-5.147 75.343,11.503c51.904,31.025 91.794,95.259 90.813,146.234c-0.481,24.885 -10.744,43.253 -28.897,51.716c-5.416,2.525 -11.369,4.062 -17.728,4.628c-8.531,0.762 -16.219,-8.728 -13.588,-16.634l0.004,-0.007c1.793,-5.378 5.881,-9.475 11.421,-10.793c1.913,-0.453 3.729,-1.078 5.432,-1.872Z" style="fill:#202936;fill-rule:nonzero;"/><path d="M406.988,925.312l-1.354,-3.112l805.835,-334.088l1.343,3.113l-805.824,334.087Z" style="fill:#bfd9d0;fill-rule:nonzero;"/><path d="M442.147,1037.17l-1.353,-3.113l805.831,-334.087l1.344,3.109l-805.822,334.091Z" style="fill:#bfd9d0;fill-rule:nonzero;"/><path d="M477.303,1149.02l-1.35,-3.113l805.828,-334.087l1.375,3.112l-805.853,334.088Z" style="fill:#bfd9d0;fill-rule:nonzero;"/><path d="M512.462,1260.87l-1.353,-3.113l805.829,-334.087l1.374,3.112l-805.85,334.088Z" style="fill:#bfd9d0;fill-rule:nonzero;"/><path d="M547.622,1372.72l-1.353,-3.11l805.825,-334.087l1.375,3.112l-805.847,334.085Z" style="fill:#bfd9d0;fill-rule:nonzero;"/><path d="M1081.81,645.544l34.124,108.6l105.063,-43.56l-34.125,-108.6l-105.062,43.56Zm32.031,113.15l-36.188,-115.103l111.344,-46.157l36.156,115.104l-111.312,46.156Z" style="fill:#bfd9d0;fill-rule:nonzero;"/><path d="M973.594,690.4l34.156,108.603l105.062,-43.559l-34.124,-108.603l-105.094,43.559Zm32.031,113.15l-36.188,-115.1l111.344,-46.156l36.188,115.1l-111.344,46.156Z" style="fill:#bfd9d0;fill-rule:nonzero;"/><path d="M865.406,735.259l34.125,108.604l105.063,-43.563l-34.125,-108.6l-105.063,43.559Zm32.032,113.15l-36.188,-115.1l111.344,-46.159l36.156,115.103l-111.312,46.156Z" style="fill:#bfd9d0;fill-rule:nonzero;"/><path d="M757.219,780.119l34.125,108.6l105.062,-43.56l-34.125,-108.6l-105.062,43.56Zm32,113.15l-36.157,-115.1l111.313,-46.16l36.188,115.103l-111.344,46.157Z" style="fill:#bfd9d0;fill-rule:nonzero;"/><path d="M649.006,824.975l34.15,108.603l105.063,-43.559l-34.156,-108.603l-105.057,43.559Zm32.025,113.15l-36.181,-115.1l111.337,-46.156l36.188,115.1l-111.344,46.156Z" style="fill:#bfd9d0;fill-rule:nonzero;"/><path d="M540.806,869.834l34.135,108.6l105.059,-43.559l-34.128,-108.6l-105.066,43.559Zm32.025,113.15l-36.181,-115.1l111.331,-46.156l36.175,115.1l-111.325,46.156Z" style="fill:#bfd9d0;fill-rule:nonzero;"/><path d="M432.606,914.694l34.135,108.6l105.068,-43.56l-34.137,-108.6l-105.066,43.56Zm32.025,113.15l-36.181,-115.103l111.331,-46.157l36.185,115.1l-111.335,46.16Z" style="fill:#bfd9d0;fill-rule:nonzero;"/><path d="M1116.97,757.394l34.125,108.603l105.062,-43.56l-34.125,-108.603l-105.062,43.56Zm32.031,113.15l-36.188,-115.1l111.344,-46.157l36.157,115.101l-111.313,46.156Z" style="fill:#bfd9d0;fill-rule:nonzero;"/><path d="M1008.75,802.253l34.156,108.6l105.063,-43.559l-34.125,-108.6l-105.094,43.559Zm32.031,113.15l-36.187,-115.103l111.343,-46.156l36.188,115.103l-111.344,46.156Z" style="fill:#bfd9d0;fill-rule:nonzero;"/><path d="M900.563,847.112l34.124,108.601l105.094,-43.56l-34.156,-108.603l-105.062,43.562Zm32.031,113.15l-36.188,-115.103l111.344,-46.156l36.188,115.1l-111.344,46.159Z" style="fill:#bfd9d0;fill-rule:nonzero;"/><path d="M792.375,891.969l34.125,108.603l105.062,-43.559l-34.124,-108.604l-105.063,43.56Zm32,113.15l-36.156,-115.1l111.312,-46.156l36.188,115.099l-111.344,46.157Z" style="fill:#bfd9d0;fill-rule:nonzero;"/><path d="M684.156,936.828l34.156,108.6l105.063,-43.559l-34.156,-108.6l-105.063,43.559Zm32.031,113.15l-36.187,-115.103l111.344,-46.156l36.187,115.103l-111.344,46.156Z" style="fill:#bfd9d0;fill-rule:nonzero;"/><path d="M575.966,981.684l34.134,108.604l105.056,-43.56l-34.125,-108.603l-105.065,43.559Zm32.025,113.154l-36.182,-115.104l111.347,-46.156l36.156,115.1l-111.321,46.16Z" style="fill:#bfd9d0;fill-rule:nonzero;"/><path d="M467.766,1026.54l34.134,108.603l105.066,-43.56l-34.135,-108.603l-105.065,43.56Zm32.025,113.15l-36.185,-115.1l111.335,-46.16l36.184,115.104l-111.334,46.156Z" style="fill:#bfd9d0;fill-rule:nonzero;"/><path d="M1152.12,869.247l34.125,108.6l105.062,-43.56l-34.124,-108.6l-105.063,43.56Zm32.031,113.15l-36.187,-115.103l111.343,-46.157l36.157,115.101l-111.313,46.159Z" style="fill:#bfd9d0;fill-rule:nonzero;"/><path d="M1043.94,914.103l34.124,108.603l105.063,-43.559l-34.125,-108.603l-105.062,43.559Zm32,113.15l-36.157,-115.1l111.313,-46.156l36.187,115.1l-111.343,46.156Z" style="fill:#bfd9d0;fill-rule:nonzero;"/><path d="M935.719,958.962l34.156,108.604l105.062,-43.56l-34.156,-108.603l-105.062,43.559Zm32.031,113.15l-36.188,-115.099l111.344,-46.16l36.188,115.103l-111.344,46.156Z" style="fill:#bfd9d0;fill-rule:nonzero;"/><path d="M827.531,1003.82l34.125,108.6l105.063,-43.559l-34.125,-108.601l-105.063,43.56Zm32.032,113.15l-36.188,-115.103l111.312,-46.156l36.188,115.099l-111.312,46.16Z" style="fill:#bfd9d0;fill-rule:nonzero;"/><path d="M719.312,1048.68l34.157,108.603l105.062,-43.559l-34.156,-108.603l-105.063,43.559Zm32.032,113.153l-36.188,-115.103l111.344,-46.156l36.188,115.1l-111.344,46.159Z" style="fill:#bfd9d0;fill-rule:nonzero;"/><path d="M611.125,1093.54l34.134,108.603l105.053,-43.56l-34.125,-108.603l-105.062,43.56Zm32.025,113.15l-36.184,-115.101l111.346,-46.159l36.157,115.103l-111.319,46.157Z" style="fill:#bfd9d0;fill-rule:nonzero;"/><path d="M502.925,1138.4l34.134,108.6l105.066,-43.56l-34.134,-108.599l-105.066,43.559Zm32.025,113.15l-36.184,-115.103l111.334,-46.156l36.184,115.103l-111.334,46.156Z" style="fill:#bfd9d0;fill-rule:nonzero;"/><path d="M1187.28,981.097l34.125,108.603l105.094,-43.563l-34.156,-108.599l-105.063,43.559Zm32.032,113.15l-36.188,-115.1l111.344,-46.156l36.187,115.1l-111.343,46.156Z" style="fill:#bfd9d0;fill-rule:nonzero;"/><path d="M1079.09,1025.96l34.125,108.6l105.062,-43.559l-34.125,-108.6l-105.062,43.559Zm32,113.15l-36.157,-115.1l111.313,-46.159l36.188,115.103l-111.344,46.156Z" style="fill:#bfd9d0;fill-rule:nonzero;"/><path d="M970.875,1070.81l34.156,108.604l105.063,-43.56l-34.156,-108.603l-105.063,43.559Zm32.031,113.15l-36.187,-115.099l111.343,-46.157l36.188,115.1l-111.344,46.156Z" style="fill:#bfd9d0;fill-rule:nonzero;"/><path d="M862.688,1115.67l34.124,108.603l105.063,-43.559l-34.125,-108.604l-105.062,43.56Zm32.031,113.15l-36.188,-115.1l111.344,-46.156l36.156,115.1l-111.312,46.156Z" style="fill:#bfd9d0;fill-rule:nonzero;"/><path d="M754.469,1160.53l34.156,108.6l105.062,-43.559l-34.124,-108.6l-105.094,43.559Zm32.031,113.15l-36.188,-115.1l111.344,-46.159l36.188,115.103l-111.344,46.156Z" style="fill:#bfd9d0;fill-rule:nonzero;"/><path d="M646.284,1205.39l34.122,108.6l105.063,-43.56l-34.125,-108.6l-105.06,43.56Zm32.028,113.15l-36.187,-115.104l111.344,-46.156l36.184,115.1l-111.341,46.16Z" style="fill:#bfd9d0;fill-rule:nonzero;"/><path d="M538.084,1250.25l34.132,108.6l105.065,-43.556l-34.131,-108.603l-105.066,43.559Zm32.022,113.15l-36.181,-115.1l111.334,-46.156l36.178,115.103l-111.331,46.153Z" style="fill:#bfd9d0;fill-rule:nonzero;"/><path d="M720.625,1012.88c16.406,69.372 74.719,99.457 130.281,67.194c55.532,-32.259 87.25,-114.647 70.813,-184.016c-16.407,-69.371 -74.719,-99.456 -130.25,-67.193c-55.531,32.256 -87.25,114.647 -70.844,184.015Z" style="fill:url(#_Linear3);"/><path d="M868.281,882.059c-4,15.147 -8.031,30.297 -12.031,45.447c-6.406,24.16 -12.781,48.322 -19.188,72.485c-1.468,5.565 -2.968,11.134 -4.437,16.7c4.406,-1.157 8.781,-2.316 13.156,-3.475c-20.375,-16.61 -40.781,-33.222 -61.159,-49.832c-2.872,-2.343 -5.747,-4.684 -8.625,-7.025c-3.309,-2.684 -7.903,-3.225 -11.153,0c-2.75,2.772 -3.316,8.435 -0,11.135c20.406,16.612 40.812,33.222 61.187,49.834c2.875,2.341 5.75,4.681 8.625,7.025c4.406,3.6 11.532,2.706 13.157,-3.475c4.031,-15.15 8.031,-30.297 12.031,-45.447c6.406,-24.162 12.812,-48.322 19.187,-72.484c1.469,-5.569 2.969,-11.134 4.438,-16.703c2.594,-9.806 -12.594,-13.988 -15.188,-4.185Z" style="fill:#fff;fill-rule:nonzero;"/><path d="M1738.16,2246.96c-2.187,0 -4.219,-1.453 -4.843,-3.55l7.718,2.625c-0.906,0.641 -1.906,0.925 -2.875,0.925Zm30.438,-22.106l-28.875,-9.8l8.656,-34.506c0.687,-4.066 2.25,-8.053 4.844,-11.616l62.406,-85.856c32.156,-3.678 61.813,-11.747 85.469,-23.856l-102.938,141.606c-1.187,1.622 -2.531,3.066 -3.968,4.353c-0.938,0.834 -1.938,1.575 -2.938,2.263l-22.656,17.412Zm183.844,-236.278c-1.844,-17.525 -12.626,-34.991 -31.407,-50.469l65.344,-89.878l54.625,18.538l-88.562,121.809Zm97.593,-134.238l-54.625,-18.537l19,-26.134l54.625,18.54l-19,26.131Zm28.031,-38.562l-54.624,-18.538l18.999,-26.137l54.626,18.54l-19.001,26.135Zm28.032,-38.563l-54.625,-18.537l33.968,-46.734c5.438,-7.46 14,-11.441 22.657,-11.441c5.562,-0 11.187,1.653 16.031,5.087c12.344,8.772 15.156,25.985 6.25,38.247l-24.281,33.378Z" style="fill:#d4d3d4;fill-rule:nonzero;"/><path d="M1815.62,2083.07l105.406,-144.969c18.781,15.478 29.563,32.944 31.407,50.469l-51.344,70.644c-23.656,12.109 -53.313,20.178 -85.469,23.856Z" style="fill:#9a938d;fill-rule:nonzero;"/><path d="M2097.06,1789.64l-54.626,-18.54l9.032,-12.425l54.625,18.537l-9.031,12.428Z" style="fill:#a2b9b4;fill-rule:nonzero;"/><path d="M2069.03,1828.2l-54.625,-18.54l9.032,-12.429l54.624,18.538l-9.031,12.431Z" style="fill:#a2b9b4;fill-rule:nonzero;"/><path d="M2041,1866.76l-54.625,-18.538l9.031,-12.428l54.625,18.537l-9.031,12.429Z" style="fill:#a2b9b4;fill-rule:nonzero;"/><path d="M1741.03,2246.03l-7.718,-2.625c-0.251,-0.806 -0.313,-1.706 -0.063,-2.656l6.469,-25.7l28.875,9.8l-27.344,21.028c-0.062,0.053 -0.156,0.106 -0.219,0.153Z" style="fill:#a2b9b4;fill-rule:nonzero;"/><path d="M1556.78,1439.26c-46.593,-31.081 -129.406,-34.562 -184.969,-7.775c-55.562,26.788 -62.843,73.704 -16.281,104.785c46.594,31.081 129.407,34.562 185,7.775c55.563,-26.791 62.844,-73.7 16.25,-104.785Z" style="fill:#202936;fill-rule:nonzero;"/><path d="M1806.62,1500.38c-41.656,-24.269 -119.5,-25.787 -173.813,-3.394c-54.343,22.397 -64.625,60.225 -22.968,84.491c41.687,24.269 119.5,25.784 173.844,3.391c54.343,-22.394 64.624,-60.219 22.937,-84.488Z" style="fill:#202936;fill-rule:nonzero;"/><path d="M1797.84,1489.99c1.125,4.837 -0.531,41.209 -2.657,46.45c-3.968,16.675 -18.281,32.622 -42.625,44.518c-53.406,26.113 -134.656,22.882 -181.531,-7.212c-21.844,-14.031 -33.75,-28.4 -34.25,-46.506c-0.781,-9.788 -1.375,-37.125 -1.375,-37.125c1.625,-5.994 8.625,0.156 12.938,-5.466c7.125,-11.075 19.187,-21.315 36.094,-29.591c53.406,-26.112 134.687,-22.881 181.531,7.216c19.719,12.672 30.343,12.163 31.875,27.716Z" style="fill:#f0b037;fill-rule:nonzero;"/><path d="M1767.34,1442.94c-46.594,-31.081 -129.406,-34.559 -184.969,-7.771c-55.563,26.787 -62.844,73.7 -16.281,104.781c46.594,31.081 129.406,34.565 185,7.775c55.562,-26.788 62.843,-73.703 16.25,-104.785Z" style="fill:#fff;fill-rule:nonzero;"/><path d="M1767.31,1438.89c-46.594,-31.082 -129.407,-34.56 -185.001,-7.772c-55.562,26.787 -62.843,73.7 -16.249,104.781c46.593,31.084 129.406,34.566 184.968,7.778c55.594,-26.791 62.875,-73.703 16.282,-104.787Z" style="fill:#ffd482;fill-rule:nonzero;"/><path d="M1736.91,1451.53c-32.562,-21.728 -90.469,-24.162 -129.312,-5.434c-38.844,18.725 -43.938,51.522 -11.375,73.25c32.562,21.728 90.468,24.163 129.312,5.438c38.844,-18.732 43.938,-51.525 11.375,-73.254Z" style="fill:#fff;fill-rule:nonzero;"/><path d="M1607.66,1452.46c38.844,-18.728 96.75,-16.293 129.313,5.435c13,8.662 19.968,19.084 21.25,29.669c1.219,-12.71 -5.719,-25.638 -21.313,-36.032c-32.562,-21.728 -90.469,-24.162 -129.312,-5.434c-23.375,11.259 -34.5,27.613 -32.594,43.581c1.313,-13.853 12.406,-27.45 32.656,-37.219Z" style="fill:#f2c97b;fill-rule:nonzero;"/><path d="M1626.16,1502.94c-5.5,-4.507 -10.031,-10.879 -10.156,-16.632l18.094,-1.275c1.125,5.744 3.562,9.957 8.687,13.297c6,3.897 11.282,4.303 16.5,1.641c11.719,-5.956 -16.75,-24.2 3.719,-34.613c11.156,-5.665 25.094,-5.565 37.281,-0.128l11.719,-5.956l10.375,6.744l-11.469,5.84c5.813,4.972 7.094,10.022 6.594,15.107l-17.469,-0.288c-0.094,-4.412 -1.468,-7.553 -5.969,-10.472c-5.125,-3.34 -10.062,-4.047 -15.187,-1.443c-10.781,5.493 18.344,23.39 -3.375,34.437c-10.906,5.556 -25,6.147 -38.5,0.256l-11.812,6.016l-10.376,-6.744l11.344,-5.787Z" style="fill:#ffd482;fill-rule:nonzero;"/><path d="M1668.44,1567.06l0.687,31.572c-0,0.569 0.469,1.022 1.062,1.01c0.563,-0.013 1.001,-0.485 1.001,-1.056l-0.688,-31.569c0,-0.572 -0.469,-1.022 -1.063,-1.013c-0.562,0.013 -0.999,0.488 -0.999,1.056Z" style="fill:#ffd482;fill-rule:nonzero;"/><path d="M1702.19,1564.33l0.469,30.716c0,0.572 0.469,1.025 1.063,1.019c0.562,-0.01 1,-0.478 1,-1.05l-0.469,-30.716c-0,-0.572 -0.469,-1.025 -1.031,-1.019c-0.594,0.01 -1.032,0.478 -1.032,1.05Z" style="fill:#ffd482;fill-rule:nonzero;"/><path d="M1734.22,1556.22l0.437,30.715c0.031,0.572 0.5,1.028 1.063,1.019c0.562,-0.009 1.031,-0.478 1.031,-1.05l-0.469,-30.716c-0.031,-0.568 -0.5,-1.025 -1.062,-1.015c-0.563,0.006 -1.032,0.478 -1,1.047Z" style="fill:#ffd482;fill-rule:nonzero;"/><path d="M1762.84,1542.78l0.437,28.325c0,0.569 0.469,1.025 1.063,1.019c0.562,-0.009 1,-0.481 1,-1.05l-0.438,-28.325c0,-0.569 -0.469,-1.025 -1.031,-1.016c-0.562,0.01 -1.031,0.479 -1.031,1.047Z" style="fill:#ffd482;fill-rule:nonzero;"/><path d="M1786.22,1522.61l-0.344,28.791c-0.031,0.572 0.437,1.037 1,1.047c0.594,0.006 1.063,-0.45 1.063,-1.022l0.343,-28.791c0,-0.569 -0.469,-1.037 -1.031,-1.044c-0.563,-0.009 -1.031,0.451 -1.031,1.019Z" style="fill:#ffd482;fill-rule:nonzero;"/><path d="M1633.06,1565.09l0.219,30.718c0,0.572 0.469,1.032 1.031,1.029c0.563,-0.007 1.032,-0.472 1.032,-1.041l-0.219,-30.719c-0,-0.572 -0.469,-1.031 -1.031,-1.028c-0.563,0.006 -1.032,0.472 -1.032,1.041Z" style="fill:#ffd482;fill-rule:nonzero;"/><path d="M1600.88,1557.68l0.219,30.719c-0,0.572 0.468,1.031 1.031,1.028c0.562,-0.006 1.031,-0.472 1.031,-1.041l-0.219,-30.718c0,-0.572 -0.468,-1.032 -1.031,-1.028c-0.562,0.006 -1.031,0.472 -1.031,1.04Z" style="fill:#ffd482;fill-rule:nonzero;"/><path d="M1571.94,1544.89l0.187,28.325c-0,0.571 0.469,1.031 1.063,1.025c0.562,-0.004 1.031,-0.469 0.999,-1.041l-0.187,-28.325c0,-0.572 -0.469,-1.031 -1.031,-1.025c-0.594,0.003 -1.031,0.469 -1.031,1.041Z" style="fill:#ffd482;fill-rule:nonzero;"/><path d="M1548.16,1525.28l0.969,28.775c0.031,0.572 0.5,1.019 1.063,0.997c0.562,-0.019 1.031,-0.497 1,-1.065l-0.969,-28.775c-0.031,-0.572 -0.5,-1.019 -1.063,-0.997c-0.593,0.019 -1.031,0.497 -1,1.065Z" style="fill:#ffd482;fill-rule:nonzero;"/><path d="M1716.94,1337.89c1.156,4.837 -0.5,41.209 -2.626,46.447c-3.999,16.675 -18.281,32.621 -42.625,44.518c-53.406,26.116 -134.687,22.885 -181.531,-7.212c-21.844,-14.028 -33.781,-28.397 -34.25,-46.506c-0.812,-9.788 -1.406,-37.122 -1.406,-37.122c1.656,-5.994 8.656,0.159 12.969,-5.469c7.125,-11.075 19.156,-21.313 36.094,-29.591c53.406,-26.109 134.656,-22.881 181.531,7.216c19.719,12.675 30.312,12.162 31.844,27.719Z" style="fill:#f0b037;fill-rule:nonzero;"/><path d="M1686.47,1290.83c-46.594,-31.081 -129.406,-34.562 -184.969,-7.775c-55.594,26.788 -62.875,73.7 -16.281,104.782c46.594,31.084 129.406,34.565 184.968,7.778c55.594,-26.791 62.875,-73.703 16.282,-104.785Z" style="fill:#fff;fill-rule:nonzero;"/><path d="M1686.44,1286.78c-46.594,-31.081 -129.407,-34.562 -185.001,-7.775c-55.562,26.788 -62.843,73.7 -16.249,104.782c46.593,31.084 129.406,34.565 184.968,7.778c55.563,-26.791 62.844,-73.697 16.282,-104.785Z" style="fill:#ffd482;fill-rule:nonzero;"/><path d="M1656.03,1299.43c-32.562,-21.728 -90.469,-24.159 -129.312,-5.434c-38.844,18.728 -43.938,51.522 -11.375,73.25c32.562,21.731 90.468,24.165 129.312,5.437c38.844,-18.725 43.938,-51.522 11.375,-73.253Z" style="fill:#fff;fill-rule:nonzero;"/><path d="M1526.78,1300.36c38.844,-18.725 96.75,-16.294 129.313,5.435c12.968,8.665 19.968,19.087 21.25,29.675c1.219,-12.713 -5.75,-25.644 -21.313,-36.038c-32.562,-21.728 -90.469,-24.159 -129.312,-5.434c-23.375,11.262 -34.532,27.612 -32.625,43.581c1.344,-13.853 12.437,-27.45 32.687,-37.219Z" style="fill:#f2c97b;fill-rule:nonzero;"/><path d="M1545.28,1350.84c-5.5,-4.51 -10.031,-10.879 -10.187,-16.635l18.125,-1.275c1.125,5.744 3.562,9.963 8.687,13.297c6,3.897 11.282,4.303 16.5,1.641c11.719,-5.957 -16.75,-24.2 3.719,-34.61c11.125,-5.668 25.063,-5.569 37.281,-0.131l11.719,-5.956l10.375,6.747l-11.5,5.837c5.844,4.972 7.125,10.022 6.625,15.11l-17.469,-0.291c-0.094,-4.413 -1.468,-7.55 -5.969,-10.469c-5.125,-3.34 -10.062,-4.05 -15.187,-1.447c-10.812,5.497 18.344,23.391 -3.375,34.438c-10.906,5.556 -25,6.15 -38.5,0.256l-11.844,6.016l-10.375,-6.744l11.375,-5.784Z" style="fill:#ffd482;fill-rule:nonzero;"/><path d="M1587.56,1414.96l0.656,31.569c0.031,0.569 0.5,1.022 1.062,1.01c0.594,-0.013 1.032,-0.485 1.032,-1.054l-0.688,-31.568c-0.031,-0.569 -0.5,-1.022 -1.063,-1.01c-0.562,0.013 -1.031,0.485 -0.999,1.053Z" style="fill:#ffd482;fill-rule:nonzero;"/><path d="M1621.31,1412.23l0.469,30.716c0,0.572 0.469,1.028 1.032,1.019c0.593,-0.01 1.031,-0.479 1.031,-1.05l-0.469,-30.716c-0,-0.572 -0.469,-1.025 -1.062,-1.019c-0.563,0.01 -1.001,0.481 -1.001,1.05Z" style="fill:#ffd482;fill-rule:nonzero;"/><path d="M1653.31,1404.11l0.468,30.722c0,0.569 0.469,1.025 1.063,1.016c0.562,-0.01 1.031,-0.478 1,-1.047l-0.438,-30.722c-0.031,-0.569 -0.5,-1.025 -1.062,-1.015c-0.563,0.009 -1.031,0.478 -1.031,1.046Z" style="fill:#ffd482;fill-rule:nonzero;"/><path d="M1681.97,1390.68l0.437,28.322c0,0.572 0.469,1.025 1.031,1.019c0.594,-0.01 1.032,-0.478 1.032,-1.05l-0.438,-28.322c0,-0.572 -0.469,-1.028 -1.031,-1.019c-0.594,0.01 -1.031,0.478 -1.031,1.05Z" style="fill:#ffd482;fill-rule:nonzero;"/><path d="M1705.31,1370.5l-0.312,28.791c-0.031,0.571 0.437,1.04 1,1.047c0.562,0.006 1.031,-0.451 1.063,-1.022l0.312,-28.791c0.031,-0.569 -0.438,-1.038 -1,-1.044c-0.563,-0.006 -1.031,0.45 -1.063,1.019Z" style="fill:#ffd482;fill-rule:nonzero;"/><path d="M1552.19,1412.99l0.219,30.718c0,0.569 0.469,1.028 1.031,1.025c0.563,-0.003 1.032,-0.468 1.032,-1.04l-0.219,-30.719c-0,-0.572 -0.469,-1.031 -1.062,-1.025c-0.563,0.003 -1.001,0.469 -1.001,1.041Z" style="fill:#ffd482;fill-rule:nonzero;"/><path d="M1520,1405.58l0.219,30.722c-0,0.569 0.468,1.028 1.031,1.025c0.562,-0.003 1.031,-0.472 1.031,-1.041l-0.218,-30.719c-0,-0.571 -0.469,-1.031 -1.032,-1.025c-0.593,0.004 -1.031,0.469 -1.031,1.038Z" style="fill:#ffd482;fill-rule:nonzero;"/><path d="M1491.06,1392.78l0.187,28.325c-0,0.572 0.469,1.032 1.031,1.025c0.594,-0.003 1.031,-0.468 1.031,-1.037l-0.187,-28.328c0,-0.569 -0.469,-1.029 -1.031,-1.025c-0.594,0.003 -1.031,0.468 -1.031,1.04Z" style="fill:#ffd482;fill-rule:nonzero;"/><path d="M1467.25,1373.18l1,28.778c-0,0.572 0.5,1.019 1.063,1c0.562,-0.022 0.999,-0.5 0.999,-1.068l-0.999,-28.779c-0,-0.571 -0.469,-1.015 -1.063,-0.997c-0.562,0.019 -1,0.497 -1,1.066Z" style="fill:#ffd482;fill-rule:nonzero;"/><path d="M1716.34,1283.38c1.125,4.835 -0.5,41.21 -2.656,46.45c-3.969,16.675 -18.282,32.616 -42.594,44.519c-53.406,26.11 -134.688,22.881 -181.531,-7.215c-21.844,-14.029 -33.782,-28.401 -34.251,-46.507c-0.812,-9.784 -1.406,-37.122 -1.406,-37.122c1.657,-5.993 8.625,0.154 12.969,-5.468c7.125,-11.075 19.156,-21.313 36.094,-29.591c53.375,-26.112 134.656,-22.881 181.5,7.216c19.75,12.675 30.343,12.165 31.875,27.718Z" style="fill:#f0b037;fill-rule:nonzero;"/><path d="M1685.88,1236.33c-46.594,-31.081 -129.406,-34.562 -185,-7.775c-55.563,26.788 -62.844,73.703 -16.25,104.788c46.594,31.078 129.406,34.556 184.969,7.772c55.562,-26.791 62.844,-73.704 16.281,-104.785Z" style="fill:#fff;fill-rule:nonzero;"/><path d="M1685.81,1232.28c-46.593,-31.081 -129.406,-34.562 -184.968,-7.775c-55.563,26.788 -62.844,73.703 -16.281,104.785c46.593,31.081 129.406,34.562 185,7.771c55.562,-26.787 62.843,-73.7 16.249,-104.781Z" style="fill:#ffd482;fill-rule:nonzero;"/><path d="M1655.44,1244.92c-32.593,-21.728 -90.468,-24.163 -129.343,-5.435c-38.844,18.729 -43.938,51.522 -11.344,73.257c32.563,21.728 90.438,24.162 129.312,5.431c38.844,-18.728 43.938,-51.522 11.375,-73.253Z" style="fill:#fff;fill-rule:nonzero;"/><path d="M1526.19,1245.85c38.843,-18.725 96.749,-16.294 129.312,5.437c12.969,8.663 19.969,19.082 21.219,29.666c1.25,-12.706 -5.719,-25.634 -21.282,-36.031c-32.593,-21.728 -90.468,-24.163 -129.343,-5.435c-23.344,11.263 -34.5,27.613 -32.594,43.585c1.344,-13.856 12.406,-27.453 32.688,-37.222Z" style="fill:#f2c97b;fill-rule:nonzero;"/><path d="M1544.69,1296.33c-5.532,-4.506 -10.063,-10.878 -10.188,-16.634l18.094,-1.275c1.156,5.744 3.562,9.959 8.718,13.3c5.969,3.894 11.25,4.3 16.501,1.641c11.718,-5.957 -16.75,-24.204 3.718,-34.613c11.125,-5.669 25.063,-5.569 37.282,-0.131l11.718,-5.957l10.375,6.744l-11.5,5.841c5.813,4.975 7.094,10.025 6.625,15.109l-17.469,-0.29c-0.093,-4.413 -1.5,-7.55 -5.968,-10.472c-5.156,-3.338 -10.094,-4.047 -15.188,-1.444c-10.812,5.494 18.344,23.394 -3.375,34.441c-10.937,5.55 -25,6.146 -38.531,0.253l-11.813,6.018l-10.374,-6.746l11.375,-5.785Z" style="fill:#ffd482;fill-rule:nonzero;"/><path d="M1586.94,1360.45l0.688,31.569c0.031,0.572 0.5,1.025 1.063,1.012c0.562,-0.012 1.031,-0.484 0.999,-1.056l-0.656,-31.569c-0.031,-0.571 -0.5,-1.025 -1.062,-1.012c-0.563,0.012 -1.032,0.484 -1.032,1.056Z" style="fill:#ffd482;fill-rule:nonzero;"/><path d="M1620.72,1357.73l0.437,30.716c0.032,0.568 0.5,1.025 1.063,1.015c0.562,-0.006 1.031,-0.478 1.031,-1.047l-0.469,-30.715c-0.031,-0.572 -0.5,-1.028 -1.062,-1.019c-0.563,0.009 -1.032,0.478 -1,1.05Z" style="fill:#ffd482;fill-rule:nonzero;"/><path d="M1652.72,1349.61l0.469,30.716c-0,0.572 0.468,1.025 1.031,1.019c0.594,-0.01 1.031,-0.478 1.031,-1.05l-0.469,-30.716c0,-0.572 -0.468,-1.025 -1.031,-1.019c-0.594,0.01 -1.031,0.478 -1.031,1.05Z" style="fill:#ffd482;fill-rule:nonzero;"/><path d="M1681.38,1336.17l0.438,28.325c-0,0.569 0.468,1.025 1.031,1.015c0.562,-0.009 1.031,-0.478 1.031,-1.046l-0.438,-28.325c0,-0.569 -0.468,-1.025 -1.062,-1.016c-0.562,0.006 -1,0.478 -1,1.047Z" style="fill:#ffd482;fill-rule:nonzero;"/><path d="M1704.72,1315.99l-0.344,28.794c0,0.571 0.469,1.037 1.031,1.043c0.563,0.01 1.032,-0.45 1.032,-1.015l0.343,-28.797c0,-0.572 -0.437,-1.038 -1,-1.047c-0.593,-0.006 -1.062,0.45 -1.062,1.022Z" style="fill:#ffd482;fill-rule:nonzero;"/><path d="M1551.56,1358.48l0.218,30.719c0,0.572 0.469,1.031 1.063,1.028c0.562,-0.006 1.031,-0.472 1,-1.041l-0.188,-30.721c-0.031,-0.569 -0.468,-1.029 -1.062,-1.025c-0.563,0.006 -1.032,0.471 -1.032,1.04Z" style="fill:#ffd482;fill-rule:nonzero;"/><path d="M1519.38,1351.07l0.219,30.719c0.031,0.571 0.469,1.031 1.062,1.025c0.563,-0.004 1.031,-0.469 1.031,-1.041l-0.218,-30.719c-0.032,-0.568 -0.469,-1.028 -1.063,-1.025c-0.562,0.003 -1.031,0.469 -1.031,1.041Z" style="fill:#ffd482;fill-rule:nonzero;"/><path d="M1490.44,1338.28l0.219,28.328c0,0.569 0.469,1.028 1.031,1.025c0.563,-0.003 1.032,-0.469 1.032,-1.04l-0.219,-28.322c-0,-0.575 -0.469,-1.035 -1.031,-1.032c-0.563,0.007 -1.032,0.472 -1.032,1.041Z" style="fill:#ffd482;fill-rule:nonzero;"/><path d="M1466.66,1318.67l0.969,28.781c0.031,0.566 0.5,1.013 1.094,0.994c0.562,-0.019 1,-0.497 0.969,-1.066l-0.969,-28.778c-0,-0.569 -0.5,-1.019 -1.063,-1c-0.562,0.022 -1,0.497 -1,1.069Z" style="fill:#ffd482;fill-rule:nonzero;"/><path d="M1715.72,1225.15c1.125,4.838 -0.532,41.212 -2.656,46.45c-3.969,16.675 -18.282,32.622 -42.625,44.522c-53.407,26.112 -134.657,22.878 -181.532,-7.216c-21.844,-14.031 -33.781,-28.397 -34.25,-46.506c-0.781,-9.788 -1.406,-37.125 -1.406,-37.125c1.656,-5.994 8.656,0.156 12.969,-5.466c7.125,-11.075 19.187,-21.315 36.093,-29.59c53.407,-26.11 134.657,-22.882 181.532,7.215c19.719,12.675 30.344,12.163 31.875,27.716Z" style="fill:#f0b037;fill-rule:nonzero;"/><path d="M1685.22,1178.1c-46.594,-31.084 -129.407,-34.563 -184.969,-7.775c-55.594,26.787 -62.875,73.7 -16.281,104.781c46.594,31.081 129.406,34.566 185,7.775c55.562,-26.787 62.844,-73.7 16.25,-104.781Z" style="fill:#fff;fill-rule:nonzero;"/><path d="M1685.19,1174.05c-46.594,-31.085 -129.407,-34.563 -185,-7.775c-55.563,26.787 -62.844,73.7 -16.251,104.784c46.594,31.081 129.407,34.563 184.969,7.775c55.563,-26.79 62.844,-73.703 16.282,-104.784Z" style="fill:#ffd482;fill-rule:nonzero;"/><path d="M1654.78,1186.69c-32.562,-21.728 -90.469,-24.163 -129.312,-5.435c-38.844,18.728 -43.938,51.522 -11.375,73.25c32.562,21.728 90.468,24.166 129.312,5.438c38.844,-18.728 43.938,-51.525 11.375,-73.253Z" style="fill:#fff;fill-rule:nonzero;"/><path d="M1525.53,1187.62c38.844,-18.728 96.75,-16.294 129.313,5.437c13,8.66 19.968,19.081 21.25,29.666c1.218,-12.706 -5.719,-25.635 -21.313,-36.031c-32.562,-21.728 -90.469,-24.163 -129.312,-5.435c-23.375,11.263 -34.5,27.613 -32.625,43.585c1.344,-13.857 12.437,-27.453 32.687,-37.222Z" style="fill:#f2c97b;fill-rule:nonzero;"/><path d="M1544.03,1238.1c-5.5,-4.509 -10.031,-10.881 -10.187,-16.634l18.125,-1.275c1.125,5.743 3.562,9.959 8.687,13.297c6,3.896 11.282,4.303 16.5,1.643c11.719,-5.959 -16.75,-24.203 3.719,-34.615c11.156,-5.666 25.094,-5.566 37.281,-0.128l11.719,-5.957l10.375,6.744l-11.469,5.844c5.813,4.968 7.094,10.022 6.594,15.106l-17.469,-0.291c-0.094,-4.412 -1.468,-7.55 -5.969,-10.472c-5.124,-3.337 -10.062,-4.046 -15.187,-1.443c-10.813,5.494 18.344,23.39 -3.375,34.44c-10.906,5.553 -25,6.147 -38.5,0.254l-11.844,6.015l-10.344,-6.744l11.344,-5.784Z" style="fill:#ffd482;fill-rule:nonzero;"/><path d="M1586.31,1302.22l0.688,31.569c-0,0.568 0.469,1.022 1.031,1.009c0.594,-0.009 1.031,-0.481 1.031,-1.056l-0.687,-31.566c0,-0.572 -0.5,-1.022 -1.063,-1.012c-0.562,0.012 -1.031,0.487 -1,1.056Z" style="fill:#ffd482;fill-rule:nonzero;"/><path d="M1620.06,1299.49l0.468,30.715c0,0.572 0.469,1.025 1.032,1.019c0.593,-0.009 1.031,-0.475 1.031,-1.05l-0.469,-30.715c-0,-0.572 -0.469,-1.025 -1.031,-1.019c-0.594,0.009 -1.031,0.478 -1.031,1.05Z" style="fill:#ffd482;fill-rule:nonzero;"/><path d="M1652.09,1291.37l0.437,30.715c0.031,0.572 0.5,1.029 1.063,1.019c0.562,-0.009 1.031,-0.475 1,-1.05l-0.438,-30.715c-0.031,-0.569 -0.5,-1.025 -1.062,-1.016c-0.563,0.006 -1.031,0.478 -1,1.047Z" style="fill:#ffd482;fill-rule:nonzero;"/><path d="M1680.72,1277.94l0.437,28.325c0,0.568 0.469,1.025 1.032,1.018c0.593,-0.009 1.031,-0.478 1.031,-1.05l-0.438,-28.325c0,-0.568 -0.469,-1.025 -1.031,-1.015c-0.563,0.009 -1.031,0.478 -1.031,1.047Z" style="fill:#ffd482;fill-rule:nonzero;"/><path d="M1704.09,1257.76l-0.344,28.79c-0.031,0.572 0.437,1.038 1,1.047c0.562,0.006 1.031,-0.45 1.062,-1.022l0.344,-28.79c0,-0.569 -0.469,-1.038 -1.031,-1.044c-0.563,-0.01 -1.031,0.45 -1.031,1.019Z" style="fill:#ffd482;fill-rule:nonzero;"/><path d="M1550.94,1300.25l0.218,30.719c0,0.572 0.469,1.031 1.031,1.028c0.563,-0.003 1.032,-0.472 1.032,-1.038l-0.219,-30.722c-0,-0.572 -0.469,-1.031 -1.031,-1.028c-0.594,0.006 -1.031,0.472 -1.031,1.041Z" style="fill:#ffd482;fill-rule:nonzero;"/><path d="M1518.75,1292.84l0.219,30.721c-0,0.569 0.468,1.029 1.031,1.025c0.562,-0.006 1.031,-0.471 1.031,-1.04l-0.218,-30.719c-0,-0.572 -0.469,-1.031 -1.032,-1.028c-0.593,0.006 -1.031,0.472 -1.031,1.041Z" style="fill:#ffd482;fill-rule:nonzero;"/><path d="M1489.81,1280.04l0.188,28.325c0,0.572 0.469,1.031 1.063,1.025c0.562,-0.003 0.999,-0.469 0.999,-1.041l-0.187,-28.325c0,-0.572 -0.469,-1.031 -1.031,-1.025c-0.594,0.003 -1.032,0.469 -1.032,1.041Z" style="fill:#ffd482;fill-rule:nonzero;"/><path d="M1466.03,1260.44l0.969,28.778c-0,0.572 0.5,1.019 1.063,0.997c0.562,-0.019 1.031,-0.497 0.999,-1.066l-0.968,-28.778c-0.031,-0.572 -0.5,-1.019 -1.094,-0.997c-0.562,0.019 -1,0.497 -0.969,1.066Z" style="fill:#ffd482;fill-rule:nonzero;"/><path d="M1715.09,1170.19c1.125,4.837 -0.5,41.212 -2.657,46.449c-3.968,16.675 -18.281,32.619 -42.625,44.519c-53.374,26.113 -134.656,22.885 -181.499,-7.212c-21.844,-14.031 -33.782,-28.4 -34.25,-46.506c-0.813,-9.788 -1.407,-37.126 -1.407,-37.126c1.657,-5.993 8.625,0.157 12.969,-5.468c7.125,-11.075 19.156,-21.31 36.094,-29.588c53.375,-26.112 134.656,-22.881 181.5,7.216c19.75,12.675 30.343,12.162 31.875,27.716Z" style="fill:#f0b037;fill-rule:nonzero;"/><path d="M1684.62,1123.13c-46.594,-31.081 -129.406,-34.562 -185,-7.775c-55.563,26.791 -62.844,73.703 -16.25,104.785c46.594,31.084 129.406,34.562 184.969,7.775c55.562,-26.788 62.843,-73.7 16.281,-104.785Z" style="fill:#fff;fill-rule:nonzero;"/><path d="M1684.56,1119.08c-46.594,-31.081 -129.407,-34.562 -184.969,-7.772c-55.563,26.788 -62.844,73.7 -16.281,104.782c46.593,31.084 129.406,34.562 184.999,7.775c55.563,-26.788 62.844,-73.7 16.251,-104.785Z" style="fill:#ffd482;fill-rule:nonzero;"/><path d="M1654.16,1131.73c-32.562,-21.728 -90.437,-24.162 -129.312,-5.434c-38.844,18.725 -43.938,51.522 -11.344,73.25c32.562,21.731 90.438,24.162 129.312,5.437c38.844,-18.728 43.938,-51.525 11.344,-73.253Z" style="fill:#fff;fill-rule:nonzero;"/><path d="M1524.94,1132.66c38.844,-18.728 96.75,-16.293 129.313,5.435c12.969,8.662 19.969,19.081 21.219,29.672c1.25,-12.71 -5.719,-25.641 -21.313,-36.035c-32.562,-21.728 -90.437,-24.162 -129.312,-5.434c-23.344,11.262 -34.5,27.609 -32.594,43.581c1.344,-13.856 12.406,-27.45 32.687,-37.219Z" style="fill:#f2c97b;fill-rule:nonzero;"/><path d="M1543.44,1183.14c-5.532,-4.51 -10.063,-10.882 -10.188,-16.635l18.094,-1.278c1.125,5.744 3.562,9.962 8.718,13.3c5.969,3.894 11.25,4.303 16.5,1.641c11.719,-5.957 -16.749,-24.2 3.719,-34.61c11.125,-5.672 25.063,-5.568 37.281,-0.131l11.719,-5.959l10.375,6.747l-11.5,5.84c5.813,4.972 7.094,10.022 6.625,15.106l-17.468,-0.287c-0.094,-4.413 -1.5,-7.553 -5.969,-10.472c-5.157,-3.338 -10.094,-4.047 -15.188,-1.444c-10.812,5.494 18.344,23.391 -3.375,34.438c-10.906,5.553 -25,6.147 -38.531,0.256l-11.813,6.016l-10.374,-6.744l11.375,-5.784Z" style="fill:#ffd482;fill-rule:nonzero;"/><path d="M1585.69,1247.26l0.687,31.572c0.031,0.569 0.5,1.022 1.062,1.01c0.563,-0.013 1.032,-0.485 1.001,-1.054l-0.657,-31.571c-0.031,-0.572 -0.5,-1.022 -1.062,-1.01c-0.563,0.013 -1.031,0.485 -1.031,1.053Z" style="fill:#ffd482;fill-rule:nonzero;"/><path d="M1619.47,1244.53l0.437,30.713c0.032,0.572 0.5,1.025 1.063,1.018c0.562,-0.009 1.031,-0.478 1.031,-1.05l-0.469,-30.712c-0.031,-0.572 -0.5,-1.028 -1.062,-1.019c-0.563,0.01 -1.032,0.478 -1,1.05Z" style="fill:#ffd482;fill-rule:nonzero;"/><path d="M1651.47,1236.41l0.468,30.716c0,0.572 0.469,1.028 1.032,1.019c0.594,-0.01 1.031,-0.478 1.031,-1.047l-0.469,-30.719c0,-0.569 -0.469,-1.025 -1.031,-1.015c-0.594,0.009 -1.031,0.478 -1.031,1.046Z" style="fill:#ffd482;fill-rule:nonzero;"/><path d="M1680.12,1222.98l0.406,28.325c0.032,0.572 0.5,1.025 1.063,1.019c0.562,-0.01 1.031,-0.478 1.031,-1.05l-0.437,-28.325c-0,-0.569 -0.469,-1.025 -1.063,-1.019c-0.562,0.01 -1,0.478 -1,1.05Z" style="fill:#ffd482;fill-rule:nonzero;"/><path d="M1703.47,1202.8l-0.344,28.791c0,0.571 0.469,1.04 1.031,1.046c0.563,0.007 1.032,-0.45 1.032,-1.021l0.343,-28.791c0,-0.572 -0.437,-1.041 -1,-1.047c-0.593,-0.006 -1.062,0.45 -1.062,1.022Z" style="fill:#ffd482;fill-rule:nonzero;"/><path d="M1550.31,1245.28l0.219,30.722c0,0.569 0.469,1.028 1.063,1.025c0.562,-0.003 1.031,-0.469 1,-1.04l-0.188,-30.722c-0.031,-0.569 -0.5,-1.028 -1.062,-1.025c-0.563,0.003 -1.032,0.469 -1.032,1.04Z" style="fill:#ffd482;fill-rule:nonzero;"/><path d="M1518.12,1237.88l0.219,30.722c-0,0.569 0.469,1.028 1.062,1.025c0.563,-0.006 1.032,-0.472 1,-1.041l-0.187,-30.719c-0.032,-0.571 -0.5,-1.031 -1.063,-1.028c-0.562,0.007 -1.031,0.472 -1.031,1.041Z" style="fill:#ffd482;fill-rule:nonzero;"/><path d="M1489.19,1225.08l0.218,28.325c0,0.572 0.469,1.032 1.031,1.025c0.563,-0.003 1.032,-0.468 1.032,-1.04l-0.219,-28.325c-0,-0.572 -0.469,-1.032 -1.031,-1.025c-0.563,0.003 -1.031,0.468 -1.031,1.04Z" style="fill:#ffd482;fill-rule:nonzero;"/><path d="M1465.41,1205.48l0.969,28.778c0.031,0.569 0.5,1.016 1.094,0.997c0.562,-0.019 1,-0.497 0.969,-1.069l-0.969,-28.778c-0,-0.569 -0.5,-1.015 -1.063,-0.997c-0.562,0.019 -1,0.497 -1,1.069Z" style="fill:#ffd482;fill-rule:nonzero;"/><path d="M1515.03,1455.79c1.125,4.837 -0.5,41.215 -2.656,46.453c-3.969,16.675 -18.281,32.619 -42.594,44.518c-53.406,26.113 -134.687,22.882 -181.531,-7.215c-21.844,-14.028 -33.781,-28.397 -34.25,-46.506c-0.812,-9.785 -1.406,-37.122 -1.406,-37.122c1.656,-5.991 8.625,0.153 12.968,-5.469c7.094,-11.072 19.157,-21.312 36.094,-29.588c53.375,-26.112 134.656,-22.884 181.5,7.213c19.75,12.675 30.344,12.166 31.875,27.716Z" style="fill:#f0b037;fill-rule:nonzero;"/><path d="M1484.56,1408.74c-46.594,-31.081 -129.407,-34.562 -185.001,-7.771c-55.562,26.787 -62.843,73.7 -16.249,104.781c46.593,31.081 129.406,34.562 184.968,7.775c55.563,-26.788 62.844,-73.703 16.282,-104.785Z" style="fill:#fff;fill-rule:nonzero;"/><path d="M1484.5,1404.69c-46.594,-31.082 -129.406,-34.563 -184.969,-7.772c-55.562,26.787 -62.844,73.7 -16.281,104.781c46.594,31.081 129.406,34.562 185,7.775c55.562,-26.788 62.844,-73.703 16.25,-104.785Z" style="fill:#ffd482;fill-rule:nonzero;"/><path d="M1454.12,1417.33c-32.594,-21.728 -90.469,-24.165 -129.344,-5.434c-38.843,18.725 -43.937,51.522 -11.343,73.25c32.562,21.728 90.437,24.163 129.312,5.434c38.844,-18.725 43.937,-51.522 11.375,-73.25Z" style="fill:#fff;fill-rule:nonzero;"/><path d="M1324.88,1418.26c38.844,-18.725 96.75,-16.293 129.312,5.435c12.969,8.659 19.969,19.081 21.219,29.669c1.25,-12.71 -5.718,-25.638 -21.312,-36.032c-32.563,-21.728 -90.438,-24.165 -129.313,-5.434c-23.344,11.259 -34.5,27.609 -32.593,43.581c1.343,-13.856 12.406,-27.45 32.687,-37.219Z" style="fill:#f2c97b;fill-rule:nonzero;"/><path d="M1343.38,1468.74c-5.531,-4.507 -10.031,-10.875 -10.188,-16.632l18.094,-1.275c1.157,5.741 3.563,9.957 8.719,13.294c5.969,3.897 11.25,4.303 16.5,1.644c11.719,-5.956 -16.75,-24.2 3.719,-34.613c11.125,-5.668 25.062,-5.568 37.281,-0.128l11.719,-5.959l10.375,6.747l-11.5,5.84c5.812,4.972 7.094,10.022 6.625,15.107l-17.469,-0.288c-0.094,-4.412 -1.5,-7.553 -5.969,-10.475c-5.156,-3.334 -10.093,-4.047 -15.187,-1.444c-10.813,5.494 18.343,23.394 -3.375,34.441c-10.938,5.553 -25,6.147 -38.532,0.256l-11.812,6.016l-10.375,-6.744l11.375,-5.787Z" style="fill:#ffd482;fill-rule:nonzero;"/><path d="M1385.62,1532.86l0.687,31.569c0.032,0.572 0.501,1.025 1.063,1.013c0.563,-0.013 1.031,-0.485 1,-1.056l-0.687,-31.569c-0,-0.572 -0.469,-1.025 -1.032,-1.013c-0.593,0.013 -1.031,0.485 -1.031,1.056Z" style="fill:#ffd482;fill-rule:nonzero;"/><path d="M1419.41,1530.13l0.438,30.719c0.031,0.569 0.5,1.025 1.062,1.016c0.563,-0.007 1.032,-0.478 1.032,-1.047l-0.469,-30.719c-0.032,-0.572 -0.5,-1.028 -1.063,-1.019c-0.562,0.01 -1.031,0.478 -1,1.05Z" style="fill:#ffd482;fill-rule:nonzero;"/><path d="M1451.41,1522.02l0.469,30.715c-0,0.572 0.469,1.025 1.031,1.019c0.594,-0.009 1.032,-0.478 1.032,-1.05l-0.469,-30.716c-0,-0.572 -0.469,-1.025 -1.031,-1.018c-0.594,0.009 -1.032,0.478 -1.032,1.05Z" style="fill:#ffd482;fill-rule:nonzero;"/><path d="M1480.06,1508.58l0.438,28.325c0,0.569 0.469,1.025 1.031,1.016c0.563,-0.009 1.032,-0.478 1.032,-1.047l-0.438,-28.325c0,-0.569 -0.469,-1.025 -1.063,-1.019c-0.562,0.01 -1,0.482 -1,1.05Z" style="fill:#ffd482;fill-rule:nonzero;"/><path d="M1503.41,1488.41l-0.344,28.791c0,0.569 0.469,1.037 1.032,1.044c0.562,0.006 1.031,-0.45 1.031,-1.019l0.344,-28.791c-0,-0.572 -0.438,-1.04 -1,-1.047c-0.594,-0.006 -1.063,0.45 -1.063,1.022Z" style="fill:#ffd482;fill-rule:nonzero;"/><path d="M1350.25,1530.89l0.219,30.718c-0,0.572 0.469,1.032 1.062,1.025c0.563,-0.003 1.031,-0.468 1,-1.037l-0.187,-30.722c-0.032,-0.569 -0.469,-1.028 -1.063,-1.025c-0.562,0.003 -1.031,0.469 -1.031,1.041Z" style="fill:#ffd482;fill-rule:nonzero;"/><path d="M1318.06,1523.48l0.218,30.719c0.031,0.572 0.469,1.031 1.063,1.025c0.562,-0.003 1.031,-0.469 1.031,-1.041l-0.219,-30.718c-0.031,-0.569 -0.468,-1.029 -1.062,-1.025c-0.563,0.003 -1.031,0.468 -1.031,1.04Z" style="fill:#ffd482;fill-rule:nonzero;"/><path d="M1289.12,1510.68l0.219,28.329c-0,0.568 0.468,1.028 1.031,1.025c0.562,-0.004 1.031,-0.469 1.031,-1.041l-0.187,-28.325c-0.031,-0.572 -0.5,-1.031 -1.063,-1.028c-0.562,0.006 -1.031,0.472 -1.031,1.04Z" style="fill:#ffd482;fill-rule:nonzero;"/><path d="M1265.34,1491.08l0.968,28.775c0.032,0.569 0.501,1.016 1.063,0.997c0.594,-0.019 1.031,-0.497 1,-1.068l-0.969,-28.776c0,-0.568 -0.5,-1.015 -1.062,-0.996c-0.563,0.018 -1.031,0.496 -1,1.068Z" style="fill:#ffd482;fill-rule:nonzero;"/><path d="M1514.44,1401.29c1.125,4.838 -0.5,41.213 -2.656,46.447c-3.969,16.678 -18.281,32.622 -42.625,44.522c-53.406,26.113 -134.656,22.881 -181.531,-7.215c-21.812,-14.025 -33.75,-28.397 -34.219,-46.507c-0.812,-9.787 -1.406,-37.122 -1.406,-37.122c1.625,-5.993 8.625,0.157 12.938,-5.468c7.125,-11.075 19.187,-21.313 36.093,-29.591c53.407,-26.109 134.688,-22.881 181.532,7.216c19.749,12.678 30.343,12.165 31.874,27.718Z" style="fill:#f0b037;fill-rule:nonzero;"/><path d="M1483.94,1354.23c-46.562,-31.078 -129.406,-34.562 -184.968,-7.772c-55.563,26.785 -62.844,73.697 -16.282,104.778c46.594,31.085 129.438,34.566 185.001,7.779c55.562,-26.791 62.843,-73.7 16.249,-104.785Z" style="fill:#fff;fill-rule:nonzero;"/><path d="M1483.91,1350.18c-46.594,-31.084 -129.406,-34.565 -184.968,-7.778c-55.594,26.791 -62.875,73.7 -16.282,104.785c46.594,31.081 129.406,34.562 184.969,7.775c55.594,-26.788 62.875,-73.7 16.281,-104.782Z" style="fill:#ffd482;fill-rule:nonzero;"/><path d="M1453.5,1362.83c-32.563,-21.728 -90.469,-24.159 -129.313,-5.434c-38.843,18.728 -43.937,51.521 -11.375,73.253c32.563,21.728 90.469,24.162 129.313,5.434c38.875,-18.725 43.938,-51.522 11.375,-73.253Z" style="fill:#fff;fill-rule:nonzero;"/><path d="M1324.25,1363.75c38.875,-18.725 96.75,-16.294 129.313,5.438c13,8.662 20,19.081 21.249,29.668c1.219,-12.709 -5.718,-25.637 -21.312,-36.034c-32.563,-21.728 -90.469,-24.159 -129.313,-5.434c-23.343,11.262 -34.5,27.612 -32.593,43.581c1.343,-13.853 12.406,-27.45 32.656,-37.219Z" style="fill:#f2c97b;fill-rule:nonzero;"/><path d="M1342.78,1414.24c-5.531,-4.509 -10.062,-10.881 -10.187,-16.637l18.093,-1.275c1.125,5.744 3.563,9.962 8.688,13.3c6,3.894 11.281,4.303 16.531,1.641c11.688,-5.96 -16.781,-24.204 3.688,-34.613c11.156,-5.669 25.093,-5.569 37.312,-0.131l11.688,-5.956l10.375,6.743l-11.469,5.841c5.813,4.975 7.094,10.022 6.625,15.106l-17.469,-0.284c-0.125,-4.416 -1.5,-7.55 -5.968,-10.472c-5.157,-3.337 -10.094,-4.05 -15.219,-1.447c-10.782,5.497 18.344,23.391 -3.375,34.441c-10.907,5.553 -24.969,6.147 -38.5,0.256l-11.813,6.012l-10.375,-6.743l11.375,-5.782Z" style="fill:#ffd482;fill-rule:nonzero;"/><path d="M1385.03,1478.36l0.688,31.569c-0,0.572 0.468,1.022 1.062,1.009c0.563,-0.012 1,-0.484 1,-1.053l-0.687,-31.569c-0,-0.568 -0.469,-1.021 -1.063,-1.009c-0.562,0.013 -1,0.484 -1,1.053Z" style="fill:#ffd482;fill-rule:nonzero;"/><path d="M1418.78,1475.63l0.469,30.716c0,0.572 0.469,1.028 1.063,1.018c0.562,-0.009 1.031,-0.478 0.999,-1.05l-0.468,-30.715c-0,-0.569 -0.469,-1.025 -1.032,-1.016c-0.562,0.007 -1.031,0.478 -1.031,1.047Z" style="fill:#ffd482;fill-rule:nonzero;"/><path d="M1450.81,1467.51l0.468,30.715c0,0.569 0.469,1.025 1.031,1.016c0.563,-0.01 1.032,-0.478 1.032,-1.047l-0.469,-30.716c0,-0.572 -0.469,-1.028 -1.063,-1.018c-0.562,0.009 -0.999,0.478 -0.999,1.05Z" style="fill:#ffd482;fill-rule:nonzero;"/><path d="M1479.47,1454.08l0.406,28.322c0,0.572 0.469,1.025 1.063,1.019c0.562,-0.01 1.031,-0.478 0.999,-1.05l-0.406,-28.322c-0.031,-0.572 -0.5,-1.028 -1.062,-1.019c-0.563,0.009 -1.031,0.478 -1,1.05Z" style="fill:#ffd482;fill-rule:nonzero;"/><path d="M1502.81,1433.9l-0.344,28.791c-0,0.571 0.437,1.04 1.031,1.046c0.563,0.007 1.031,-0.449 1.031,-1.021l0.344,-28.794c0,-0.569 -0.469,-1.038 -1.031,-1.044c-0.563,-0.006 -1.031,0.45 -1.031,1.022Z" style="fill:#ffd482;fill-rule:nonzero;"/><path d="M1349.66,1476.38l0.219,30.719c-0,0.569 0.469,1.028 1.031,1.025c0.594,-0.003 1.031,-0.469 1.031,-1.04l-0.218,-30.719c-0,-0.572 -0.469,-1.031 -1.032,-1.025c-0.562,0.003 -1.031,0.469 -1.031,1.04Z" style="fill:#ffd482;fill-rule:nonzero;"/><path d="M1317.47,1468.98l0.219,30.719c-0,0.569 0.468,1.028 1.031,1.025c0.594,-0.003 1.031,-0.469 1.031,-1.041l-0.219,-30.719c0,-0.571 -0.469,-1.031 -1.031,-1.025c-0.563,0.003 -1.031,0.469 -1.031,1.041Z" style="fill:#ffd482;fill-rule:nonzero;"/><path d="M1288.53,1456.18l0.188,28.325c0.031,0.572 0.5,1.031 1.062,1.028c0.563,-0.006 1.032,-0.472 1.032,-1.04l-0.219,-28.329c-0,-0.568 -0.469,-1.028 -1.031,-1.024c-0.563,0.003 -1.032,0.468 -1.032,1.04Z" style="fill:#ffd482;fill-rule:nonzero;"/><path d="M1264.75,1436.58l0.969,28.778c0.031,0.572 0.5,1.019 1.062,1c0.563,-0.019 1.031,-0.497 1,-1.069l-0.968,-28.778c-0.032,-0.569 -0.501,-1.015 -1.063,-0.997c-0.563,0.019 -1.031,0.497 -1,1.066Z" style="fill:#ffd482;fill-rule:nonzero;"/><path d="M1513.78,1343.05c1.157,4.838 -0.5,41.213 -2.656,46.453c-3.969,16.672 -18.281,32.619 -42.594,44.519c-53.406,26.109 -134.687,22.881 -181.531,-7.216c-21.844,-14.028 -33.781,-28.4 -34.25,-46.506c-0.813,-9.787 -1.406,-37.122 -1.406,-37.122c1.656,-5.997 8.625,0.153 12.968,-5.469c7.125,-11.075 19.157,-21.312 36.094,-29.587c53.375,-26.113 134.656,-22.884 181.531,7.216c19.719,12.671 30.313,12.165 31.844,27.712Z" style="fill:#f0b037;fill-rule:nonzero;"/><path d="M1483.31,1296c-46.594,-31.081 -129.407,-34.562 -185.001,-7.775c-55.562,26.791 -62.843,73.7 -16.249,104.784c46.593,31.082 129.406,34.563 184.968,7.775c55.594,-26.787 62.875,-73.703 16.282,-104.784Z" style="fill:#fff;fill-rule:nonzero;"/><path d="M1483.25,1291.95c-46.563,-31.081 -129.406,-34.562 -184.969,-7.775c-55.562,26.791 -62.844,73.7 -16.25,104.784c46.563,31.082 129.375,34.563 184.969,7.775c55.562,-26.787 62.844,-73.703 16.25,-104.784Z" style="fill:#ffd482;fill-rule:nonzero;"/><path d="M1452.88,1304.6c-32.594,-21.728 -90.469,-24.166 -129.312,-5.438c-38.876,18.728 -43.969,51.525 -11.375,73.253c32.562,21.729 90.468,24.16 129.312,5.435c38.844,-18.725 43.937,-51.522 11.375,-73.25Z" style="fill:#fff;fill-rule:nonzero;"/><path d="M1323.62,1305.53c38.844,-18.728 96.75,-16.294 129.312,5.437c12.969,8.657 19.969,19.079 21.219,29.666c1.25,-12.706 -5.718,-25.637 -21.281,-36.031c-32.594,-21.728 -90.469,-24.166 -129.312,-5.438c-23.375,11.266 -34.532,27.616 -32.626,43.585c1.344,-13.853 12.407,-27.453 32.688,-37.219Z" style="fill:#f2c97b;fill-rule:nonzero;"/><path d="M1342.12,1356c-5.5,-4.509 -10.031,-10.878 -10.188,-16.631l18.094,-1.278c1.157,5.744 3.563,9.959 8.719,13.297c5.969,3.896 11.281,4.303 16.5,1.643c11.719,-5.956 -16.75,-24.2 3.719,-34.615c11.125,-5.666 25.062,-5.566 37.281,-0.125l11.719,-5.957l10.375,6.741l-11.5,5.844c5.843,4.969 7.125,10.022 6.625,15.109l-17.469,-0.29c-0.094,-4.413 -1.469,-7.554 -5.969,-10.475c-5.125,-3.338 -10.062,-4.047 -15.187,-1.444c-10.813,5.494 18.343,23.394 -3.375,34.441c-10.906,5.553 -25,6.146 -38.532,0.256l-11.812,6.015l-10.375,-6.746l11.375,-5.785Z" style="fill:#ffd482;fill-rule:nonzero;"/><path d="M1384.41,1420.12l0.656,31.569c0.032,0.572 0.501,1.025 1.063,1.012c0.562,-0.012 1.031,-0.484 1,-1.056l-0.656,-31.572c-0.031,-0.569 -0.5,-1.022 -1.063,-1.009c-0.562,0.012 -1.031,0.484 -1,1.056Z" style="fill:#ffd482;fill-rule:nonzero;"/><path d="M1418.16,1417.39l0.469,30.718c-0,0.572 0.469,1.029 1.031,1.019c0.563,-0.009 1.031,-0.478 1.031,-1.047l-0.468,-30.722c-0,-0.568 -0.469,-1.025 -1.063,-1.015c-0.562,0.009 -1.031,0.478 -1,1.047Z" style="fill:#ffd482;fill-rule:nonzero;"/><path d="M1450.16,1409.28l0.469,30.716c-0,0.569 0.469,1.025 1.063,1.015c0.562,-0.006 0.999,-0.478 0.999,-1.047l-0.468,-30.715c-0,-0.572 -0.469,-1.028 -1.031,-1.019c-0.563,0.009 -1.032,0.478 -1.032,1.05Z" style="fill:#ffd482;fill-rule:nonzero;"/><path d="M1478.81,1395.85l0.438,28.322c-0,0.572 0.469,1.028 1.031,1.018c0.594,-0.009 1.032,-0.478 1.032,-1.05l-0.438,-28.321c0,-0.572 -0.469,-1.025 -1.031,-1.019c-0.594,0.009 -1.032,0.478 -1.032,1.05Z" style="fill:#ffd482;fill-rule:nonzero;"/><path d="M1502.16,1375.67l-0.344,28.79c0,0.569 0.469,1.038 1.032,1.044c0.562,0.006 1.031,-0.45 1.031,-1.022l0.344,-28.787c0.031,-0.572 -0.438,-1.041 -1,-1.047c-0.594,-0.006 -1.063,0.45 -1.063,1.022Z" style="fill:#ffd482;fill-rule:nonzero;"/><path d="M1349,1418.15l0.219,30.719c0.031,0.572 0.469,1.031 1.062,1.025c0.563,-0.003 1.032,-0.469 1.032,-1.041l-0.219,-30.719c-0.032,-0.568 -0.469,-1.028 -1.063,-1.024c-0.562,0.003 -1.031,0.468 -1.031,1.04Z" style="fill:#ffd482;fill-rule:nonzero;"/><path d="M1316.84,1410.74l0.187,30.719c0.031,0.568 0.469,1.028 1.063,1.025c0.562,-0.004 1.031,-0.469 1.031,-1.041l-0.219,-30.719c0,-0.569 -0.468,-1.028 -1.062,-1.025c-0.563,0.003 -1.031,0.469 -1,1.041Z" style="fill:#ffd482;fill-rule:nonzero;"/><path d="M1287.91,1397.95l0.188,28.325c-0,0.572 0.468,1.031 1.031,1.028c0.562,-0.006 1.031,-0.472 1.031,-1.041l-0.187,-28.328c-0,-0.568 -0.469,-1.028 -1.063,-1.025c-0.562,0.003 -1.031,0.469 -1,1.041Z" style="fill:#ffd482;fill-rule:nonzero;"/><path d="M1264.09,1378.35l0.968,28.775c0.032,0.569 0.5,1.016 1.094,0.997c0.563,-0.019 1,-0.497 1,-1.069l-1,-28.775c0,-0.569 -0.5,-1.016 -1.062,-0.997c-0.563,0.019 -1,0.497 -1,1.069Z" style="fill:#ffd482;fill-rule:nonzero;"/><path d="M1513.19,1288.09c1.125,4.837 -0.499,41.212 -2.656,46.45c-3.969,16.678 -18.281,32.618 -42.625,44.521c-53.406,26.11 -134.656,22.882 -181.531,-7.215c-21.812,-14.028 -33.75,-28.4 -34.219,-46.506c-0.812,-9.788 -1.406,-37.125 -1.406,-37.125c1.625,-5.994 8.625,0.156 12.938,-5.469c7.125,-11.072 19.187,-21.309 36.093,-29.588c53.407,-26.112 134.688,-22.881 181.532,7.216c19.749,12.675 30.343,12.163 31.874,27.716Z" style="fill:#f0b037;fill-rule:nonzero;"/><path d="M1482.69,1241.04c-46.593,-31.084 -129.406,-34.562 -184.968,-7.775c-55.563,26.788 -62.844,73.7 -16.25,104.785c46.562,31.081 129.375,34.559 184.969,7.772c55.562,-26.785 62.843,-73.7 16.249,-104.782Z" style="fill:#fff;fill-rule:nonzero;"/><path d="M1482.66,1236.99c-46.593,-31.081 -129.406,-34.562 -184.968,-7.774c-55.594,26.787 -62.875,73.703 -16.282,104.787c46.594,31.078 129.406,34.556 184.969,7.772c55.594,-26.791 62.875,-73.703 16.281,-104.785Z" style="fill:#ffd482;fill-rule:nonzero;"/><path d="M1452.25,1249.63c-32.562,-21.728 -90.469,-24.162 -129.313,-5.434c-38.843,18.728 -43.937,51.522 -11.375,73.253c32.563,21.728 90.469,24.159 129.313,5.434c38.844,-18.728 43.938,-51.525 11.375,-73.253Z" style="fill:#fff;fill-rule:nonzero;"/><path d="M1323,1250.56c38.875,-18.728 96.75,-16.293 129.312,5.435c13.001,8.662 20.001,19.084 21.251,29.672c1.218,-12.71 -5.719,-25.638 -21.313,-36.035c-32.562,-21.728 -90.469,-24.162 -129.313,-5.434c-23.343,11.262 -34.499,27.612 -32.593,43.584c1.343,-13.856 12.406,-27.453 32.656,-37.222Z" style="fill:#f2c97b;fill-rule:nonzero;"/><path d="M1341.53,1301.04c-5.531,-4.507 -10.062,-10.879 -10.187,-16.635l18.093,-1.275c1.126,5.741 3.563,9.96 8.688,13.297c6,3.894 11.281,4.303 16.531,1.644c11.688,-5.956 -16.75,-24.203 3.688,-34.613c11.156,-5.668 25.093,-5.568 37.312,-0.131l11.688,-5.956l10.375,6.744l-11.469,5.84c5.813,4.972 7.094,10.025 6.594,15.11l-17.438,-0.291c-0.125,-4.409 -1.5,-7.55 -6,-10.472c-5.125,-3.337 -10.062,-4.047 -15.187,-1.444c-10.782,5.494 18.344,23.394 -3.375,34.441c-10.907,5.55 -24.969,6.147 -38.5,0.256l-11.813,6.019l-10.375,-6.75l11.375,-5.784Z" style="fill:#ffd482;fill-rule:nonzero;"/><path d="M1383.78,1365.16l0.688,31.569c-0,0.572 0.469,1.025 1.062,1.013c0.563,-0.013 1,-0.485 1,-1.056l-0.687,-31.569c-0,-0.572 -0.469,-1.025 -1.063,-1.013c-0.562,0.013 -1,0.485 -1,1.056Z" style="fill:#ffd482;fill-rule:nonzero;"/><path d="M1417.53,1362.43l0.469,30.716c0,0.569 0.469,1.025 1.062,1.016c0.563,-0.01 1.032,-0.478 1.001,-1.047l-0.469,-30.716c-0,-0.572 -0.469,-1.028 -1.032,-1.019c-0.562,0.01 -1.031,0.478 -1.031,1.05Z" style="fill:#ffd482;fill-rule:nonzero;"/><path d="M1449.56,1354.32l0.469,30.715c0,0.572 0.469,1.025 1.031,1.019c0.563,-0.009 1.032,-0.478 1.032,-1.05l-0.469,-30.716c0,-0.572 -0.469,-1.025 -1.062,-1.018c-0.563,0.009 -1.001,0.478 -1.001,1.05Z" style="fill:#ffd482;fill-rule:nonzero;"/><path d="M1478.22,1340.88l0.406,28.325c0.031,0.572 0.5,1.028 1.063,1.019c0.562,-0.009 1.031,-0.478 0.999,-1.047l-0.406,-28.325c-0.031,-0.572 -0.5,-1.025 -1.062,-1.022c-0.563,0.013 -1.031,0.478 -1,1.05Z" style="fill:#ffd482;fill-rule:nonzero;"/><path d="M1501.56,1320.7l-0.344,28.794c-0,0.569 0.437,1.037 1.031,1.044c0.563,0.006 1.031,-0.45 1.031,-1.019l0.344,-28.794c0,-0.572 -0.469,-1.041 -1.031,-1.047c-0.563,-0.003 -1.032,0.453 -1.032,1.022Z" style="fill:#ffd482;fill-rule:nonzero;"/><path d="M1348.41,1363.19l0.219,30.718c0,0.572 0.469,1.032 1.031,1.025c0.594,-0.003 1.031,-0.469 1.031,-1.04l-0.218,-30.719c-0,-0.569 -0.469,-1.028 -1.032,-1.025c-0.562,0.003 -1.031,0.469 -1.031,1.041Z" style="fill:#ffd482;fill-rule:nonzero;"/><path d="M1316.22,1355.78l0.219,30.719c-0,0.572 0.468,1.031 1.031,1.025c0.594,-0.003 1.031,-0.469 1.031,-1.041l-0.219,-30.718c0,-0.569 -0.469,-1.029 -1.031,-1.025c-0.563,0.003 -1.031,0.468 -1.031,1.04Z" style="fill:#ffd482;fill-rule:nonzero;"/><path d="M1287.28,1342.98l0.188,28.329c0.031,0.568 0.469,1.028 1.062,1.025c0.563,-0.004 1.032,-0.469 1.032,-1.041l-0.219,-28.325c-0,-0.572 -0.469,-1.028 -1.031,-1.028c-0.563,0.006 -1.032,0.472 -1.032,1.04Z" style="fill:#ffd482;fill-rule:nonzero;"/><path d="M1263.5,1323.38l0.969,28.778c0.031,0.569 0.5,1.016 1.062,0.997c0.563,-0.019 1.032,-0.497 1,-1.069l-0.969,-28.778c-0.031,-0.568 -0.5,-1.015 -1.062,-0.996c-0.594,0.018 -1.031,0.496 -1,1.068Z" style="fill:#ffd482;fill-rule:nonzero;"/><path d="M1797.28,1438.92c1.125,4.837 -0.531,41.212 -2.656,46.45c-3.969,16.675 -18.281,32.618 -42.625,44.518c-53.406,26.113 -134.656,22.885 -181.531,-7.212c-21.844,-14.028 -33.75,-28.4 -34.25,-46.506c-0.782,-9.788 -1.406,-37.125 -1.406,-37.125c1.656,-5.994 8.656,0.156 12.968,-5.469c7.125,-11.072 19.188,-21.309 36.094,-29.588c53.406,-26.112 134.687,-22.881 181.531,7.216c19.719,12.675 30.344,12.166 31.875,27.716Z" style="fill:#f0b037;fill-rule:nonzero;"/><path d="M1766.78,1391.86c-46.594,-31.081 -129.406,-34.559 -184.968,-7.775c-55.563,26.788 -62.875,73.704 -16.282,104.785c46.594,31.084 129.407,34.562 185,7.778c55.563,-26.791 62.844,-73.703 16.25,-104.788Z" style="fill:#fff;fill-rule:nonzero;"/><path d="M1766.75,1387.81c-46.594,-31.085 -129.406,-34.563 -185,-7.776c-55.562,26.788 -62.844,73.701 -16.25,104.785c46.594,31.081 129.406,34.562 184.969,7.775c55.562,-26.788 62.844,-73.703 16.281,-104.784Z" style="fill:#ffd482;fill-rule:nonzero;"/><path d="M1736.34,1400.46c-32.563,-21.728 -90.469,-24.162 -129.313,-5.434c-38.844,18.725 -43.937,51.522 -11.375,73.253c32.563,21.728 90.469,24.159 129.313,5.434c38.844,-18.728 43.937,-51.521 11.375,-73.253Z" style="fill:#fff;fill-rule:nonzero;"/><path d="M1607.09,1401.38c38.843,-18.728 96.75,-16.293 129.312,5.438c13,8.659 19.969,19.081 21.25,29.669c1.219,-12.713 -5.719,-25.638 -21.312,-36.035c-32.563,-21.728 -90.469,-24.162 -129.313,-5.434c-23.375,11.262 -34.5,27.609 -32.625,43.581c1.344,-13.853 12.438,-27.45 32.688,-37.219Z" style="fill:#f2c97b;fill-rule:nonzero;"/><path d="M1625.59,1451.87c-5.5,-4.51 -10.032,-10.882 -10.157,-16.635l18.094,-1.278c1.125,5.747 3.563,9.963 8.688,13.3c6,3.894 11.281,4.303 16.5,1.641c11.719,-5.957 -16.75,-24.2 3.718,-34.613c11.157,-5.665 25.094,-5.565 37.282,-0.128l11.719,-5.959l10.374,6.747l-11.468,5.84c5.812,4.972 7.093,10.022 6.594,15.107l-17.469,-0.285c-0.094,-4.415 -1.469,-7.553 -5.969,-10.475c-5.125,-3.337 -10.063,-4.047 -15.187,-1.444c-10.782,5.494 18.343,23.391 -3.376,34.441c-10.906,5.55 -25,6.144 -38.499,0.256l-11.813,6.013l-10.375,-6.747l11.344,-5.781Z" style="fill:#ffd482;fill-rule:nonzero;"/><path d="M1667.88,1515.98l0.687,31.572c0,0.572 0.469,1.022 1.032,1.01c0.593,-0.013 1.031,-0.485 1.031,-1.053l-0.687,-31.572c-0,-0.569 -0.469,-1.022 -1.063,-1.01c-0.563,0.013 -1,0.485 -1,1.053Z" style="fill:#ffd482;fill-rule:nonzero;"/><path d="M1701.62,1513.26l0.469,30.716c-0,0.572 0.468,1.028 1.031,1.019c0.594,-0.01 1.031,-0.479 1.031,-1.05l-0.468,-30.716c-0,-0.569 -0.469,-1.025 -1.032,-1.016c-0.593,0.007 -1.031,0.478 -1.031,1.047Z" style="fill:#ffd482;fill-rule:nonzero;"/><path d="M1733.66,1505.14l0.438,30.715c0.031,0.569 0.5,1.025 1.062,1.016c0.563,-0.006 1.031,-0.478 1,-1.047l-0.437,-30.716c-0.031,-0.572 -0.5,-1.028 -1.063,-1.018c-0.562,0.009 -1.031,0.478 -1,1.05Z" style="fill:#ffd482;fill-rule:nonzero;"/><path d="M1762.28,1491.71l0.438,28.322c-0,0.572 0.468,1.025 1.062,1.019c0.563,-0.009 1,-0.478 1,-1.05l-0.406,-28.322c-0.031,-0.572 -0.5,-1.028 -1.062,-1.019c-0.563,0.01 -1.032,0.479 -1.032,1.05Z" style="fill:#ffd482;fill-rule:nonzero;"/><path d="M1785.66,1471.53l-0.343,28.788c-0.032,0.572 0.437,1.04 0.999,1.047c0.594,0.006 1.063,-0.45 1.063,-1.022l0.344,-28.791c-0,-0.569 -0.469,-1.037 -1.032,-1.044c-0.562,-0.006 -1.031,0.45 -1.031,1.022Z" style="fill:#ffd482;fill-rule:nonzero;"/><path d="M1632.5,1514.02l0.219,30.718c-0,0.569 0.468,1.029 1.031,1.025c0.562,-0.003 1.031,-0.468 1.031,-1.04l-0.218,-30.719c-0,-0.572 -0.469,-1.031 -1.032,-1.025c-0.593,0.003 -1.031,0.469 -1.031,1.041Z" style="fill:#ffd482;fill-rule:nonzero;"/><path d="M1600.31,1506.61l0.219,30.719c0,0.569 0.469,1.028 1.031,1.025c0.563,-0.003 1.032,-0.469 1.032,-1.041l-0.219,-30.718c0,-0.572 -0.469,-1.032 -1.031,-1.025c-0.594,0.003 -1.032,0.468 -1.032,1.04Z" style="fill:#ffd482;fill-rule:nonzero;"/><path d="M1571.38,1493.81l0.188,28.325c-0,0.572 0.468,1.032 1.062,1.028c0.563,-0.006 1.031,-0.471 1,-1.04l-0.188,-28.328c0.001,-0.569 -0.468,-1.028 -1.031,-1.025c-0.594,0.003 -1.031,0.468 -1.031,1.04Z" style="fill:#ffd482;fill-rule:nonzero;"/><path d="M1547.59,1474.21l0.969,28.775c-0,0.572 0.499,1.019 1.062,1c0.563,-0.018 1.031,-0.497 1,-1.068l-0.969,-28.776c-0.031,-0.568 -0.5,-1.015 -1.062,-0.996c-0.594,0.018 -1.032,0.496 -1,1.065Z" style="fill:#ffd482;fill-rule:nonzero;"/><path d="M771.844,1699.18c-41.657,-24.265 -119.494,-25.787 -173.835,-3.39c-54.337,22.393 -64.609,60.222 -22.943,84.487c41.665,24.269 119.497,25.788 173.84,3.391c54.344,-22.394 64.594,-60.219 22.938,-84.488Z" style="fill:#202936;fill-rule:nonzero;"/><path d="M763.063,1688.8c1.125,4.837 -0.532,41.209 -2.66,46.45c-3.965,16.675 -18.278,32.622 -42.622,44.519c-53.406,26.112 -134.668,22.884 -181.525,-7.213c-21.844,-14.031 -33.772,-28.397 -34.244,-46.506c-0.809,-9.787 -1.406,-37.125 -1.406,-37.125c1.644,-5.991 8.635,0.156 12.96,-5.466c7.118,-11.075 19.168,-21.312 36.093,-29.59c53.397,-26.11 134.653,-22.882 181.528,7.215c19.719,12.672 30.341,12.163 31.876,27.716Z" style="fill:#f0b037;fill-rule:nonzero;"/><path d="M732.563,1641.74c-46.594,-31.082 -129.404,-34.56 -184.975,-7.772c-55.576,26.787 -62.857,73.7 -16.269,104.781c46.59,31.084 129.4,34.566 184.962,7.778c55.594,-26.79 62.872,-73.703 16.282,-104.787Z" style="fill:#fff;fill-rule:nonzero;"/><path d="M732.531,1637.69c-46.594,-31.082 -129.419,-34.56 -184.99,-7.772c-55.569,26.787 -62.854,73.7 -16.266,104.781c46.588,31.085 129.412,34.566 184.975,7.778c55.562,-26.79 62.844,-73.703 16.281,-104.787Z" style="fill:#ffd482;fill-rule:nonzero;"/><path d="M702.125,1650.34c-32.562,-21.728 -90.469,-24.163 -129.316,-5.435c-38.85,18.725 -43.943,51.522 -11.372,73.25c32.569,21.732 90.463,24.163 129.313,5.438c38.844,-18.725 43.937,-51.525 11.375,-73.253Z" style="fill:#fff;fill-rule:nonzero;"/><path d="M572.878,1651.27c38.85,-18.725 96.747,-16.294 129.31,5.434c12.999,8.663 19.968,19.085 21.249,29.672c1.219,-12.713 -5.718,-25.641 -21.312,-36.034c-32.562,-21.728 -90.469,-24.163 -129.316,-5.435c-23.365,11.263 -34.512,27.613 -32.609,43.582c1.341,-13.854 12.416,-27.45 32.678,-37.219Z" style="fill:#f2c97b;fill-rule:nonzero;"/><path d="M591.381,1701.75c-5.509,-4.509 -10.04,-10.881 -10.178,-16.634l18.1,-1.275c1.135,5.743 3.563,9.959 8.7,13.297c5.988,3.896 11.275,4.303 16.506,1.64c11.71,-5.956 -16.753,-24.2 3.713,-34.612c11.144,-5.666 25.078,-5.566 37.278,-0.128l11.719,-5.957l10.375,6.744l-11.469,5.841c5.812,4.972 7.094,10.022 6.594,15.106l-17.469,-0.288c-0.094,-4.412 -1.469,-7.553 -5.969,-10.472c-5.128,-3.34 -10.069,-4.046 -15.184,-1.443c-10.8,5.493 18.34,23.39 -3.375,34.437c-10.913,5.556 -24.994,6.147 -38.513,0.257l-11.821,6.015l-10.375,-6.744l11.368,-5.784Z" style="fill:#ffd482;fill-rule:nonzero;"/><path d="M633.65,1765.87l0.684,31.572c0.013,0.568 0.485,1.021 1.057,1.009c0.568,-0.013 1.021,-0.484 1.009,-1.053l-0.684,-31.572c-0.013,-0.572 -0.485,-1.022 -1.057,-1.009c-0.568,0.012 -1.022,0.484 -1.009,1.053Z" style="fill:#ffd482;fill-rule:nonzero;"/><path d="M667.406,1763.14l0.469,30.718c-0,0.572 0.469,1.025 1.031,1.019c0.594,-0.009 1.032,-0.478 1.032,-1.05l-0.469,-30.719c-0,-0.568 -0.469,-1.025 -1.031,-1.015c-0.594,0.006 -1.032,0.478 -1.032,1.047Z" style="fill:#ffd482;fill-rule:nonzero;"/><path d="M699.406,1755.02l0.469,30.719c0.031,0.568 0.5,1.025 1.062,1.015c0.563,-0.009 1.032,-0.478 1,-1.047l-0.437,-30.718c-0.031,-0.569 -0.5,-1.025 -1.062,-1.016c-0.563,0.009 -1.032,0.478 -1.032,1.047Z" style="fill:#ffd482;fill-rule:nonzero;"/><path d="M728.062,1741.59l0.438,28.322c-0,0.571 0.469,1.025 1.063,1.018c0.562,-0.009 1,-0.478 1,-1.05l-0.438,-28.322c0,-0.571 -0.469,-1.028 -1.031,-1.018c-0.563,0.009 -1.032,0.478 -1.032,1.05Z" style="fill:#ffd482;fill-rule:nonzero;"/><path d="M751.434,1721.41l-0.34,28.791c-0.035,0.572 0.437,1.041 1,1.047c0.593,0.006 1.062,-0.45 1.062,-1.022l0.344,-28.791c-0,-0.568 -0.469,-1.037 -1.031,-1.043c-0.563,-0.007 -1.035,0.45 -1.035,1.018Z" style="fill:#ffd482;fill-rule:nonzero;"/><path d="M598.278,1763.9l0.213,30.719c0.003,0.568 0.468,1.028 1.04,1.025c0.572,-0.003 1.031,-0.469 1.025,-1.041l-0.212,-30.719c-0.003,-0.571 -0.469,-1.031 -1.041,-1.025c-0.572,0.003 -1.031,0.469 -1.025,1.041Z" style="fill:#ffd482;fill-rule:nonzero;"/><path d="M566.091,1756.49l0.215,30.722c0.003,0.569 0.472,1.028 1.041,1.025c0.572,-0.003 1.031,-0.471 1.025,-1.04l-0.216,-30.719c-0.003,-0.572 -0.469,-1.031 -1.04,-1.025c-0.569,0.003 -1.028,0.469 -1.025,1.037Z" style="fill:#ffd482;fill-rule:nonzero;"/><path d="M537.15,1743.69l0.2,28.325c0.003,0.572 0.469,1.031 1.037,1.025c0.572,-0.003 1.032,-0.469 1.029,-1.038l-0.2,-28.328c-0.004,-0.572 -0.469,-1.028 -1.041,-1.025c-0.569,0.003 -1.028,0.469 -1.025,1.041Z" style="fill:#ffd482;fill-rule:nonzero;"/><path d="M513.359,1724.09l0.979,28.775c0.018,0.572 0.496,1.018 1.065,1c0.572,-0.022 1.019,-0.5 0.997,-1.069l-0.975,-28.775c-0.019,-0.572 -0.497,-1.016 -1.069,-0.997c-0.569,0.019 -1.015,0.497 -0.997,1.066Z" style="fill:#ffd482;fill-rule:nonzero;"/><path d="M727.5,1690.52l0.438,28.322c-0,0.571 0.468,1.028 1.031,1.018c0.594,-0.009 1.031,-0.478 1.031,-1.05l-0.437,-28.322c-0,-0.571 -0.469,-1.025 -1.032,-1.018c-0.562,0.009 -1.031,0.478 -1.031,1.05Z" style="fill:#ffd482;fill-rule:nonzero;"/><path d="M750.844,1670.34l-0.313,28.791c-0.031,0.569 0.438,1.038 1,1.044c0.563,0.006 1.028,-0.45 1.06,-1.022l0.343,-28.788c0,-0.571 -0.465,-1.04 -1.028,-1.046c-0.562,-0.007 -1.031,0.45 -1.062,1.021Z" style="fill:#ffd482;fill-rule:nonzero;"/><path d="M2677.38,1338.27l-281.656,147.85c-12.875,7.562 -101.313,22.64 -122.938,11.969l-282.937,-90.735c-21.625,-10.675 -9.656,-37.994 3.25,-45.559l322.843,-260.903c12.875,-7.566 41.094,-5.025 62.719,5.65l306.657,159.615c21.624,10.675 4.968,64.544 -7.938,72.113Z" style="fill:#202936;fill-rule:nonzero;"/><path d="M2166.53,1194.59l66.969,268.468l180.437,8.2l81.063,-326.74l-328.469,50.072Z" style="fill:#18a2a3;fill-rule:nonzero;"/><path d="M2413.94,1471.26c-1.875,21.785 -43.812,37.613 -93.656,35.347c-49.812,-2.262 -88.687,-21.762 -86.781,-43.547c1.906,-21.787 43.812,-37.612 93.656,-35.35c49.844,2.266 88.688,21.763 86.781,43.55Z" style="fill:#18a2a3;fill-rule:nonzero;"/><path d="M2508.38,1040.36l16,270.1l175.906,3.388l46.063,-344.966l-237.969,71.478Z" style="fill:#18a2a3;fill-rule:nonzero;"/><path d="M2700.28,1313.84c-2.812,21.744 -44.5,38.612 -93.093,37.678c-48.563,-0.935 -85.657,-19.319 -82.813,-41.066c2.812,-21.743 44.5,-38.615 93.094,-37.681c48.562,0.931 85.656,19.319 82.812,41.069Z" style="fill:#18a2a3;fill-rule:nonzero;"/><path d="M1885.53,1096.92l54.5,268.044l180.344,12.6l96.469,-322.2l-331.313,41.556Z" style="fill:#158b8c;fill-rule:nonzero;"/><path d="M2120.38,1377.57c-2.906,21.575 -45.656,36.24 -95.438,32.759c-49.812,-3.481 -87.812,-23.788 -84.906,-45.359c2.938,-21.566 45.657,-36.238 95.469,-32.757c49.781,3.479 87.781,23.788 84.875,45.357Z" style="fill:#158b8c;fill-rule:nonzero;"/><path d="M2241.59,1359.69c-17.125,-0 -34.657,-1.081 -52.469,-3.303c-203.188,-25.36 -325.781,-175.272 -349.5,-360.291c76.656,-47.541 124.531,-131.981 124.687,-224.991c0,-14.762 -0.656,-27.856 -1.593,-38.762c5.093,0.519 10.125,1.203 15.031,2.015c13.5,38.738 12.844,85.632 7.687,126.566c-1.656,-0.394 -3.343,-0.584 -4.968,-0.584c-1.969,-0 -3.875,0.265 -5.719,0.775c-0.688,-0.388 -1.406,-0.728 -2.125,-1.016c-1.688,-0.656 -3.375,-0.969 -5,-0.969c-4.594,0 -8.5,2.544 -9.687,6.819c-0.75,2.725 -0.251,5.666 1.156,8.278c-1.094,2.035 -1.969,4.263 -2.625,6.653c-4.344,15.685 2.969,32.594 16.281,37.769c0.656,0.263 1.344,0.491 2.031,0.684c-2.031,8.635 -4.031,16.182 -5.75,22.329c17.469,-17.9 49.032,-48.091 51.906,-50.888c70.094,-67.859 93.844,-119.05 91.282,-195.319c-1.063,-31.409 -7.406,-64.65 -21.5,-98.787c-0,-0 52.375,58.95 67.594,131.112l-9.032,6.103c-9.156,6.201 -5.906,16.469 7.281,22.813c6.688,3.219 14.688,4.834 22.157,4.834c7.219,0 13.937,-1.522 18.468,-4.578l232.375,-157.172c9.157,-6.203 5.907,-16.468 -7.281,-22.815c-6.687,-3.219 -14.687,-4.835 -22.125,-4.835c-7.25,0 -13.969,1.522 -18.5,4.578l-204.968,138.629c9.656,-19.769 19.249,-42.307 28.875,-68.432c25.281,-68.493 25.843,-115.256 17.218,-148.237c37.25,-8.634 72.844,-12.935 105.063,-13.669c3.343,-0.078 6.656,-0.115 9.968,-0.115c281.907,-0 467.907,274.034 435.344,476.753c-30.843,192.081 -210.187,274.262 -343.75,346.975c-8.625,5.331 -17.531,10.275 -26.719,14.828l-0.281,0.15l-0.843,0.4c-46.875,22.978 -101.188,35.703 -159.969,35.7Z" style="fill:url(#_Linear4);"/><path d="M1932.84,597.219c-0,-0 76.594,7.425 133.531,49.9c29.219,21.803 36.594,60.562 15.937,84l-25.062,28.409c-0,0 -141.875,-103.528 -124.406,-162.309Z" style="fill:#9af1f4;fill-rule:nonzero;"/><path d="M1871.84,738.116c-0,-0 -39.75,-101.257 67.656,-154.619c0,-0 138.344,94.965 124.406,162.312c0,0 -114.406,-58.15 -192.062,-7.693Z" style="fill:#fff;fill-rule:nonzero;"/><path d="M2233,882.978c0,0 76.781,-90.062 188.469,-33.762c-0,-0 27.5,60.856 38.625,106.747c5.906,24.478 -5.938,47.153 -28.532,54.965l-59.218,20.519l-54.407,-130.885l-84.937,-17.584Z" style="fill:#9af1f4;fill-rule:nonzero;"/><path d="M2241.28,877.947c0,-0 48.531,-56.247 138.469,-12.153c0,-0 65.437,135.843 0.844,160.625c-0,-0 -55.282,-126.075 -139.313,-148.472Z" style="fill:#fff;fill-rule:nonzero;"/><path d="M2197.19,756.956l232.375,-157.172c9.157,-6.203 5.907,-16.468 -7.281,-22.815c-13.187,-6.344 -31.468,-6.456 -40.625,-0.257l-232.375,157.175c-9.156,6.201 -5.906,16.469 7.281,22.813c13.188,6.344 31.469,6.459 40.625,0.256Z" style="fill:#9af1f4;fill-rule:nonzero;"/><path d="M2221.75,770.5l232.375,-157.172c9.156,-6.203 5.906,-16.469 -7.281,-22.812c-13.188,-6.344 -31.469,-6.463 -40.625,-0.257l-232.375,157.172c-9.157,6.203 -5.907,16.469 7.281,22.813c13.188,6.347 31.469,6.462 40.625,0.256Z" style="fill:#202936;fill-rule:nonzero;"/><path d="M2004.69,899.625c-4.313,15.684 -18.625,24.203 -31.938,19.028c-13.312,-5.175 -20.625,-22.084 -16.281,-37.769c4.312,-15.684 18.625,-24.203 31.937,-19.028c13.313,5.175 20.625,22.085 16.282,37.769Z" style="fill:#202936;fill-rule:nonzero;"/><path d="M1981.56,875.131c-1.593,5.763 -8.187,8.381 -14.687,5.847c-6.531,-2.534 -10.531,-9.262 -8.937,-15.025c1.593,-5.765 8.156,-8.384 14.687,-5.85c6.531,2.535 10.5,9.263 8.937,15.028Z" style="fill:#fff;fill-rule:nonzero;"/><path d="M2207.22,1001.53c-1.125,17.141 -13.157,28.757 -26.875,25.947c-13.719,-2.812 -23.906,-18.987 -22.813,-36.128c1.125,-17.141 13.156,-28.759 26.875,-25.947c13.719,2.813 23.938,18.985 22.813,36.128Z" style="fill:#202936;fill-rule:nonzero;"/><path d="M1903,976.744c-0,-0 47.406,-53.903 124.531,-2.8c77.094,51.106 131.594,147.856 109.438,193.122c-22.157,45.265 -233.969,-190.322 -233.969,-190.322Z" style="fill:#9af1f4;fill-rule:nonzero;"/><path d="M2137.03,1182.63c-1.5,-65.481 -61.781,-152.565 -134.656,-194.512c-50.563,-29.091 -93.844,-28.81 -115.156,-4.078l-49.875,40.875l222.312,259.115l49.063,-43.381c18.312,-9.675 28.969,-29.419 28.312,-58.019Z" style="fill:#158b8c;fill-rule:nonzero;"/><path d="M2079.53,1230.66c1.5,65.485 -56.375,84.563 -129.25,42.613c-72.875,-41.947 -133.187,-129.035 -134.687,-194.513c-1.5,-65.481 56.375,-84.559 129.281,-42.612c72.875,41.95 133.156,129.034 134.656,194.512Z" style="fill:#fff;fill-rule:nonzero;"/><path d="M2074.84,1237.64c1.5,65.481 -56.375,84.559 -129.25,42.612c-72.875,-41.95 -133.188,-129.034 -134.688,-194.516c-1.5,-65.478 56.375,-84.556 129.25,-42.609c72.907,41.947 133.188,129.034 134.688,194.513Z" style="fill:url(#_Linear5);"/><path d="M1908.69,1155.05c0.375,16.519 -11.625,21.653 -26.813,11.475c-15.188,-10.184 -27.781,-31.828 -28.156,-48.347c-0.375,-16.516 11.625,-21.653 26.781,-11.472c15.187,10.181 27.813,31.828 28.188,48.344Z" style="fill:#fff;fill-rule:nonzero;"/><path d="M1910.59,1149.17c0.375,16.515 -11.625,21.656 -26.813,11.472c-15.187,-10.182 -27.781,-31.825 -28.156,-48.344c-0.375,-16.519 11.625,-21.653 26.813,-11.472c15.156,10.181 27.781,31.825 28.156,48.344Z" style="fill:#158b8c;fill-rule:nonzero;"/><path d="M1911.03,1149.94c0.25,10.565 -7.437,13.85 -17.156,7.334c-9.719,-6.515 -17.781,-20.365 -18,-30.931c-0.25,-10.569 7.438,-13.853 17.156,-7.338c9.688,6.516 17.781,20.366 18,30.935Z" style="fill:#202936;fill-rule:nonzero;"/><path d="M2000.25,1213.56c0.375,16.518 -11.625,21.656 -26.813,11.475c-15.156,-10.182 -27.781,-31.825 -28.156,-48.344c-0.375,-16.519 11.625,-21.657 26.813,-11.472c15.156,10.178 27.781,31.825 28.156,48.341Z" style="fill:#fff;fill-rule:nonzero;"/><path d="M2002.16,1207.68c0.375,16.519 -11.625,21.657 -26.781,11.472c-15.187,-10.178 -27.813,-31.825 -28.188,-48.341c-0.375,-16.521 11.625,-21.656 26.813,-11.475c15.188,10.182 27.781,31.825 28.156,48.344Z" style="fill:#158b8c;fill-rule:nonzero;"/><path d="M2002.62,1208.46c0.219,10.569 -7.438,13.853 -17.156,7.335c-9.719,-6.516 -17.781,-20.363 -18.032,-30.932c-0.25,-10.568 7.438,-13.85 17.157,-7.334c9.719,6.516 17.781,20.366 18.031,30.931Z" style="fill:#202936;fill-rule:nonzero;"/><path d="M1865.19,751.834c0,0 -39.749,-101.256 67.657,-154.615c-0,-0 138.344,94.962 124.406,162.309c-0,0 -114.375,-58.15 -192.063,-7.694Z" style="fill:#158b8c;fill-rule:nonzero;"/><path d="M2233,882.978c0,0 48.531,-56.25 138.469,-12.153c-0,0 65.468,135.841 0.875,160.622c-0,-0 -55.313,-126.072 -139.344,-148.469Z" style="fill:#158b8c;fill-rule:nonzero;"/><path d="M2206.94,1358.61c95.344,3.359 185.469,-17.241 254.969,-67.513l-14.687,48.394c-27.656,23.319 -105.25,58.081 -240.282,19.119Z" style="fill:#158b8c;fill-rule:nonzero;"/><path d="M2179.88,981.428c-1.594,5.763 -8.156,8.381 -14.688,5.847c-6.531,-2.531 -10.531,-9.259 -8.937,-15.025c1.594,-5.766 8.187,-8.384 14.687,-5.85c6.532,2.537 10.532,9.262 8.938,15.028Z" style="fill:#fff;fill-rule:nonzero;"/><path d="M1280.19,2028.92l513.562,-235.341c1.594,-0.743 1.406,-2.343 -0.469,-3.568l-210.094,-137.2c-1.906,-1.225 -4.718,-1.616 -6.375,-0.869l-513.531,235.341c-1.625,0.743 -1.437,2.343 0.438,3.565l155.156,133.325c0,0 59.688,5.491 61.313,4.747Z" style="fill:#202936;fill-rule:nonzero;"/><path d="M1720.59,1709.59l-148.844,-14.493l-57.531,-37.553c-1.813,-1.197 -4.594,-1.579 -6.157,-0.85l-500.624,229.415c-1.594,0.725 -1.407,2.285 0.437,3.481l204.813,133.744c1.843,1.197 4.593,1.575 6.187,0.847l500.625,-229.415c0.719,-0.332 1.062,-0.841 1.031,-1.407l0.063,0.007l-0,-83.776Z" style="fill:url(#_Linear6);"/><path d="M1006.41,1887.21l205.094,19.972l0,-83.775l-205.094,-19.968l0,83.771Z" style="fill:#1172a3;fill-rule:nonzero;"/><path d="M1006.47,1887.22l-0.063,-0.01l0,-83.771l209.25,60.768l3.219,159.972c-1.594,0.728 -4.375,0.35 -6.187,-0.847l-204.813,-133.744c-1.156,-0.753 -1.594,-1.628 -1.406,-2.368Z" style="fill:#1cbebf;fill-rule:nonzero;"/><path d="M1218.91,1940.47l500.625,-229.416c1.594,-0.725 1.375,-2.281 -0.437,-3.478l-204.813,-133.744c-1.844,-1.197 -4.625,-1.578 -6.187,-0.853l-500.625,229.419c-1.594,0.725 -1.407,2.284 0.437,3.481l204.813,133.744c1.844,1.194 4.594,1.575 6.187,0.847Z" style="fill:#34c8cc;fill-rule:nonzero;"/><path d="M1315.72,1721.29c30.844,-14.138 77.25,-11.631 103.625,5.597c26.406,17.231 22.781,42.659 -8.063,56.796c-30.875,14.138 -77.25,11.632 -103.656,-5.599c-26.375,-17.225 -22.75,-42.657 8.094,-56.794Z" style="fill:#179d9e;fill-rule:nonzero;"/><path d="M1194.69,1870.23l-78.219,-51.081c16.5,-10.038 19.094,-24.919 6.656,-36.775l333.188,-152.672c19.156,8.772 46.374,9.978 67.343,2.853l78.219,51.078c-16.875,10.272 -19.188,25.613 -5.75,37.6l-332.75,152.491c-19.219,-9.347 -47.219,-10.791 -68.687,-3.494Zm-119.657,-71.375c0.375,3.9 3.063,7.741 7.563,10.672l130.218,85.044c4.063,2.653 9.063,4.287 13.876,4.756c4.187,0.406 8.218,-0.065 11.406,-1.512l400.187,-183.4c3.969,-1.81 6.219,-5.025 6.219,-8.819l-0.031,-0.269l0.594,-0.262l-0.626,-0.41c-0.375,-3.897 -3.062,-7.737 -7.562,-10.665l-130.219,-85.047c-7.625,-4.96 -18.469,-6.35 -25.281,-3.241l-400.188,183.397c-3.593,1.647 -5.781,4.463 -6.156,7.819l-1.75,0.797l1.75,1.14Z" style="fill:#179d9e;fill-rule:nonzero;"/><path d="M1463.62,1828.33l-213.094,-137.313l68.344,-31.321l207.625,139.821l-62.875,28.813Z" style="fill:#fff;fill-rule:nonzero;"/><clipPath id="_clip7"><path d="M1838.16,997.016c-1.469,-11.325 -2.593,-22.772 -3.312,-34.341c-5.625,-89.591 -2.063,-156.672 28,-212.922c-3.438,-10.15 -16.5,-55.978 8.5,-99.434c9.625,-23.885 29.156,-48.253 66.531,-66.822c-0,-0 0.25,0.159 0.687,0.472c-36.812,18.525 -56.093,42.706 -65.625,66.409c-24.906,43.369 -11.937,89.097 -8.5,99.341c-30.062,56.253 -33.593,123.353 -27.968,212.956c0.687,11.25 1.75,22.406 3.156,33.425c-0.469,0.306 -0.969,0.612 -1.469,0.916Zm152.844,-387.032c-0.375,-0.118 -0.75,-0.237 -1.156,-0.356c75.218,-59.087 157.5,-94.034 232.844,-111.281c0.031,0.106 0.062,0.215 0.093,0.325c-75.093,17.4 -156.968,52.409 -231.781,111.312Z"/></clipPath><g clip-path="url(#_clip7)"><rect x="1829.22" y="498.347" width="393.563" height="498.669" style="fill:#c6bbb3;fill-rule:nonzero;"/></g><path d="M1839.62,996.1c-1.406,-11.019 -2.469,-22.175 -3.156,-33.425c-5.625,-89.603 -2.094,-156.703 27.968,-212.956c0.469,1.378 0.75,2.115 0.75,2.115c23.501,-15.268 50.375,-20.59 76.407,-20.59c7.125,-0 14.218,0.4 21.125,1.103c0.937,10.906 1.593,24 1.593,38.762c-0.156,93.01 -48.031,177.45 -124.687,224.991Zm129.406,-54.434c1.719,-6.147 3.719,-13.694 5.75,-22.329c1.969,0.56 3.969,0.832 5.906,0.832c10.657,-0 20.532,-7.972 24,-20.544c4.344,-15.684 -2.968,-32.594 -16.281,-37.769c-0.969,-0.384 -1.968,-0.69 -2.969,-0.928c5.157,-40.934 5.813,-87.828 -7.687,-126.566c44.469,7.357 79.5,25.166 79.5,25.166l25.062,-28.409c20.657,-23.438 13.282,-62.197 -15.937,-84c-24.031,-17.931 -51.563,-29.616 -75.375,-37.135c74.813,-58.903 156.688,-93.912 231.781,-111.312c8.625,32.981 8.063,79.744 -17.218,148.237c-9.626,26.125 -19.219,48.663 -28.875,68.432l-18.375,12.443c-15.219,-72.162 -67.594,-131.112 -67.594,-131.112c14.094,34.137 20.437,67.378 21.5,98.787c2.562,76.269 -21.188,127.46 -91.282,195.319c-2.874,2.797 -34.437,32.988 -51.906,50.888Z" style="fill:url(#_Linear8);"/><path d="M2057.25,759.528c1.125,-5.369 1.281,-10.919 0.594,-16.575c3.906,1.759 6.062,2.856 6.062,2.856c10,-48.268 -58.25,-110.725 -97.718,-142.237c7.093,1.697 14.906,3.812 23.187,6.428c0.156,-0.122 0.312,-0.25 0.469,-0.372c0.406,0.119 0.781,0.238 1.156,0.356c23.812,7.519 51.344,19.204 75.375,37.135c29.219,21.803 36.594,60.562 15.937,84l-25.062,28.409Z" style="fill:#84cdd2;fill-rule:nonzero;"/><path d="M2063.91,745.809c0,0 -2.156,-1.097 -6.062,-2.856c-7.813,-65.316 -125,-145.734 -125,-145.734c-30.25,15.031 -48.844,33.859 -59.907,53.159c9.532,-23.703 28.813,-47.884 65.625,-66.409c2.594,1.809 12.344,8.715 25.344,19.059c0.75,0.178 1.531,0.359 2.282,0.544c39.468,31.512 107.718,93.969 97.718,142.237Z" style="fill:#d7d8db;fill-rule:nonzero;"/><path d="M2161.12,744.787c-0.688,-5.734 -1.656,-11.406 -2.812,-17.003l18.375,-12.443c-5.157,10.565 -10.313,20.337 -15.563,29.446Z" style="fill:#84cdd2;fill-rule:nonzero;"/><path d="M1980.69,920.169c-1.937,-0 -3.937,-0.272 -5.906,-0.832c3.844,-16.321 7.906,-36.515 10.656,-58.409c1.001,0.238 2,0.544 2.969,0.928c13.313,5.175 20.625,22.085 16.281,37.769c-3.468,12.572 -13.343,20.544 -24,20.544Z" style="fill:#202936;fill-rule:nonzero;"/><path d="M2057.25,759.528c-0,0 -35.031,-17.809 -79.5,-25.166c-4.687,-13.499 -11.125,-26.009 -19.688,-36.928c0,0 2.813,13.054 4.657,34.913c-6.907,-0.703 -14,-1.103 -21.125,-1.103c-26.032,-0 -52.906,5.322 -76.407,20.59c0,0 -0.281,-0.737 -0.75,-2.115c-3.437,-10.244 -16.406,-55.972 8.5,-99.341c11.063,-19.3 29.657,-38.128 59.907,-53.159c-0,-0 117.187,80.418 125,145.734c0.687,5.656 0.531,11.206 -0.594,16.575Z" style="fill:#17797c;fill-rule:nonzero;"/><path d="M1483.56,302.916c-4.843,32.581 -9.875,66.7 -15.218,86.581c48.187,-23.466 141.718,-114.2 279.531,-100.703c-115.906,17.581 -207.375,66.656 -274.75,146.887c-21.75,25.869 -38.281,72.794 -31.25,138.428c0.25,2.269 38.937,281.638 38.937,281.632c0,-0 101.282,-34.354 188.969,-63.991c108.344,-36.616 184.375,-134.378 193.594,-249.609c3.844,-47.966 -0.469,-80.219 -0.469,-80.219c51.75,77.925 9.281,215.3 -8.875,265.1c20.375,-17.878 57.063,-47.856 60.438,-50.631c81.562,-67.447 111.625,-120.797 115.312,-203.51c1.532,-34.062 -2.5,-70.556 -14.843,-108.678c-0,0 59.937,79.194 63.562,166.188c18.469,-27.013 36.969,-59.991 56.406,-102.091c63.282,-137.284 22.469,-196.656 -1,-228.55c-70.25,-61.134 -118.5,-52.456 -171.156,-13.791c-0,0 59.5,-54.259 19.375,-119.134c-92.75,-67.366 -216.656,-42.184 -278.5,18.597c-26.125,25.653 -54.875,37.928 -83.625,49.719c51.531,-10.229 47.875,12.856 168.875,47.45c-66.844,-14.778 -135.938,-13.466 -207.781,7.531c-51.656,15.094 -89.563,59.065 -97.532,112.794Z" style="fill:#0c8f62;fill-rule:nonzero;"/><path d="M1910.56,204.566c-0.032,0.047 -294.657,344.89 -418.25,621.297l2.093,0.937c61.688,-137.938 166.157,-293.156 255.219,-413.853c44.531,-60.353 85.188,-112.078 114.75,-148.713c14.75,-18.318 26.75,-32.862 35.031,-42.828c4.157,-4.984 7.375,-8.822 9.563,-11.412c2.187,-2.591 3.343,-3.931 3.343,-3.935l-1.749,-1.493Z" style="fill:#64d1ab;fill-rule:nonzero;"/><path d="M1464.34,691.356c0.031,-0.268 0.343,-1.359 0.843,-2.987c3.938,-12.36 21.125,-58.213 58.407,-106.16c37.25,-47.959 94.562,-98.021 178.781,-119.034l-0.563,-2.231c-91.218,22.756 -151.062,79.35 -188.156,130.668c-18.531,25.663 -31.375,50.013 -39.625,68.188c-4.093,9.088 -7.062,16.631 -9.031,22.028c-0.969,2.7 -1.687,4.859 -2.156,6.416c-0.25,0.775 -0.438,1.4 -0.563,1.872c-0.125,0.49 -0.187,0.734 -0.219,1.062l2.282,0.178Z" style="fill:#64d1ab;fill-rule:nonzero;"/><path d="M1715.53,471.034c0,0.003 0.094,0.141 0.25,0.444c2.406,4.509 22.063,43.344 22.063,106.41c-0,54.893 -14.875,128.159 -69.031,213.246l1.937,1.235c54.375,-85.428 69.375,-159.172 69.375,-214.481c-0,-67.788 -22.5,-107.86 -22.594,-107.979l-2,1.125Z" style="fill:#64d1ab;fill-rule:nonzero;"/><path d="M1795.5,349.459c-0.125,-0.037 -14.156,-5.05 -39.5,-5.05c-52.469,-0.009 -153.281,21.55 -278.469,153.025l1.656,1.585c124.876,-131.113 224.969,-152.3 276.813,-152.31c12.5,0 22.219,1.238 28.781,2.472c3.282,0.616 5.781,1.232 7.438,1.691c0.844,0.228 1.468,0.419 1.906,0.55c0.406,0.131 0.594,0.203 0.594,0.2l0.781,-2.163Z" style="fill:#64d1ab;fill-rule:nonzero;"/><path d="M1793.06,365.169c-0,-0 0.156,0.225 0.468,0.687c4.688,6.963 42.688,66.232 42.688,157.438c-0,37.975 -6.563,81.493 -24.907,129.115l2.157,0.825c18.437,-47.887 25.062,-91.7 25.062,-129.94c0,-97.985 -43.5,-159.341 -43.593,-159.453l-1.875,1.328Z" style="fill:#64d1ab;fill-rule:nonzero;"/><path d="M1868.25,299.966l0.156,0.137c3.25,3.097 58.469,57.635 67.406,214.3l2.313,-0.131c-9.281,-162.241 -68.125,-215.831 -68.344,-216.01l-1.531,1.704Z" style="fill:#64d1ab;fill-rule:nonzero;"/><path d="M2239.31,668.247c-4.687,-1.616 -34.593,-22.372 -37.906,-26.975c-12,-12.241 -17.875,-32.844 -14.968,-59.778c6.312,-59.103 52.312,-126.178 102.718,-149.819c23.5,-11.022 42.031,-13.472 57.625,-4.231c8.688,4.528 32.157,18.575 32.157,18.575c4.187,4.581 -4.719,7.225 -2.282,13.881c5.594,11.925 7.844,27.572 5.844,46.306c-6.312,59.103 -52.312,126.178 -102.75,149.822c-21.219,9.956 -26.437,19.2 -40.438,12.219Z" style="fill:#f0b037;fill-rule:nonzero;"/><path d="M2295.38,667.491c51.125,-22.891 98.156,-91.141 105.063,-152.447c6.906,-61.303 -28.907,-92.444 -80.032,-69.553c-51.125,22.89 -98.156,91.143 -105.062,152.447c-6.907,61.303 28.937,92.443 80.031,69.553Z" style="fill:#fff;fill-rule:nonzero;"/><path d="M2298.84,669.609c51.125,-22.89 98.156,-91.143 105.062,-152.446c6.906,-61.304 -28.937,-92.444 -80.031,-69.554c-51.125,22.888 -98.156,91.141 -105.062,152.447c-6.907,61.303 28.906,92.444 80.031,69.553Z" style="fill:#ffd482;fill-rule:nonzero;"/><path d="M2304.31,637.147c35.749,-16.003 68.624,-63.716 73.437,-106.572c4.844,-42.856 -20.219,-64.628 -55.938,-48.625c-35.749,16.003 -68.624,63.716 -73.437,106.572c-4.844,42.856 20.219,64.625 55.938,48.625Z" style="fill:#fff;fill-rule:nonzero;"/><path d="M2372.34,527.247c-4.844,42.856 -37.719,90.569 -73.438,106.572c-14.25,6.378 -26.812,6.747 -36.437,2.178c10.093,7.809 24.75,8.803 41.844,1.15c35.749,-16.003 68.624,-63.719 73.437,-106.572c2.906,-25.772 -5,-43.916 -19.531,-50.806c11.031,8.512 16.656,25.122 14.125,47.478Z" style="fill:#f2c97b;fill-rule:nonzero;"/><path d="M2319.75,516.034c6.75,-2.265 14.562,-2.706 19.5,0.238l-8.563,16.003c-5.437,-2.1 -10.312,-2.284 -15.875,0.281c-6.468,2.997 -9.656,7.256 -10.187,13.1c-1.188,13.085 29.406,-1.294 27.344,21.572c-1.157,12.45 -8.657,24.191 -19.75,31.634l-1.188,13.085l-11.25,5.187l1.188,-12.828c-7.313,2.278 -12.281,0.678 -16.313,-2.443l9.532,-14.632c3.781,2.266 7.187,2.766 12.062,0.519c5.563,-2.569 8.781,-6.372 9.312,-12.091c1.094,-12.065 -29.593,3.075 -27.375,-21.187c1.125,-12.197 8.094,-24.435 20.282,-32.738l1.218,-13.212l11.219,-5.191l-1.156,12.703Z" style="fill:#ffd482;fill-rule:nonzero;"/><path d="M2242.97,517.678l-27.094,-16.231c-0.469,-0.291 -1.125,-0.135 -1.406,0.356c-0.281,0.491 -0.125,1.125 0.343,1.419l27.094,16.228c0.5,0.294 1.125,0.134 1.438,-0.353c0.281,-0.491 0.125,-1.125 -0.375,-1.419Z" style="fill:#ffd482;fill-rule:nonzero;"/><path d="M2227.31,547.706l-26.25,-15.962c-0.499,-0.294 -1.125,-0.141 -1.406,0.347c-0.312,0.487 -0.156,1.121 0.344,1.418l26.25,15.963c0.469,0.297 1.125,0.144 1.406,-0.344c0.313,-0.487 0.157,-1.125 -0.344,-1.422Z" style="fill:#ffd482;fill-rule:nonzero;"/><path d="M2217.16,579.128l-26.25,-15.959c-0.5,-0.297 -1.125,-0.144 -1.437,0.343c-0.281,0.488 -0.125,1.126 0.343,1.422l26.251,15.96c0.5,0.297 1.124,0.144 1.437,-0.344c0.281,-0.488 0.125,-1.125 -0.344,-1.422Z" style="fill:#ffd482;fill-rule:nonzero;"/><path d="M2213.25,610.531l-24.188,-14.715c-0.5,-0.297 -1.124,-0.141 -1.437,0.346c-0.281,0.488 -0.125,1.122 0.344,1.419l24.219,14.716c0.5,0.297 1.125,0.144 1.406,-0.344c0.312,-0.487 0.156,-1.125 -0.344,-1.422Z" style="fill:#ffd482;fill-rule:nonzero;"/><path d="M2217.91,641.041l-24.187,-15.616c-0.469,-0.309 -1.125,-0.172 -1.438,0.306c-0.312,0.482 -0.156,1.119 0.313,1.428l24.187,15.619c0.5,0.31 1.125,0.172 1.438,-0.309c0.312,-0.478 0.156,-1.119 -0.313,-1.428Z" style="fill:#ffd482;fill-rule:nonzero;"/><path d="M2263.47,488.784l-26.094,-16.171c-0.5,-0.3 -1.125,-0.151 -1.438,0.334c-0.312,0.484 -0.156,1.122 0.344,1.422l26.094,16.172c0.5,0.3 1.125,0.15 1.438,-0.335c0.312,-0.484 0.156,-1.122 -0.344,-1.422Z" style="fill:#ffd482;fill-rule:nonzero;"/><path d="M2286.88,465.481l-26.094,-16.168c-0.5,-0.3 -1.125,-0.151 -1.437,0.334c-0.313,0.484 -0.157,1.122 0.343,1.422l26.094,16.168c0.5,0.3 1.125,0.154 1.438,-0.334c0.312,-0.484 0.156,-1.122 -0.344,-1.422Z" style="fill:#ffd482;fill-rule:nonzero;"/><path d="M2313.12,447.797l-24.094,-14.913c-0.469,-0.3 -1.125,-0.15 -1.406,0.338c-0.313,0.484 -0.156,1.122 0.313,1.422l24.093,14.909c0.5,0.3 1.125,0.15 1.438,-0.334c0.281,-0.485 0.125,-1.122 -0.344,-1.422Z" style="fill:#ffd482;fill-rule:nonzero;"/><path d="M2342.38,438.094l-24.875,-14.491c-0.5,-0.287 -1.125,-0.122 -1.406,0.372c-0.281,0.494 -0.125,1.125 0.375,1.413l24.875,14.493c0.5,0.288 1.125,0.119 1.406,-0.375c0.281,-0.49 0.125,-1.125 -0.375,-1.412Z" style="fill:#ffd482;fill-rule:nonzero;"/><path d="M1005.81,1851.34l206.813,133.071c0.5,0.319 1.156,0.175 1.469,-0.315c0.312,-0.494 0.187,-1.147 -0.313,-1.466l-206.812,-133.072c-0.5,-0.315 -1.157,-0.172 -1.469,0.319c-0.312,0.491 -0.156,1.147 0.312,1.463Z" style="fill:#34c8cc;fill-rule:nonzero;"/><path d="M1226.22,1984.48l494.781,-227.534c0.531,-0.244 0.781,-0.875 0.531,-1.406c-0.25,-0.532 -0.875,-0.763 -1.406,-0.519l-494.813,227.537c-0.531,0.244 -0.75,0.872 -0.5,1.404c0.251,0.531 0.875,0.765 1.407,0.518Z" style="fill:#34c8cc;fill-rule:nonzero;"/><path d="M1526.5,1883.2l-0,-83.688l-62.875,28.813l-0,83.691l62.875,-28.816Z" style="fill:#dedede;fill-rule:nonzero;"/><path d="M2712.59,1981.17c18.781,55.74 -37.531,97.778 -140.969,123.078c-116.563,28.515 -256.375,-6.222 -299.531,-72.913c-11.813,-18.253 -15.344,-34.95 -11.906,-50.165l-18.688,-0c-15.781,31.197 -15.219,65.059 5.375,96.881c50.438,77.887 201.656,114.031 337.812,80.725c122.501,-29.966 191,-105.944 166.782,-177.606l-38.875,-0Z" style="fill:#5f594b;fill-rule:nonzero;"/><path d="M2719.81,1981.17c0,65.409 -100.281,122.875 -224.031,128.35c-123.718,5.475 -224.031,-43.11 -224.031,-108.522c-0,-65.409 100.313,-122.875 224.031,-128.35c123.75,-5.475 224.031,43.109 224.031,108.522Z" style="fill:#bfd9d0;fill-rule:nonzero;"/><path d="M2566.91,2087.65c-116.562,28.516 -246.062,-2.431 -289.219,-69.115c-43.156,-66.691 16.313,-143.872 132.907,-172.388c116.562,-28.516 246.031,2.428 289.218,69.119c43.157,66.687 -16.343,143.865 -132.906,172.384Zm171.032,-174.231c-50.438,-77.891 -201.657,-114.031 -337.813,-80.728c-136.125,33.306 -205.625,123.45 -155.219,201.34c50.438,77.888 201.657,114.035 337.813,80.728c136.156,-33.309 205.625,-123.449 155.219,-201.34Z" style="fill:#736c5b;fill-rule:nonzero;"/><path d="M2504.53,1872.35l-21.812,225.906c23.906,0.085 50.312,-3.406 78.344,-9.228l9.687,-212.909l-66.219,-3.769Z" style="fill:#fff;fill-rule:nonzero;"/><path d="M2593.47,1880.15l-3.094,200.872c16,-5.175 30.375,-11.184 43.313,-17.919l-0,-171.465c-11.719,-5.21 -26.875,-7.785 -40.219,-11.488Z" style="fill:#fff;fill-rule:nonzero;"/><path d="M2230.94,2213.08l-47.813,-22.512l112.188,-80.672c22.999,-17.484 54.312,14.034 36.937,29.075l-101.312,74.109Z" style="fill:#fff;fill-rule:nonzero;"/><path d="M2230.94,2213.08l0.406,-0.865l-46.344,-21.819l110.906,-79.728l0,-0.01c4.594,-3.493 9.5,-4.94 14.25,-4.943c6.813,-0.007 13.407,2.981 18.25,7.34c4.875,4.353 7.938,10.056 7.938,15.297c-0,3.6 -1.406,7.006 -4.719,9.894l0.625,0.725l-0.562,-0.775l-101.313,74.112l0.563,0.772l0.406,-0.865l-0.406,0.865l0.562,0.775l101.344,-74.134l0.031,-0.028c3.719,-3.2 5.375,-7.235 5.375,-11.341c-0,-5.99 -3.406,-12.087 -8.563,-16.725c-5.156,-4.628 -12.156,-7.825 -19.531,-7.828c-5.156,-0.003 -10.5,1.591 -15.406,5.334l0.563,0.763l-0.563,-0.778l-113.531,81.622l49.843,23.45l0.438,-0.335l-0.562,-0.775Z" style="fill:#302d25;fill-rule:nonzero;"/><path d="M2282.06,2208.7c-5.875,-27.775 -32.313,-58.559 -59.063,-68.766c-13.969,-5.325 -25.219,-3.984 -32,2.444l-210.75,154.259l79.719,99.941l212.031,-155.453c9.281,-4.928 13.469,-16.425 10.063,-32.425Z" style="fill:url(#_Linear9);"/><path d="M2069.09,2364.69c5.875,27.771 -11.032,42.009 -37.781,31.806c-26.751,-10.21 -53.219,-40.994 -59.094,-68.766c-5.875,-27.772 11.031,-42.009 37.781,-31.806c26.75,10.209 53.219,40.994 59.094,68.766Z" style="fill:#302d25;fill-rule:nonzero;"/><path d="M1975,2302.73c3.531,-2.956 8.25,-4.587 14.063,-4.59c4.562,-0.004 9.781,1.012 15.499,3.196c13.032,4.969 26.188,15.066 36.719,27.347c10.563,12.272 18.5,26.728 21.375,40.263c0.75,3.628 1.125,7 1.125,10.084c0,6.428 -1.562,11.591 -4.343,15.372c-0.501,0.706 -0.344,1.7 0.375,2.216c0.687,0.515 1.687,0.359 2.187,-0.347c3.25,-4.441 4.969,-10.307 4.969,-17.241c-0,-3.334 -0.406,-6.922 -1.219,-10.74c-3.031,-14.238 -11.219,-29.06 -22.063,-41.675c-10.843,-12.607 -24.281,-23.007 -38,-28.241c-6.031,-2.297 -11.593,-3.406 -16.624,-3.406c-6.407,-0.007 -11.938,1.831 -16.094,5.334c-0.656,0.566 -0.75,1.566 -0.188,2.234c0.563,0.672 1.563,0.757 2.219,0.194Z" style="fill:#fff;fill-rule:nonzero;"/><path d="M2224.78,2141.31l0.031,0.013c1.532,0.394 31.938,8.062 54.407,62.581c0.343,0.809 1.25,1.197 2.062,0.863c0.813,-0.335 1.219,-1.26 0.875,-2.072c-23.5,-57.194 -56.343,-64.441 -56.718,-64.488c-0.876,-0.181 -1.719,0.369 -1.907,1.225c-0.156,0.856 0.375,1.697 1.25,1.878Z" style="fill:#fff;fill-rule:nonzero;"/><path d="M2122.91,1723.29l-332.218,456.988c-8.907,12.266 -26.313,15.125 -38.688,6.359l0,-0.003c-12.344,-8.768 -15.156,-25.981 -6.25,-38.247l332.25,-456.99c8.906,-12.266 26.313,-15.125 38.656,-6.353c12.375,8.768 15.188,25.981 6.25,38.246Z" style="fill:#202936;fill-rule:nonzero;"/><path d="M1740.94,2160l-15.156,60.206c-1.156,4.603 4.219,8.044 8,5.128l52.938,-40.703l-45.782,-24.631Z" style="fill:#202936;fill-rule:nonzero;"/><path d="M1640.47,247.631c-0,0 0.75,-0.14 2.219,-0.384c10.218,-1.713 54.187,-8.572 101.437,-8.569c27,-0.003 55.062,2.244 78.469,8.925l0.656,-2.209c-23.781,-6.772 -52,-9.013 -79.125,-9.016c-54.25,0.003 -104.031,8.984 -104.094,8.991l0.438,2.262Z" style="fill:#64d1ab;fill-rule:nonzero;"/></g><defs><linearGradient id="_Linear1" x1="0" y1="0" x2="1" y2="0" gradientUnits="userSpaceOnUse" gradientTransform="matrix(1207.59,0,0,1207.59,11.6875,802.309)"><stop offset="0" style="stop-color:#857c69;stop-opacity:1"/><stop offset="1" style="stop-color:#5e594b;stop-opacity:1"/></linearGradient><linearGradient id="_Linear2" x1="0" y1="0" x2="1" y2="0" gradientUnits="userSpaceOnUse" gradientTransform="matrix(1314.27,0,0,1314.27,183.406,960.056)"><stop offset="0" style="stop-color:#34c8cc;stop-opacity:1"/><stop offset="1" style="stop-color:#28b8ba;stop-opacity:1"/></linearGradient><linearGradient id="_Linear3" x1="0" y1="0" x2="1" y2="0" gradientUnits="userSpaceOnUse" gradientTransform="matrix(209.762,0,0,209.762,716.281,954.472)"><stop offset="0" style="stop-color:#fb774b;stop-opacity:1"/><stop offset="1" style="stop-color:#d45d34;stop-opacity:1"/></linearGradient><linearGradient id="_Linear4" x1="0" y1="0" x2="1" y2="0" gradientUnits="userSpaceOnUse" gradientTransform="matrix(483.981,808.875,-808.875,483.981,2176.19,720.25)"><stop offset="0" style="stop-color:#34c8cc;stop-opacity:1"/><stop offset="1" style="stop-color:#17a1a3;stop-opacity:1"/></linearGradient><linearGradient id="_Linear5" x1="0" y1="0" x2="1" y2="0" gradientUnits="userSpaceOnUse" gradientTransform="matrix(263.985,0,0,263.985,1810.88,1161.69)"><stop offset="0" style="stop-color:#9af0f4;stop-opacity:1"/><stop offset="1" style="stop-color:#3bc3c6;stop-opacity:1"/></linearGradient><linearGradient id="_Linear6" x1="0" y1="0" x2="1" y2="0" gradientUnits="userSpaceOnUse" gradientTransform="matrix(714.247,0,0,714.247,1006.34,1840.43)"><stop offset="0" style="stop-color:#179799;stop-opacity:1"/><stop offset="1" style="stop-color:#1aa7a8;stop-opacity:1"/></linearGradient><linearGradient id="_Linear8" x1="0" y1="0" x2="1" y2="0" gradientUnits="userSpaceOnUse" gradientTransform="matrix(483.981,808.875,-808.875,483.981,2176.19,720.25)"><stop offset="0" style="stop-color:#2faab1;stop-opacity:1"/><stop offset="1" style="stop-color:#188c8e;stop-opacity:1"/></linearGradient><linearGradient id="_Linear9" x1="0" y1="0" x2="1" y2="0" gradientUnits="userSpaceOnUse" gradientTransform="matrix(188.745,237.032,-237.032,188.745,2039.97,2131.24)"><stop offset="0" style="stop-color:#857c69;stop-opacity:1"/><stop offset="1" style="stop-color:#5e594b;stop-opacity:1"/></linearGradient></defs></svg>